<svg width="667" height="634" viewBox="0 0 667 634" fill="none" xmlns="http://www.w3.org/2000/svg">
<g clip-path="url(#clip0_196_393)">
<path d="M333.333 0C386.377 0 437.247 21.0714 474.755 58.5786C512.262 96.0859 533.333 146.957 533.333 200V233.333H666.667V300H627.767L602.533 602.767C601.84 611.096 598.042 618.861 591.893 624.523C585.743 630.184 577.692 633.329 569.333 633.333H97.3333C88.9749 633.329 80.9232 630.184 74.774 624.523C68.6249 618.861 64.8271 611.096 64.1333 602.767L38.8667 300H0V233.333H133.333V200C133.333 146.957 154.405 96.0859 191.912 58.5786C229.419 21.0714 280.29 0 333.333 0ZM560.867 300H105.767L128 566.667H538.633L560.867 300ZM366.667 366.667V500H300V366.667H366.667ZM233.333 366.667V500H166.667V366.667H233.333ZM500 366.667V500H433.333V366.667H500ZM333.333 66.6667C299.125 66.6666 266.226 79.8145 241.44 103.391C216.653 126.967 201.877 159.168 200.167 193.333L200 200V233.333H466.667V200C466.667 165.792 453.519 132.892 429.943 108.106C406.366 83.3202 374.165 68.5437 340 66.8333L333.333 66.6667Z" fill="#3A3A3A"/>
<path d="M582 267H85V596H582V267Z" fill="#3A3A3A"/>
</g>
<defs>
<clipPath id="clip0_196_393">
<rect width="667" height="634" fill="white"/>
</clipPath>
</defs>
</svg>
