<svg width="667" height="617" viewBox="0 0 667 617" fill="none" xmlns="http://www.w3.org/2000/svg">
<path d="M333.367 50.966C411.667 -19.334 532.667 -17.0007 608.1 58.566C683.5 134.166 686.1 254.566 615.967 333.099L333.3 616.166L50.7002 333.099C-19.4331 254.566 -16.7998 133.966 58.5669 58.566C134.067 -16.9007 254.834 -19.434 333.367 50.966ZM560.9 105.666C510.9 55.5993 430.234 53.566 377.9 100.566L333.4 140.499L288.867 100.599C236.367 53.5327 155.867 55.5993 105.734 105.733C56.0669 155.399 53.5669 234.899 99.3335 287.433L333.333 521.799L567.333 287.466C613.133 234.899 610.633 155.499 560.9 105.666Z" fill="#3A3A3A"/>
</svg>
