<svg width="667" height="617" viewBox="0 0 667 617" fill="none" xmlns="http://www.w3.org/2000/svg">
<path d="M333.367 50.966C411.667 -19.334 532.667 -17.0007 608.1 58.566C683.5 134.166 686.1 254.566 615.967 333.099L333.3 616.166L50.7002 333.099C-19.4331 254.566 -16.7998 133.966 58.5669 58.566C134.067 -16.9007 254.834 -19.434 333.367 50.966ZM560.9 105.666C510.9 55.5993 430.234 53.566 377.9 100.566L333.4 140.499L288.867 100.599C236.367 53.5327 155.867 55.5993 105.734 105.733C56.0669 155.399 53.5669 234.899 99.3335 287.433L333.333 521.799L567.333 287.466C613.133 234.899 610.633 155.499 560.9 105.666Z" fill="#3A3A3A"/>
<path d="M373.786 208.953C373.786 317.727 301.304 405.906 211.893 405.906C122.482 405.906 14 317.727 14 208.953C14 100.179 122.482 12 211.893 12C301.304 12 373.786 100.179 373.786 208.953Z" fill="#3A3A3A"/>
<path d="M652 193.888C652 287.255 552.518 406.464 463.107 406.464C373.696 406.464 301.214 274.423 301.214 181.056C301.214 87.6888 373.696 12 463.107 12C552.518 12 652 100.521 652 193.888Z" fill="#3A3A3A"/>
<path d="M492.034 355.388C535.5 438.5 414 516.612 330.141 593C254.5 521.612 116.5 427.5 168.248 355.388C168.248 266.194 240.73 193.888 330.141 193.888C419.552 193.888 492.034 266.194 492.034 355.388Z" fill="#3A3A3A"/>
</svg>
