<svg width="667" height="667" viewBox="0 0 667 667" fill="none" xmlns="http://www.w3.org/2000/svg">
<path d="M333.333 666.667C149.233 666.667 0 517.433 0 333.333C0 149.233 149.233 0 333.333 0C517.433 0 666.667 149.233 666.667 333.333C666.667 517.433 517.433 666.667 333.333 666.667ZM167.1 541.867C214.285 579.59 272.923 600.096 333.333 600C399 600 459.1 576.267 505.567 536.933C483.857 514.658 457.902 496.963 429.234 484.893C400.567 472.824 369.771 466.626 338.667 466.667C306.42 466.629 274.517 473.295 244.982 486.24C215.448 499.186 188.926 518.129 167.1 541.867ZM120.533 494C148.548 464.269 182.356 440.59 219.871 424.424C257.387 408.257 297.816 399.945 338.667 400C378.055 399.949 417.066 407.679 453.458 422.746C489.851 437.813 522.909 459.921 550.733 487.8C579.269 447.637 596.121 400.355 599.419 351.197C602.717 302.04 592.332 252.93 569.416 209.315C546.501 165.701 511.951 129.287 469.599 104.115C427.247 78.9422 378.75 65.9946 329.487 66.7084C280.224 67.4222 232.122 81.7695 190.517 108.159C148.913 134.548 115.432 171.947 93.7897 216.207C72.1475 260.467 63.1898 309.857 67.9105 358.898C72.6312 407.94 90.8458 454.681 120.533 494ZM333.333 366.667C297.971 366.667 264.057 352.619 239.052 327.614C214.048 302.609 200 268.696 200 233.333C200 197.971 214.048 164.057 239.052 139.052C264.057 114.048 297.971 100 333.333 100C368.696 100 402.609 114.048 427.614 139.052C452.619 164.057 466.667 197.971 466.667 233.333C466.667 268.696 452.619 302.609 427.614 327.614C402.609 352.619 368.696 366.667 333.333 366.667ZM333.333 300C351.014 300 367.971 292.976 380.474 280.474C392.976 267.971 400 251.014 400 233.333C400 215.652 392.976 198.695 380.474 186.193C367.971 173.69 351.014 166.667 333.333 166.667C315.652 166.667 298.695 173.69 286.193 186.193C273.69 198.695 266.667 215.652 266.667 233.333C266.667 251.014 273.69 267.971 286.193 280.474C298.695 292.976 315.652 300 333.333 300Z" fill="#3A3A3A"/>
</svg>
