<!DOCTYPE svg PUBLIC "-//W3C//DTD SVG 1.1//EN" "http://www.w3.org/Graphics/SVG/1.1/DTD/svg11.dtd">
<!-- Uploaded to: SVG Repo, www.svgrepo.com, Transformed by: SVG Repo Mixer Tools -->
<svg fill="#000000" height="800px" width="800px" version="1.1" id="Layer_1" xmlns="http://www.w3.org/2000/svg" xmlns:xlink="http://www.w3.org/1999/xlink" viewBox="0 0 512.213 512.213" xml:space="preserve" stroke="#000000" stroke-width="6.6587689999999995">
<g id="SVGRepo_bgCarrier" stroke-width="0"/>
<g id="SVGRepo_tracerCarrier" stroke-linecap="round" stroke-linejoin="round"/>
<g id="SVGRepo_iconCarrier"> <g transform="translate(1 1)"> <g> <g> <path d="M488.067,187.8L291.8,13.72c-20.48-19.627-52.907-19.627-73.387,0l-65.707,59.733v-23.04h8.533 c5.12,0,8.533-3.413,8.533-8.533V7.747c0-5.12-3.413-8.533-8.533-8.533H58.84c-5.12,0-8.533,3.413-8.533,8.533V41.88 c0,5.12,3.413,8.533,8.533,8.533h8.533v98.133L22.147,187.8c-5.973,5.973-7.68,14.507-5.12,21.333s10.24,11.947,17.92,11.947 h32.427v238.933H58.84c-5.12,0-8.533,3.413-8.533,8.533v34.133c0,5.12,3.413,8.533,8.533,8.533h392.533 c5.12,0,8.533-3.413,8.533-9.387v-34.133c0-5.12-3.413-8.533-8.533-8.533h-8.533V220.227h32.427 c8.533,0,15.36-4.267,17.92-11.947C495.747,201.453,494.04,192.92,488.067,187.8z M476.973,203.16 c-0.853,0.853-1.707,0.853-1.707,0.853h-40.96c-5.12,0-8.533,3.413-8.533,8.533v256c0,5.12,3.413,8.533,8.533,8.533h8.533v17.067 H67.373V477.08h8.533c5.12,0,8.533-3.413,8.533-8.533v-256c0-5.12-3.413-8.533-8.533-8.533h-40.96c-0.853,0-0.853,0-1.707-0.853 c0-0.853,0-1.707,0.853-2.56l47.787-40.96c1.707-1.707,2.56-4.267,2.56-6.827V41.88c0-5.12-3.413-8.533-8.533-8.533h-8.533V16.28 h85.333v17.067h-8.533c-5.12,0-8.533,3.413-8.533,8.533v51.2c0,3.413,1.707,6.827,5.12,9.387 c3.413,0.853,6.827,0.853,9.387-1.707l80.213-73.387c13.653-13.653,34.987-13.653,49.493,0l196.267,174.08 C476.973,201.453,477.827,202.307,476.973,203.16z"/> <path d="M303.747,204.867c-20.48,0-40.107,11.093-52.053,29.867c-11.947-18.773-30.72-29.867-51.2-29.867 s-38.4,8.533-56.32,27.307c-20.48,21.333-29.013,70.827,7.68,107.52c17.067,17.067,93.867,91.307,94.72,92.16l5.973,5.12 l5.12-5.12c0.853-0.853,78.507-75.947,94.72-92.16c36.693-35.84,28.16-86.187,7.68-107.52 C343,214.253,324.227,204.867,303.747,204.867z M341.293,327.747c-13.653,13.653-69.973,68.267-88.747,86.187 c-17.92-17.92-74.24-72.533-87.893-86.187c-29.013-29.867-22.187-68.267-6.827-84.48c13.653-14.507,28.16-22.187,43.52-22.187 c22.187,0,36.693,17.92,43.52,34.987l7.68,20.48l7.68-20.48C267.053,239,282.413,221.08,304.6,221.08 c15.36,0,29.867,6.827,43.52,22.187C364.333,260.333,370.307,298.733,341.293,327.747z"/> </g> </g> </g> </g>
</svg>