<?xml version="1.0" encoding="iso-8859-1"?>
<!-- Uploaded to: SVG Repo, www.svgrepo.com, Generator: SVG Repo Mixer Tools -->
<!DOCTYPE svg PUBLIC "-//W3C//DTD SVG 1.1//EN" "http://www.w3.org/Graphics/SVG/1.1/DTD/svg11.dtd">
<svg fill="#000000" height="800px" width="800px" version="1.1" id="Capa_1" xmlns="http://www.w3.org/2000/svg" xmlns:xlink="http://www.w3.org/1999/xlink" 
	 viewBox="0 0 199.385 199.385" xml:space="preserve">
<path d="M122.688,199.385h-31.02c-5.361,0-10.516-1.923-14.511-5.415c-1.96-1.714-4.053-3.683-6.222-5.852
	c-4.769-4.769-11.266-6.638-15.077-7.354v15.62c0,1.657-1.343,3-3,3h-6.926c-1.325,0-2.493-0.869-2.873-2.138
	c-0.218-0.725-5.32-17.878-5.32-30.295c0-7.174,1.713-14.281,3.37-21.154c1.289-5.347,2.506-10.397,2.991-15.487
	c1.072-11.257-3.078-40.33-10.327-72.346c-6.92-30.562-6.999-50.607-6.999-51.446c0-1.584,1.231-2.896,2.813-2.994l55.401-3.463
	c0.862-0.054,1.718,0.271,2.327,0.892c0.479,0.486,0.772,1.117,0.844,1.784l43.732-2.732c0.877-0.052,1.718,0.271,2.328,0.892
	c0.609,0.621,0.92,1.476,0.85,2.343c-4.29,53.358-9.931,140.194-7.089,149.456c4.325,3.146,6.961,6.678,9.515,10.098
	c2.396,3.21,4.874,6.529,8.932,9.802c4.555,3.673,10.646,5.386,14.952,6.176c5.138,0.942,9.169,5.049,10.03,10.219l1.084,6.503
	c0.076,0.265,0.117,0.545,0.117,0.835c0,1.657-1.343,3-3,3c-0.005,0-0.012,0.001-0.02,0h-31.02c-4.734,0-9.306-1.499-13.061-4.253
	l0.136,0.817c0.146,0.87-0.1,1.76-0.67,2.433S123.57,199.385,122.688,199.385z M52.859,174.34c0.048,0,0.095,0.001,0.143,0.003
	c0.542,0.026,13.379,0.734,22.177,9.533c2.075,2.075,4.069,3.951,5.929,5.577c2.9,2.535,6.652,3.932,10.562,3.932h27.479
	l-0.559-3.352c-0.447-2.685-2.535-4.815-5.194-5.303c-4.99-0.916-12.101-2.944-17.636-7.408c-4.647-3.747-7.478-7.538-9.975-10.884
	c-2.588-3.466-4.822-6.459-8.672-9.146c-2.158-1.506-4.846-3.38-0.184-79.981c1.856-30.492,4.197-60.987,4.985-71.046l-49.06,3.066
	c0.272,6.521,1.475,23.912,6.771,47.309c6.139,27.108,11.75,60.577,10.448,74.238c-0.525,5.514-1.85,11.01-3.131,16.324
	c-1.647,6.834-3.203,13.288-3.203,19.749c0,9.092,3.119,21.507,4.464,26.433h1.655V177.34c0-0.82,0.336-1.605,0.93-2.171
	C51.348,174.636,52.089,174.34,52.859,174.34z M123.799,185.504c1.494,1.446,2.908,2.754,4.209,3.891
	c2.902,2.536,6.653,3.933,10.563,3.933h27.479l-0.559-3.352c-0.447-2.685-2.535-4.815-5.194-5.303
	c-4.991-0.916-12.103-2.944-17.637-7.408c-4.646-3.747-7.477-7.538-9.974-10.883c-2.588-3.466-4.822-6.46-8.672-9.146
	c-2.159-1.506-4.846-3.381-0.184-79.981c1.856-30.492,4.197-60.988,4.985-71.046L88.18,8.749
	c-0.604,7.743-1.781,23.205-3.032,41.424c0.452,2.204,0.904,4.306,1.381,6.412c6.139,27.107,11.75,60.576,10.448,74.238
	c-0.524,5.512-1.846,11.006-3.124,16.318c-1.28,5.325-2.494,10.375-2.979,15.434l0.158,0.212c2.397,3.212,4.877,6.533,8.939,9.808
	c1.021,0.825,2.193,1.602,3.485,2.311c1.958,1.128,5.956,3.082,11.351,3.849c0.04,0.005,0.08,0.012,0.12,0.02
	C118.782,179.48,122.057,181.977,123.799,185.504z M81.077,152.752c1.758,1.279,3.237,2.622,4.545,3.994
	c0.645-3.719,1.53-7.402,2.397-11.008c1.285-5.346,2.5-10.396,2.984-15.484c0.932-9.78-2.078-33.002-7.637-59.92
	C80.871,110.098,79.282,146.903,81.077,152.752z"/>
</svg>