<!DOCTYPE svg PUBLIC "-//W3C//DTD SVG 1.1//EN" "http://www.w3.org/Graphics/SVG/1.1/DTD/svg11.dtd">
<!-- Uploaded to: SVG Repo, www.svgrepo.com, Transformed by: SVG Repo Mixer Tools -->
<svg fill="#000000" height="800px" width="800px" version="1.1" id="Layer_1" xmlns="http://www.w3.org/2000/svg" xmlns:xlink="http://www.w3.org/1999/xlink" viewBox="0 0 309.452 309.452" xml:space="preserve" stroke="#000000" stroke-width="1.856712">
<g id="SVGRepo_bgCarrier" stroke-width="0"/>
<g id="SVGRepo_tracerCarrier" stroke-linecap="round" stroke-linejoin="round"/>
<g id="SVGRepo_iconCarrier"> <g> <g> <path d="M307.74,228.634l-14.152-13.836l-6.408-6.264l-1.26-1.232l-1.644,0.612c-7.736,2.872-14.408,4.268-20.392,4.268 c-1.468,0-2.896-0.088-4.28-0.264c2.604-1.052,5.376-2.148,8.104-3.228c5.108-2.02,9.932-3.932,13.056-5.312l3.228-1.424 l-2.1-2.864c-2.812-3.832-4.736-6.712-6.436-9.252c-2.184-3.264-3.908-5.844-6.348-8.648l-1.036-1.188l-1.544,0.272 c-6.216,1.088-34.48,6.284-50.072,13.284c6.416-7.704,28.46-13.936,40.408-16.088l9.28-1.672l-8.676-3.728 c-0.308-0.132-31.012-13.312-48.004-19.568l-0.968-0.356l-0.964,0.364c-7.188,2.7-13.032,6.428-18.128,10.756v-51.28 c-0.06,0.124-0.16,0.232-0.224,0.352c0.104-0.536,0.224-1.064,0.224-1.624c0-10.288-18.1-16.764-38.932-18.94 c5.344-5.956,8.9-15.712,9.268-26.448c0.648-19.36-16.82-42.416-17.568-43.384c-0.444-0.58-1.252-0.728-1.868-0.344 c-0.62,0.38-0.852,1.168-0.536,1.824c4.364,9.048-1.4,20.032-9.376,35.236l-2.568,4.916c-5.544,10.724-3.084,21.04,1.26,27.496 c-23.724,0.86-47.044,7.164-48.944,18.2h-0.188v88.504c-0.88-0.268-1.66-0.284-2.284-0.168c-1.416,0.256-3.388,1.32-4.7,4.928 c-1.356,3.74-2.128,7.7-2.88,11.528c-0.36,1.852-0.724,3.704-1.148,5.532c-0.32,1.364-0.224,2.416,0.104,3.272 c-6.672-2.012-13.912-2.244-21.672-0.628c-3.788,0.788-5.124,2.504-5.584,3.804c-0.444,1.272-0.48,3.384,1.88,6.224 c2.756,3.324,6.04,6.228,9.212,9.036c1.184,1.048,2.368,2.092,3.524,3.164c1.116,1.032,2.168,1.492,3.152,1.624 c-2.844,2.68-5.276,5.784-7.32,9.264c0.116-2.48-0.104-4.24-0.128-4.404l-0.192-1.256l0.04-0.012l-0.052-0.088l-0.024-0.16 l-0.064,0.016l-0.78-1.264c-0.32-0.512-7.952-12.668-21.448-17.284c-13.484-4.612-27.34,0.164-27.92,0.372L0,231.838l0.924,1.5 c0.32,0.512,7.956,12.668,21.452,17.284c4.36,1.492,8.756,2,12.736,2c4.008,0,7.564-0.52,10.24-1.072 c-3.316,1.464-7.544,3.932-10.468,7.92c-5.368,7.312-4.052,16.568-3.992,16.96l0.232,1.516l1.492-0.348 c0.4-0.096,9.508-2.332,14.928-9.052c0.16,1.172,0.608,2.032,1.092,2.604c0.744,0.872,2.096,1.8,4.492,1.8 c0.556,0,1.168-0.048,1.836-0.16c3.756-0.624,7.444-1.752,11.012-2.844c1.388-0.424,2.768-0.848,4.164-1.244 c2.26-0.644,3.8-1.676,4.672-3.172c1.584,7.16,5.064,13.78,10.452,19.776c1.964,2.184,3.74,2.76,5.064,2.76 c0.3,0,0.58-0.028,0.828-0.08c1.292-0.244,3.084-1.184,4.248-4.28c1.644-4.352,2.64-8.98,3.604-13.448 c0.084-0.388,0.172-0.776,0.256-1.16c10.112,2.868,22.924,4.376,35.412,4.376c24.12,0,49.54-5.556,53.976-15.896 c10.532,1.352,19.396,2.36,20.212,2.452l3.632,0.412l-0.556-3.66c-0.532-3.5-1.396-11.048-1.372-17.644 c4.24,7.576,11.184,16.032,18.8,18.048l0.7,0.184l0.7-0.18c2.864-0.74,4.88-1.22,6.512-1.612c5.124-1.224,6.668-1.592,18.408-6.1 l4.648-1.784l-3.916-3.1c-1.72-1.36-2.38-2.032-2.74-5.16l9.14,5.508l0.908,0.548l1.04-0.196 c6.812-1.292,41.084-9.708,43.328-12.996l1.356-1.98L307.74,228.634z M130.344,64.866l2.564-4.904 c6.164-11.752,11.336-21.612,11.176-30.228c5.164,8.108,13.248,22.892,12.82,35.488c-0.452,13.328-5.564,22.716-10.968,26.948 c1.984-2.584,3.448-6.088,4.04-10.052c1.424-9.568-6.304-22.516-6.632-23.064c-0.244-0.4-0.752-0.552-1.168-0.348 c-0.416,0.2-0.62,0.684-0.464,1.124c1.7,4.732-1.844,9.612-6.748,16.364l-1.584,2.192c-2.98,4.156-2.86,8.22-1.972,11.288 C128.236,84.814,124.644,75.89,130.344,64.866z M135.284,107.474c0.256,0.944,0.908,1.364,1.544,1.364 c0.148,0,0.3-0.024,0.448-0.072c0.76-0.244,1.396-1.156,1.072-2.364c-0.488-1.84-0.568-3.744-0.276-5.492 c11.088,0.548,19.048,3.656,19.048,6.488c0,3.12-9.596,6.608-22.44,6.608c-12.844,0-22.44-3.488-22.44-6.608 c0-3.116,9.596-6.604,22.44-6.604c0.076,0,0.144,0.008,0.22,0.008C134.596,102.966,134.688,105.25,135.284,107.474z M137.248,94.578c-0.644-0.168-1.268-0.428-1.848-0.872c-0.584-0.736-5.492-7.368-0.548-14.26l1.58-2.184 c3.656-5.032,6.752-9.3,7.4-13.416c2.188,4.508,5.232,12.1,4.348,18.004c-0.896,6.008-4,11.04-7.728,12.516 c-0.7,0.276-1.384,0.368-2.052,0.364C138.012,94.698,137.628,94.662,137.248,94.578z M132.452,94.974 c1.144,1.02,2.3,1.788,3.412,2.248c-0.172,0.436-0.34,0.864-0.472,1.32c-0.24-0.004-0.48-0.012-0.72-0.012 c-11.976,0-24.708,3.112-24.708,8.872c0,5.764,12.732,8.88,24.708,8.88s24.708-3.112,24.708-8.88 c0-5.116-10.04-8.136-20.676-8.752c0.148-0.368,0.36-0.672,0.544-1.008c2.04-0.024,4.1-0.564,6.092-1.656 c0.296-0.164,0.568-0.412,0.86-0.596c23.56,1.796,39.196,8.856,39.196,15.308c0,7.464-20.832,15.776-50.728,15.776 c-29.892,0-50.724-8.316-50.724-15.776C83.952,103.434,103.776,95.378,132.452,94.974z M71.7,220.23 c0.436-1.864,0.804-3.752,1.172-5.636c0.732-3.724,1.48-7.576,2.76-11.104c0.664-1.828,1.568-2.932,2.54-3.104 c0.092-0.016,0.192-0.028,0.292-0.028c0.98,0,2.216,0.8,3.444,2.244c7.364,8.656,10.82,18.328,10.276,28.748 c-0.208,3.956-1.78,6.612-4.916,8.224c0.128-9.648-6.708-13.652-13.56-16.28C71.552,222.458,71.324,221.83,71.7,220.23z M95.912,224.586c-0.508-3.08,0.292-3.852,2.276-4.42c1.54-0.44,3.076-0.908,4.604-1.376c4.048-1.236,8.228-2.508,12.384-3.168 c1.384-0.22,2.4-0.04,2.88,0.52c0.528,0.612,0.556,1.836,0.076,3.36c-3.8,12.008-11.148,20.424-21.832,25.016 c-2.616,1.124-5.2,0.844-7.856-0.848C95.676,239.054,97.5,234.142,95.912,224.586z M58.32,242.37 c-1.168-1.08-2.364-2.14-3.564-3.2c-3.092-2.74-6.292-5.572-8.912-8.724c-1.18-1.42-1.672-2.66-1.384-3.48 c0.3-0.864,1.54-1.56,3.484-1.968c3.236-0.672,6.372-1.004,9.408-1.004c8.148,0,15.568,2.416,22.14,7.224 c2.824,2.068,3.9,4.232,3.496,7.344c-8.14-5.076-15.26-0.808-20.644,3.616C60.416,243.758,59.584,243.534,58.32,242.37z M46.252,246.47l-7.128-2.432c-0.008-0.028,0.008-0.052-0.004-0.08l-3.036-6.7C40.692,240.258,44.152,243.898,46.252,246.47z M28.664,233.566c1.676,0.572,3.22,1.308,4.704,2.104l3.432,7.576l-7.616-2.596c0.008-0.132,0.048-0.264-0.012-0.392l-3.56-7.528 C26.632,232.966,27.648,233.222,28.664,233.566z M23.416,232.302l3.596,7.604l-6.948-2.372l-2.62-5.784 C19.364,231.774,21.376,231.966,23.416,232.302z M15.464,231.79l2.24,4.94l-11.228-3.828 C8.76,232.398,11.904,231.906,15.464,231.79z M23.296,247.938c-8.94-3.056-15.216-9.86-18.116-13.564l41.144,14.036 C41.66,249.522,32.28,251.018,23.296,247.938z M45.832,266.218c-3.508,4.772-9.436,7.208-12.264,8.148 c-0.104-2.772,0.164-8.54,3.596-13.22c3.504-4.772,9.432-7.208,12.264-8.148C49.532,255.774,49.264,261.538,45.832,266.218z M72.652,259.962c0.632,3.664-0.172,5.124-3.288,6.012c-1.412,0.4-2.812,0.832-4.216,1.26c-3.48,1.064-7.076,2.164-10.644,2.756 c-1.768,0.288-3.084,0.052-3.712-0.68c-0.632-0.744-0.66-2.108-0.08-3.844c3.688-10.98,10.48-19.016,20.192-23.884 c1.664-0.836,3.168-1.26,4.588-1.26c1.624,0,3.136,0.56,4.636,1.688C73.664,245.686,71.212,251.582,72.652,259.962z M97.112,265.662c-0.3,1.328-0.588,2.664-0.88,4c-0.94,4.372-1.916,8.892-3.484,13.048c-0.548,1.456-1.3,2.34-2.12,2.496 c-0.872,0.16-2.08-0.484-3.252-1.792c-7.856-8.732-11.428-18.852-10.624-30.092c0.248-3.52,1.816-5.976,4.776-7.456 c0.44,8.332,4.152,12.82,13.076,16.176C97.2,263.022,97.488,264.03,97.112,265.662z M91.432,255.934 c-4.104-2.376-5.784-5.016-5.592-9.056c7.404,3.636,13.036,2.668,20.168-3.228c2.344-1.936,3.44-1.624,4.988-0.172 c1.12,1.044,2.268,2.072,3.416,3.096c2.932,2.616,5.964,5.324,8.424,8.332c1.172,1.432,1.632,2.72,1.3,3.624 c-0.368,0.996-1.776,1.788-3.872,2.172C109.892,262.61,100.2,261.002,91.432,255.934z M185.42,254.346 c-0.02,7.152-20.852,15.124-50.744,15.124c-13.948,0-25.86-1.752-34.664-4.332c0.072-1.08-0.12-1.968-0.488-2.688 c4.012,1.204,8.156,1.868,12.436,1.868c2.888,0,5.828-0.272,8.824-0.824c4.04-0.744,5.504-2.58,6.02-3.988 c0.492-1.332,0.584-3.524-1.764-6.396c-2.6-3.184-5.72-5.964-8.732-8.656c-1.132-1.008-2.264-2.02-3.372-3.052 c-1.26-1.176-2.5-1.792-3.772-1.904c5.276-4.924,9.196-11.312,11.676-19.144c1.02-3.228,0.22-5.08-0.628-6.064 c-0.816-0.94-2.432-1.96-5.472-1.472c-4.352,0.692-8.628,2-12.764,3.26c-1.516,0.464-3.032,0.924-4.556,1.36 c-1.716,0.492-2.792,1.284-3.468,2.212c-1.596-6.696-4.888-13.02-9.88-18.884c-0.04-0.044-0.076-0.076-0.112-0.12v-68.108 c1.072,1.436,2.308,2.8,3.888,4.012c9.556,7.332,26.932,9.468,42.56,9.468c11.872,0,22.728-1.236,28.36-2.364 c0.768-0.152,1.264-0.9,1.112-1.668c-0.156-0.764-0.888-1.28-1.668-1.108c-12.208,2.444-52.796,5.58-68.636-6.576 c-2.88-2.208-4.728-4.756-5.612-7.712v-8.144c8.66,7.856,30.16,12.036,50.724,12.036c20.564,0,42.068-4.18,50.728-12.036v7.62 c-1.856,5.22-8.28,9.528-19.232,12.812c-0.752,0.224-1.176,1.016-0.952,1.764c0.188,0.612,0.752,1.008,1.36,1.008 c0.132,0,0.272-0.02,0.408-0.06c8.856-2.656,14.956-5.948,18.42-9.948V254.346z M264.252,242.498 c-3.86-2.324-8.068-4.86-13.708-8.256c0.324,7.868,0.6,9.772,4.152,12.58c-15.332,5.892-12.864,4.576-24.624,7.616 c-9.844-2.604-19.64-19.152-20.9-25.94c-3.156,8.008,0,28.708,0,28.708s-8.996-1.016-19.836-2.404 c0.008-0.156,0.064-0.3,0.064-0.456v-41.74c13.8,3.636,27.556,6.364,36.792,6.364c1.3,0,2.504-0.052,3.612-0.164 c-6.62-1.688-13.24-3.384-19.864-5.068c-4.916-1.248-12.172-3.76-20.54-6.936v-39.808c5.296-4.828,11.404-8.944,19.104-11.836 c17.116,6.304,47.864,19.516,47.864,19.516s-47.196,8.492-44.392,24.492c11.068-7.524,42.588-13.924,55.028-16.1 c4.128,4.744,6.12,8.832,12.636,17.72c-6.488,2.868-20.744,8.176-28.76,11.716c4.084,1.744,8.444,2.516,13,2.516 c6.764,0,13.968-1.7,21.356-4.44c6.944,6.788,13.624,13.32,20.56,20.1C304.772,232.17,277.24,240.034,264.252,242.498z"/> </g> </g> </g>
</svg>