<!DOCTYPE svg PUBLIC "-//W3C//DTD SVG 1.1//EN" "http://www.w3.org/Graphics/SVG/1.1/DTD/svg11.dtd">
<!-- Uploaded to: SVG Repo, www.svgrepo.com, Transformed by: SVG Repo Mixer Tools -->
<svg fill="#000000" height="256px" width="256px" version="1.1" id="Layer_1" xmlns="http://www.w3.org/2000/svg" xmlns:xlink="http://www.w3.org/1999/xlink" viewBox="0 0 512.00 512.00" xml:space="preserve">
<g id="SVGRepo_bgCarrier" stroke-width="0"/>
<g id="SVGRepo_tracerCarrier" stroke-linecap="round" stroke-linejoin="round"/>
<g id="SVGRepo_iconCarrier"> <g> <g> <path d="M247.449,247.983h-0.086c-4.428,0-7.974,3.588-7.974,8.017c0,4.428,3.631,8.017,8.059,8.017s8.017-3.588,8.017-8.017 C255.466,251.572,251.877,247.983,247.449,247.983z"/> </g> </g> <g> <g> <path d="M119.267,247.983h-0.086c-4.428,0-7.974,3.588-7.974,8.017c0,4.428,3.631,8.017,8.059,8.017s8.017-3.588,8.017-8.017 C127.284,251.572,123.696,247.983,119.267,247.983z"/> </g> </g> <g> <g> <path d="M452.676,247.983h-0.085c-4.428,0-7.974,3.588-7.974,8.017c0,4.428,3.631,8.017,8.059,8.017s8.017-3.588,8.017-8.017 C460.693,251.572,457.105,247.983,452.676,247.983z"/> </g> </g> <g> <g> <path d="M59.409,247.983h-0.086c-4.428,0-7.974,3.588-7.974,8.017c0,4.428,3.631,8.017,8.059,8.017 c4.428,0,8.017-3.588,8.017-8.017C67.426,251.572,63.838,247.983,59.409,247.983z"/> </g> </g> <g> <g> <path d="M495.432,196.676h-150.28c-5.792-10.2-16.749-17.102-29.294-17.102H196.142c-12.546,0-23.502,6.902-29.294,17.102H16.568 C7.432,196.676,0,204.108,0,213.244v85.511c0,9.136,7.432,16.568,16.568,16.568h150.28c5.792,10.2,16.749,17.102,29.294,17.102 h119.716c12.546,0,23.502-6.902,29.294-17.102h150.28c9.136,0,16.568-7.432,16.568-16.568v-85.511 C512,204.108,504.568,196.676,495.432,196.676z M162.486,299.29H16.568c-0.294,0-0.534-0.241-0.534-0.534v-85.511 c0-0.294,0.241-0.534,0.534-0.534h145.918c-0.003,0.178-0.014,0.355-0.014,0.534v85.511 C162.472,298.935,162.482,299.112,162.486,299.29z M333.495,247.983h-18.171v-26.188c0-4.428-3.588-8.017-8.017-8.017H204.693 c-4.428,0-8.017,3.588-8.017,8.017v68.409c0,4.428,3.588,8.017,8.017,8.017h102.614c4.428,0,8.017-3.588,8.017-8.017v-26.188 h18.171v34.739c0,9.725-7.912,17.637-17.637,17.637H196.142c-9.725,0-17.637-7.912-17.637-17.637v-85.511 c0-9.725,7.912-17.637,17.637-17.637h119.716c9.725,0,17.637,7.912,17.637,17.637V247.983z M290.205,264.017h9.086v18.171h-86.58 v-52.376h86.58v18.171h-9.086c-4.428,0-8.017,3.588-8.017,8.017C282.188,260.428,285.776,264.017,290.205,264.017z M410.455,273.102c0,14.441-11.747,26.188-26.188,26.188h-34.753c0.003-0.179,0.014-0.355,0.014-0.534v-85.511 c0-0.18-0.011-0.356-0.014-0.534h34.753c14.441,0,26.188,11.747,26.188,26.188V273.102z M495.967,298.756 c0,0.294-0.241,0.534-0.534,0.534h-78.084c5.714-7.203,9.14-16.301,9.14-26.188v-34.205c0-9.887-3.426-18.985-9.14-26.188h78.084 c0.294,0,0.534,0.24,0.534,0.534V298.756z"/> </g> </g> </g>
</svg>