<!DOCTYPE svg PUBLIC "-//W3C//DTD SVG 1.1//EN" "http://www.w3.org/Graphics/SVG/1.1/DTD/svg11.dtd">
<!-- Uploaded to: SVG Repo, www.svgrepo.com, Transformed by: SVG Repo Mixer Tools -->
<svg fill="#000000" width="800px" height="800px" viewBox="0 0 500 500" id="Layer_1" version="1.1" xml:space="preserve" xmlns="http://www.w3.org/2000/svg" xmlns:xlink="http://www.w3.org/1999/xlink" stroke="#000000" stroke-width="7">
<g id="SVGRepo_bgCarrier" stroke-width="0"/>
<g id="SVGRepo_tracerCarrier" stroke-linecap="round" stroke-linejoin="round"/>
<g id="SVGRepo_iconCarrier"> <g id="hat"> <g> <g> <g> <path d="M253.47,305.91c-30.63,0-68.1-2.95-109.29-12.49l-2.76-0.64l0.48-2.79c0.55-3.16,13.6-77.89,33.36-119.51 c0.68-1.45,1.47-2.89,2.4-4.39c9.95-15.95,29.84-22.96,48.35-17.03c15,4.8,30.86,4.82,45.87,0.04l0.15-0.05 c18.5-5.91,38.94,1.44,48.61,17.47c0.48,0.79,0.91,1.56,1.32,2.34c11.48,21.98,27.08,60.84,36.24,121.19l0.26,1.72l-1.36,1.08 c-1.41,1.12-16.97,4.5-17.12,4.53c-9.45,2.01-24.82,4.79-44.33,6.61C283.81,305.09,269.59,305.91,253.47,305.91z M148.32,288.21 c107.2,24.14,188.67,4.25,203.57,0.13c-9.08-58.04-24.13-95.46-35.23-116.71c-0.35-0.67-0.72-1.33-1.13-2.01 c-8.24-13.65-25.7-19.9-41.55-14.89l-0.15,0.05c-16.24,5.19-33.4,5.19-49.63-0.01c-15.9-5.09-32.94,0.87-41.43,14.49 c-0.8,1.29-1.48,2.53-2.07,3.78C163.39,209.47,150.92,274.03,148.32,288.21z"/> </g> </g> <g> <path d="M249,353.01c-60.8,0-117.99-4.87-161.04-13.72c-56.91-11.7-68.85-25.99-68.85-35.92c0-29.73,100.48-41.99,131.28-45.04 l4.11-0.41l-0.88,4.03c-2.64,12.11-4.47,21.74-5.29,26.26c107.19,24.14,188.67,4.25,203.57,0.13 c-1.39-8.85-2.98-17.63-4.75-26.14l-0.83-4.01l4.08,0.42c30.15,3.09,128.51,15.45,128.51,44.75c0,9.93-11.95,24.22-68.85,35.92 C366.99,348.13,309.8,353.01,249,353.01z M146.88,264.71c-84.07,8.74-121.77,25.62-121.77,38.65c0,3.96,4.62,17.83,64.06,30.05 c42.66,8.77,99.42,13.6,159.83,13.6s117.17-4.83,159.83-13.6c59.44-12.22,64.06-26.09,64.06-30.05 c0-12.82-36.86-29.52-119.06-38.36c1.64,8.19,3.11,16.59,4.39,25.04l0.26,1.72l-1.36,1.08c-1.41,1.12-16.97,4.5-17.12,4.53 c-9.45,2.01-24.82,4.79-44.33,6.62c-34.41,3.21-88.63,3.99-151.49-10.56l-2.76-0.64l0.48-2.79 C141.92,289.88,143.71,279.58,146.88,264.71z"/> </g> <g> <g> <path d="M253.48,306.12c-30.63,0-68.12-3.01-109.31-12.71l-2.62-0.62l0.33-2.67c1.49-12.2,3.98-20.69,4.09-21.05l0.74-2.49 l2.57,0.37c1.18,0.17,118.75,16.82,201.88,0.03l2.95-0.6l0.59,2.95c0.02,0.09,1.91,9.65,3.54,20.7l0.37,2.52l-2.43,0.77 c-0.93,0.29-23.1,7.26-60.47,10.81C283.82,305.29,269.6,306.12,253.48,306.12z M148.19,288.19 c106.44,24.42,188.71,4.31,203.71,0.16c-0.95-6.21-1.94-11.69-2.53-14.88c-76.89,14.68-180.5,2.15-198.3-0.2 C150.33,276.2,149.12,281.52,148.19,288.19z"/> </g> </g> </g> </g> </g>
</svg>