<?xml version="1.0" standalone="no"?>
<!DOCTYPE svg PUBLIC "-//W3C//DTD SVG 20010904//EN"
 "http://www.w3.org/TR/2001/REC-SVG-20010904/DTD/svg10.dtd">
<svg version="1.0" xmlns="http://www.w3.org/2000/svg"
 width="64.000000pt" height="64.000000pt" viewBox="0 0 64.000000 64.000000"
 preserveAspectRatio="xMidYMid meet">

<g transform="translate(0.000000,64.000000) scale(0.100000,-0.100000)"
fill="#000000" stroke="none">
<path d="M246 610 c-44 -14 -66 -39 -66 -76 0 -26 6 -37 29 -50 40 -24 43 -45
15 -100 -20 -40 -24 -62 -24 -142 0 -53 5 -124 11 -159 l11 -63 38 0 c37 0 37
1 44 46 3 26 6 70 6 98 0 66 13 88 29 49 8 -21 9 -47 1 -98 -14 -100 -16 -95
34 -95 l44 0 22 93 22 92 -45 114 c-51 125 -51 136 4 168 25 15 29 23 27 52
-4 48 -42 74 -115 78 -32 1 -71 -2 -87 -7z m55 -63 c21 -13 50 -2 56 23 3 11
9 17 14 14 14 -8 10 -78 -6 -118 -16 -37 -15 -39 31 -151 l46 -114 -19 -78
c-18 -73 -21 -78 -47 -81 -26 -3 -28 -1 -23 25 20 101 18 122 -9 183 -15 33
-30 60 -34 60 -4 0 -11 -39 -14 -87 -12 -162 -16 -183 -36 -183 -27 0 -32 23
-38 162 -4 123 -4 129 22 180 26 52 26 54 11 97 -15 43 -12 84 9 110 9 11 12
9 16 -9 3 -13 13 -28 21 -33z m37 36 c-2 -10 -10 -18 -18 -18 -8 0 -16 8 -18
18 -2 12 3 17 18 17 15 0 20 -5 18 -17z m-113 -42 c-8 -36 -25 -41 -25 -8 0
22 19 51 28 43 2 -3 1 -18 -3 -35z m205 -6 c0 -13 -7 -25 -15 -29 -12 -4 -15
3 -15 36 0 35 2 39 15 28 8 -7 15 -23 15 -35z"/>
<path d="M296 389 c-9 -44 -8 -59 4 -59 6 0 10 11 10 25 0 14 5 25 10 25 6 0
10 -11 10 -25 0 -14 5 -25 10 -25 12 0 13 15 4 59 -4 20 -12 31 -24 31 -12 0
-20 -11 -24 -31z"/>
</g>
</svg>
