<?xml version="1.0" encoding="iso-8859-1"?>
<!-- Uploaded to: SVG Repo, www.svgrepo.com, Generator: SVG Repo Mixer Tools -->
<svg fill="#000000" height="800px" width="800px" version="1.1" id="Layer_1" xmlns="http://www.w3.org/2000/svg" xmlns:xlink="http://www.w3.org/1999/xlink" 
	 viewBox="0 0 512 512" xml:space="preserve">
<g>
	<g>
		<path d="M480.12,268.017l-36.207-36.207c-0.003-0.003-0.006-0.005-0.009-0.008L214.729,2.626C213.175,1.01,210.996,0,208.578,0
			h-60.953H98.866H37.911c-4.71,0-8.533,3.814-8.533,8.533v443.733c0,0.006,0.001,0.011,0.001,0.017v51.183
			c0,4.719,3.823,8.533,8.533,8.533c4.71,0,8.533-3.814,8.533-8.533V460.8h17.067v42.667c0,4.719,3.823,8.533,8.533,8.533
			s8.533-3.814,8.533-8.533V460.8h17.067v42.667c0,4.719,3.823,8.533,8.533,8.533c4.71,0,8.533-3.814,8.533-8.533V460.8h17.067
			v42.667c0,4.719,3.823,8.533,8.533,8.533s8.533-3.814,8.533-8.533V460.8h17.067v42.667c0,4.719,3.823,8.533,8.533,8.533
			c4.71,0,8.533-3.814,8.533-8.533V460.8h17.067v42.667c0,4.719,3.823,8.533,8.533,8.533s8.533-3.814,8.533-8.533v-51.2
			c0-0.006-0.001-0.011-0.001-0.017v-181.75l94.055,94.063c0.014,0.014,0.029,0.025,0.043,0.039l36.165,36.157
			c1.664,1.664,3.849,2.5,6.033,2.5s4.369-0.836,6.033-2.5c3.337-3.336,3.337-8.73,0-12.066l-30.168-30.161l12.067-12.067
			l30.168,30.161c1.664,1.664,3.849,2.5,6.033,2.5c2.185,0,4.369-0.836,6.033-2.5c3.336-3.336,3.336-8.73,0-12.066l-30.168-30.161
			l12.073-12.073l30.167,30.167c1.664,1.664,3.849,2.5,6.033,2.5s4.369-0.836,6.033-2.5c3.337-3.337,3.337-8.73,0-12.066
			l-30.167-30.167l12.069-12.069l30.169,30.169c1.664,1.664,3.849,2.5,6.033,2.5c2.185,0,4.369-0.836,6.033-2.5
			c3.336-3.336,3.336-8.73,0-12.066l-30.169-30.169l12.068-12.068l30.168,30.161c1.664,1.664,3.849,2.5,6.033,2.5
			s4.369-0.836,6.033-2.5c3.337-3.336,3.337-8.73,0-12.066l-30.168-30.161l12.073-12.073l30.167,30.167
			c1.664,1.664,3.849,2.5,6.033,2.5c2.185,0,4.369-0.836,6.033-2.5C483.456,276.746,483.456,271.353,480.12,268.017z
			 M143.231,17.067l12.194,17.067l-32.179,45.047L91.066,34.133l12.194-17.067H143.231z M123.245,347.486l32.179,45.047
			l-32.179,45.047l-32.179-45.047L123.245,347.486z M123.245,318.114l-32.179-45.047l32.179-45.047l32.179,45.047L123.245,318.114z
			 M123.245,198.647L91.066,153.6l32.179-45.047l32.179,45.047L123.245,198.647z M46.445,17.067h35.846l-8.65,12.109
			c-2.125,2.97-2.125,6.946-0.008,9.916l39.125,54.775l-39.125,54.776c-2.116,2.97-2.116,6.946,0,9.916l39.125,54.775
			l-39.125,54.776c-2.116,2.97-2.116,6.946,0,9.916l39.125,54.775l-39.125,54.776c-2.116,2.97-2.116,6.946,0,9.916l33.03,46.242
			H46.445V17.067z M200.045,443.733h-60.216l33.03-46.242c2.116-2.97,2.116-6.946,0-9.916L133.733,332.8l39.125-54.775
			c2.116-2.97,2.116-6.946,0-9.916l-39.125-54.776l39.125-54.775c2.116-2.97,2.116-6.946,0-9.916l-39.125-54.776l39.125-54.775
			c2.116-2.97,2.116-6.946-0.009-9.916l-8.65-12.109h35.845V443.733z M217.112,208.623c0.808,0.435,1.69,0.75,2.631,0.907
			l66.402,11.072l11.071,66.388c0.597,3.601,3.413,6.417,7.006,7.014l56.082,9.352l-0.832,0.831c-0.011,0.011-0.023,0.02-0.034,0.03
			c-0.011,0.011-0.02,0.023-0.03,0.034L317.2,346.454L217.112,246.367V208.623z M219.461,139.095l54.613,9.097l9.105,54.605
			l-54.613-9.097L219.461,139.095z M303.941,223.57l54.613,9.096l9.097,54.605l-54.605-9.097L303.941,223.57z M407.778,255.89
			c-0.022,0.022-0.046,0.04-0.068,0.062c-0.022,0.022-0.04,0.046-0.061,0.068l-23.919,23.915l-9.346-56.083
			c-0.597-3.601-3.413-6.417-7.014-7.014l-66.393-11.072l-11.071-66.388c-0.597-3.601-3.413-6.417-7.006-7.014l-65.786-10.969
			V29.142L425.82,237.85L407.778,255.89z"/>
	</g>
</g>
</svg>