<svg class="icon" style="width: 1em; height: 1em;vertical-align: middle;fill: currentColor;overflow: hidden;" viewBox="0 0 1024 1024" version="1.1" xmlns="http://www.w3.org/2000/svg"><path d="M707.274752 1021.196288c-123.183104 0-128.387072-5.23264-133.41696-10.289152-4.765696-4.829184-10.094592-10.242048-66.035712-532.4288-50.388992 519.522304-51.746816 523.835392-52.353024 525.758464-4.20864 13.197312-5.07904 15.941632-140.234752 15.941632-118.161408 0-119.760896-3.100672-125.05088-13.359104-6.436864-12.437504-1.284096-460.077056-1.226752-464.601088 3.731456-306.880512 11.145216-478.613504 22.040576-510.459904 0.88064-2.576384 3.569664-10.428416 11.3152-14.014464 18.520064-8.579072 76.621824-11.921408 207.239168-11.921408l82.04288 0.145408 83.75296-0.145408c160.710656 0 197.863424 4.708352 210.204672 13.406208 10.078208 7.108608 18.034688 12.722176 26.263552 498.354176 3.328 196.245504 6.15424 476.940288 4.888576 484.421632C834.127872 1017.141248 833.431552 1021.196288 707.274752 1021.196288zM599.396352 985.157632c16.734208 1.583104 56.406016 2.955264 107.8784 2.955264 46.450688 0 80.687104-1.130496 97.03424-2.471936 1.073152-109.113344-8.587264-860.680192-21.76-940.525568-18.300928-3.966976-81.412096-6.211584-187.201536-6.211584l-83.75296 0.145408-82.04288-0.145408c-104.74496 0-167.9872 2.44736-188.372992 7.276544-17.987584 75.032576-24.584192 825.208832-20.60288 938.89536 14.72512 1.017856 45.197312 2.01728 94.65856 2.01728 50.817024 0 91.21792-1.06496 109.502464-2.291712 7.745536-72.708096 45.438976-460.45184 65.849344-671.606784 0.823296-8.448 7.907328-14.90944 16.396288-14.942208 0.022528 0 0.047104 0 0.073728 0 8.456192 0 15.562752 6.37952 16.451584 14.7968C549.353472 557.791232 589.162496 922.19392 599.396352 985.157632zM231.632896 204.081152c-8.998912 0-17.831936-1.712128-26.345472-5.53984-4.159488-1.87392-6.017024-6.785024-4.143104-10.93632 1.882112-4.16768 6.76864-6.0416 10.942464-4.149248 63.516672 28.672 160.565248-99.004416 161.542144-100.296704 2.738176-3.651584 7.929856-4.401152 11.573248-1.6384 3.651584 2.746368 4.384768 7.923712 1.646592 11.573248C383.03744 98.164736 302.503936 204.081152 231.632896 204.081152zM786.241536 204.081152c-70.873088 0-151.390208-105.916416-155.201536-110.989312-2.738176-3.651584-2.002944-8.83712 1.646592-11.573248 3.651584-2.75456 8.83712-2.002944 11.573248 1.6384 0.976896 1.292288 97.937408 128.968704 161.523712 100.296704 4.192256-1.923072 9.054208-0.016384 10.944512 4.149248 1.87392 4.151296 0.016384 9.0624-4.143104 10.93632C804.081664 202.369024 795.2384 204.081152 786.241536 204.081152zM497.072128 314.812416 493.29152 21.25824 509.833216 21.049344 513.611776 314.587136ZM545.581056 56.383488c0 7.366656-5.992448 13.326336-13.359104 13.326336l0 0c-7.315456 0-13.2608-5.961728-13.2608-13.326336l0 0c0-7.348224 5.945344-13.309952 13.2608-13.309952l0 0C539.588608 43.073536 545.581056 49.035264 545.581056 56.383488L545.581056 56.383488zM219.897856 74.846208l578.062336 0 0 16.541696-578.062336 0 0-16.541696ZM324.47488 91.387904c-4.571136 0-8.269824-3.698688-8.269824-8.269824L316.205056 31.492096c0-4.571136 3.698688-8.269824 8.269824-8.269824 4.571136 0 8.269824 3.698688 8.269824 8.269824l0 51.623936C332.744704 87.689216 329.043968 91.387904 324.47488 91.387904zM682.172416 91.387904c-4.571136 0-8.269824-3.698688-8.269824-8.269824L673.902592 31.492096c0-4.571136 3.698688-8.269824 8.269824-8.269824 4.571136 0 8.269824 3.698688 8.269824 8.269824l0 51.623936C690.444288 87.689216 686.743552 91.387904 682.172416 91.387904z" /></svg>