<?xml version="1.0" standalone="no"?>
<!DOCTYPE svg PUBLIC "-//W3C//DTD SVG 20010904//EN"
 "http://www.w3.org/TR/2001/REC-SVG-20010904/DTD/svg10.dtd">
<svg version="1.0" xmlns="http://www.w3.org/2000/svg"
 width="128.000000pt" height="128.000000pt" viewBox="0 0 128.000000 128.000000"
 preserveAspectRatio="xMidYMid meet">

<g transform="translate(0.000000,128.000000) scale(0.100000,-0.100000)"
fill="#000000" stroke="none">
<path d="M237 1194 c-4 -4 -7 -32 -7 -62 0 -39 -35 -188 -116 -495 -133 -502
-131 -458 -22 -497 129 -45 224 -55 548 -55 324 0 419 10 548 55 109 39 111
-2 -18 482 -73 271 -115 450 -119 498 l-6 75 -105 -5 c-161 -8 -483 -6 -595 3
-55 5 -104 5 -108 1z m403 -59 c129 0 263 3 298 7 61 8 62 7 62 -17 0 -36 -36
-40 -360 -40 -324 0 -360 4 -360 40 0 24 1 25 63 17 34 -4 168 -7 297 -7z
m-298 -95 c29 0 30 -2 24 -32 -8 -42 -46 -89 -90 -112 -20 -11 -38 -17 -40
-15 -4 4 25 121 39 158 3 7 12 10 21 7 9 -3 29 -6 46 -6z m685 -76 c12 -43 20
-81 17 -83 -2 -2 -20 4 -40 15 -44 23 -82 70 -90 112 -6 30 -5 31 32 35 22 2
43 3 49 2 5 -1 20 -37 32 -81z m-162 22 c21 -60 66 -108 136 -143 35 -18 66
-41 70 -51 22 -60 150 -566 145 -577 -7 -18 -111 -50 -217 -67 -114 -18 -604
-18 -718 0 -106 17 -210 49 -217 67 -5 11 90 391 139 558 9 33 18 42 61 61 84
38 135 95 160 178 4 15 26 17 216 15 l212 -2 13 -39z"/>
</g>
</svg>
