<?xml version="1.0" encoding="iso-8859-1"?>
<!-- Uploaded to: SVG Repo, www.svgrepo.com, Generator: SVG Repo Mixer Tools -->
<svg fill="#000000" height="800px" width="800px" version="1.1" id="Layer_1" xmlns="http://www.w3.org/2000/svg" xmlns:xlink="http://www.w3.org/1999/xlink" 
	 viewBox="0 0 512 512" xml:space="preserve">
<g>
	<g>
		<path d="M398.607,259.36h-4.261l-62.925-93.464v-38.912c0-4.702-3.812-8.514-8.514-8.514h-7.982
			c-14.908-8.583-50.411-33.416-50.411-54.328V8.514c0-4.702-3.812-8.514-8.514-8.514c-4.702,0-8.514,3.812-8.514,8.514v55.628
			c0,10.185-8.903,23.192-25.069,36.623c-10.51,8.732-21.193,15.262-25.37,17.704h-7.955c-4.702,0-8.514,3.812-8.514,8.514v38.912
			l-62.925,93.464h-4.261c-4.702,0-8.514,3.812-8.514,8.514s3.812,8.514,8.514,8.514h4.261l62.925,93.464v38.912
			c0,4.702,3.812,8.514,8.514,8.514h8.442v86.206c0,4.702,3.812,8.514,8.514,8.514s8.514-3.812,8.514-8.514V417.28h16.272v86.206
			c0,4.702,3.812,8.514,8.514,8.514c4.702,0,8.514-3.812,8.514-8.514V417.28h16.272v86.206c0,4.702,3.812,8.514,8.514,8.514
			s8.514-3.812,8.514-8.514V417.28h16.273v86.206c0,4.702,3.812,8.514,8.514,8.514c4.702,0,8.514-3.812,8.514-8.514V417.28h8.443
			c4.702,0,8.514-3.812,8.514-8.514v-38.912l62.925-93.464h4.261c4.702,0,8.514-3.812,8.514-8.514S403.31,259.36,398.607,259.36z
			 M264.514,100.406c4.08,4.506,8.866,9.052,14.4,13.634c1.867,1.547,3.732,3.024,5.565,4.429h-19.965V100.406z M233.085,114.041
			c5.533-4.582,10.319-9.129,14.4-13.634v18.063h-19.966C229.353,117.066,231.217,115.588,233.085,114.041z M197.606,135.498
			h116.787v24.482H197.606V135.498z M205.088,177.009h101.823v0.001l-50.912,75.619L205.088,177.009z M306.911,358.741H205.088
			l50.912-75.62L306.911,358.741z M189.092,183.741l50.912,75.619H138.182L189.092,183.741z M189.091,352.009l-50.912-75.619
			h101.823L189.091,352.009z M314.394,400.251h-0.001H197.606v-24.482h116.787V400.251z M322.907,352.01l-50.912-75.619h101.822
			L322.907,352.01z M271.996,259.36l50.911-75.619l50.912,75.619H271.996z"/>
	</g>
</g>
</svg>