<!DOCTYPE svg PUBLIC "-//W3C//DTD SVG 1.1//EN" "http://www.w3.org/Graphics/SVG/1.1/DTD/svg11.dtd">
<!-- Uploaded to: SVG Repo, www.svgrepo.com, Transformed by: SVG Repo Mixer Tools -->
<svg fill="#000000" width="800px" height="800px" viewBox="0 0 500 500" id="Layer_1" version="1.1" xml:space="preserve" xmlns="http://www.w3.org/2000/svg" xmlns:xlink="http://www.w3.org/1999/xlink" stroke="#000000" stroke-width="11.5">
<g id="SVGRepo_bgCarrier" stroke-width="0"/>
<g id="SVGRepo_tracerCarrier" stroke-linecap="round" stroke-linejoin="round"/>
<g id="SVGRepo_iconCarrier"> <g id="glasses"> <g> <g> <path d="M364.11,367.68c-6.54,0-19.11-0.65-33.22-4.78c-26.93-7.88-46.36-24.79-56.2-48.91l-0.06-0.15l-11.75-33.88 c-0.11-0.5-2.92-12.46-12.89-12.93c-9.97,0.48-12.78,12.43-12.89,12.94l-0.09,0.33l-11.71,33.68 c-9.84,24.12-29.27,41.04-56.2,48.91c-19.62,5.74-36.28,4.76-37.85,4.65c-24.45-0.36-43.29-7.79-56-22.08 c-20.22-22.75-17.61-54.52-17.37-57c0.74-22.39-15.82-32.95-16.52-33.39l-1.42-0.88l-0.01-1.67v-27.37l2.62-0.34 c63.17-8.12,132.57,0.39,135.26,0.73c23.15,1.88,37.78,9.02,38.39,9.32l0.17,0.09c11.87,6.86,33.3,6.16,33.51,6.15l0.11,0l0.11,0 c0.21,0.01,21.64,0.71,33.51-6.15l0.17-0.09c0.61-0.3,15.24-7.44,38.39-9.32c2.69-0.34,72.09-8.85,135.26-0.73l2.62,0.34v29.04 l-1.43,0.88c-0.7,0.44-17.26,11-16.52,33.39c0.24,2.48,2.85,34.25-17.37,57c-12.71,14.29-31.54,21.72-56,22.08 C368.3,367.58,366.67,367.68,364.11,367.68z M45.95,250.95c4.64,3.4,18.73,15.59,17.94,37.83l-0.01,0.2 c-0.03,0.31-2.95,31.37,15.91,52.54c11.55,12.97,28.93,19.71,51.65,20.04l0.18,0.01c0.17,0.01,16.83,1.17,35.99-4.47 c25.34-7.46,42.88-22.7,52.11-45.29l11.58-33.31c0.22-0.89,1.2-4.53,3.54-8.23c3.67-5.79,8.87-8.98,15.05-9.22l0.12,0l0.12,0 c6.17,0.24,11.38,3.43,15.05,9.22c2.34,3.7,3.33,7.34,3.54,8.23l11.58,33.31c9.24,22.59,26.77,37.83,52.11,45.29 c19.16,5.64,35.83,4.48,35.99,4.47l0.18-0.01c22.72-0.32,40.1-7.06,51.65-20.04c18.86-21.17,15.94-52.23,15.91-52.54l-0.01-0.2 c-0.79-22.24,13.3-34.43,17.94-37.83v-20.5c-62.64-7.58-130.5,0.97-131.18,1.06l-0.14,0.01c-21.23,1.71-35.08,8.15-36.2,8.68 c-13.05,7.48-34.57,6.96-36.53,6.9c-1.96,0.06-23.48,0.58-36.53-6.9c-1.11-0.53-15.04-6.98-36.2-8.69l-0.14-0.01 c-0.69-0.09-68.57-8.64-131.18-1.06V250.95z"/> </g> </g> <g> <g> <g> <path d="M460.95,231.32l-4.28-0.55c-7.09-0.91-14.64-1.66-22.46-2.21l-0.52-0.04l-0.48-0.21c-0.42-0.18-0.66-0.3-0.66-0.3 l-1.03-0.49l-0.45-1.05c-4.14-9.81-22.13-28.87-22.31-29.06c-5.92-5.93-9.81-14.29-9.98-14.64c-3.84-8.74-8.11-16.55-8.69-17.6 c-3.22-4.67-6.48-7.1-9.67-7.21c-4-0.16-7.06,3.41-7.43,3.85c-11.29,16.21-21.07,22.73-21.49,23 c-6.76,4.7-12.78,6.02-17.84,3.89c-7.7-3.24-9.72-13.31-9.92-14.41c-2.96-13.67,6.68-21.65,8-22.67 c20.71-18.33,47.14-19.27,48.26-19.3l0.05,0c0.19,0,0.38,0,0.57,0c23.57,0,44.76,16.44,61.32,47.6 c12.37,23.27,17.8,46.23,18.02,47.19L460.95,231.32z M435.93,222.67c5.87,0.44,11.6,0.98,17.09,1.61 c-4.99-17.78-27.07-85.96-72.38-85.96c-0.16,0-0.31,0-0.47,0c-0.84,0.03-25.7,1.16-44.51,17.87l-0.22,0.18 c-0.32,0.24-8.1,6.2-5.8,16.7l0.03,0.14c0.38,2.18,2.27,8.25,6.37,9.96c3.04,1.27,7.13,0.15,12.14-3.34 c0.15-0.1,9.4-6.32,19.98-21.54l0.09-0.12c0.2-0.26,5.06-6.4,12.34-6.22c5.26,0.15,10.17,3.49,14.57,9.93l0.14,0.23 c0.19,0.35,4.78,8.61,8.99,18.18c0.01,0.03,3.6,7.71,8.8,12.92C413.86,194.06,430.49,211.68,435.93,222.67z"/> </g> </g> <g> <path d="M39.05,231.32l0.98-4.21c0.22-0.97,5.65-23.92,18.02-47.19c16.56-31.15,37.75-47.6,61.32-47.6c0.19,0,0.38,0,0.57,0 c1.17,0.03,27.6,0.97,48.31,19.3c1.32,1.02,10.96,9,8,22.67c-0.2,1.1-2.22,11.16-9.92,14.41c-5.06,2.13-11.09,0.81-17.91-3.93 c-0.34-0.23-10.13-6.75-21.42-22.96c-0.33-0.39-3.31-3.85-7.2-3.85c-0.07,0-0.15,0-0.22,0c-3.2,0.11-6.45,2.53-9.67,7.21 c-0.58,1.05-4.85,8.86-8.67,17.55c-0.19,0.4-4.08,8.76-10.05,14.75c-0.13,0.14-18.12,19.2-22.26,29l-0.44,1.05l-1.04,0.49 c0,0-0.24,0.11-0.66,0.3l-0.48,0.21l-0.52,0.04c-7.81,0.56-15.37,1.3-22.46,2.21L39.05,231.32z M119.31,138.33 c-45.28,0-67.35,68.17-72.33,85.96c5.49-0.64,11.21-1.18,17.09-1.61c5.44-10.99,22.07-28.61,22.81-29.38 c5.26-5.27,8.85-12.95,8.88-13.03c4.18-9.52,8.77-17.78,8.96-18.13l0.14-0.23c4.41-6.44,9.31-9.78,14.57-9.93 c0.12,0,0.24,0,0.36,0c7.09,0,11.78,5.97,11.98,6.22l0.09,0.12c10.58,15.23,19.82,21.44,19.92,21.5 c5.08,3.53,9.16,4.65,12.2,3.38c4.1-1.71,5.99-7.78,6.37-9.97l0.03-0.14c2.3-10.5-5.48-16.46-5.82-16.71l-0.21-0.17 c-19.04-16.91-44.28-17.86-44.53-17.87C119.65,138.33,119.48,138.33,119.31,138.33z"/> </g> </g> </g> </g>
</svg>