<?xml version="1.0" standalone="no"?>
<!DOCTYPE svg PUBLIC "-//W3C//DTD SVG 20010904//EN"
 "http://www.w3.org/TR/2001/REC-SVG-20010904/DTD/svg10.dtd">
<svg version="1.0" xmlns="http://www.w3.org/2000/svg"
 width="96.000000pt" height="96.000000pt" viewBox="0 0 96.000000 96.000000"
 preserveAspectRatio="xMidYMid meet">

<g transform="translate(0.000000,96.000000) scale(0.100000,-0.100000)"
fill="#000000" stroke="none">
<path d="M285 938 c-11 -49 -145 -854 -145 -875 0 -19 11 -24 88 -42 72 -17
89 -18 97 -7 6 7 39 124 75 260 36 135 67 246 71 246 3 0 34 -111 70 -246 35
-136 69 -253 74 -260 8 -12 24 -10 98 7 83 20 87 22 87 47 -1 15 -34 220 -73
457 l-73 430 -182 3 -182 2 -5 -22z m349 -35 c11 -54 136 -812 136 -826 0 -19
-130 -50 -137 -32 -2 8 -37 136 -77 286 -40 150 -78 275 -84 277 -13 4 -17
-10 -92 -297 -34 -129 -66 -245 -70 -257 -9 -21 -9 -21 -74 -6 -43 10 -66 21
-66 30 0 8 32 200 70 426 39 227 70 415 70 419 0 4 72 7 159 7 l159 0 6 -27z"/>
<path d="M363 856 c-49 -24 -59 -52 -16 -41 31 8 83 42 83 56 0 13 -19 9 -67
-15z"/>
<path d="M510 871 c0 -14 51 -48 82 -56 47 -12 39 12 -13 39 -54 28 -69 31
-69 17z"/>
</g>
</svg>
