<?xml version="1.0" encoding="iso-8859-1"?>
<!-- Uploaded to: SVG Repo, www.svgrepo.com, Generator: SVG Repo Mixer Tools -->
<svg height="800px" width="800px" version="1.1" id="Capa_1" xmlns="http://www.w3.org/2000/svg" xmlns:xlink="http://www.w3.org/1999/xlink" 
	 viewBox="0 0 44.561 44.561" xml:space="preserve">
<g>
	<g>
		<path style="fill:#010002;" d="M44.17,23.376c-0.402-1.4-0.804-2.799-1.205-4.198c-1.103-3.835-2.205-7.671-3.307-11.506
			c-0.54-1.88-1.081-3.761-1.621-5.641c-0.123-0.428-0.516-0.734-0.964-0.734c-5.899,0-11.797,0-17.696,0c-3.79,0-7.58,0-11.37,0
			c-0.456,0-0.832,0.307-0.964,0.734c-1.844,5.94-3.687,11.881-5.531,17.821c-0.4,1.288-0.799,2.576-1.199,3.864
			C0.165,24.195,0,24.628,0,25.132c0,3.248,0,6.496,0,9.744c0,2.463,0,4.924,0,7.387c0,0.545,0.455,1,1,1c4.819,0,9.637,0,14.456,0
			c7.651,0,15.302,0,22.953,0c1.718,0,3.435,0,5.152,0c0.272,0,0.474-0.102,0.631-0.242c0.025-0.019,0.05-0.034,0.073-0.055
			c0.019-0.021,0.032-0.043,0.049-0.065c0.143-0.157,0.246-0.362,0.246-0.638c0.001-5.764,0.001-11.528,0.001-17.293
			C44.561,24.438,44.315,23.878,44.17,23.376z M42.561,25.281C42.561,25.281,42.561,25.282,42.561,25.281c0,3.362,0,6.725,0,10.087
			v0.001c0,1.966,0,3.93,0,5.893c0,0.001,0,0.002,0,0.003c-4.485-0.002-8.969-0.002-13.456-0.002c-7.651,0-15.302,0-22.953,0
			c-1.384,0-2.768,0-4.152,0v-0.001c0-5.413,0-10.825,0-16.238c0.012-0.038,0.023-0.076,0.036-0.115
			c0.114-0.367,0.228-0.735,0.342-1.103c0.438-1.413,0.877-2.824,1.315-4.237c1.183-3.811,2.365-7.622,3.548-11.432
			c0.501-1.613,1.001-3.226,1.502-4.839c5.654,0,11.307,0,16.96,0c3.539,0,7.078,0,10.617,0c1.649,5.742,3.3,11.484,4.95,17.227
			c0.365,1.27,0.73,2.541,1.095,3.811c0.065,0.229,0.132,0.456,0.196,0.684C42.561,25.108,42.561,25.194,42.561,25.281z"/>
		<path style="fill:#010002;" d="M35.072,7.286c-0.13-0.432-0.26-0.863-0.39-1.295c-0.049-0.16-0.144-0.297-0.27-0.395
			c-0.126-0.098-0.283-0.156-0.453-0.156c-6.222,0-12.443,0-18.664,0c-1.478,0-2.956,0-4.435,0c-0.251,0-0.434,0.104-0.555,0.254
			c-0.072,0.078-0.131,0.174-0.168,0.297C8.364,11.874,6.591,17.758,4.818,23.64c-0.13,0.433-0.26,0.863-0.39,1.295
			c-0.074,0.245-0.011,0.476,0.13,0.649c0.14,0.172,0.357,0.287,0.593,0.3c2.856,0.164,5.713,0.327,8.568,0.49v0.001
			c0.969,2.421,1.937,4.841,2.906,7.263c0.032,0.079,0.07,0.153,0.116,0.22c0.136,0.199,0.336,0.332,0.607,0.332
			c3.114,0,6.229,0,9.343,0c0.357,0,0.604-0.234,0.723-0.552c0.969-2.584,1.938-5.168,2.908-7.754c3.114,0,6.23,0,9.346,0
			c0.479,0,0.864-0.479,0.723-0.949C38.618,19.053,36.844,13.169,35.072,7.286z M29.805,24.387c-0.178,0-0.329,0.058-0.45,0.156
			c-0.121,0.098-0.213,0.236-0.272,0.394c-0.969,2.584-1.938,5.167-2.907,7.753v0.001c-2.774,0-5.549,0-8.324,0
			c-0.965-2.411-1.929-4.822-2.894-7.235c-0.132-0.329-0.358-0.53-0.723-0.551c-2.698-0.154-5.395-0.309-8.091-0.462
			c1.683-5.586,3.367-11.172,5.05-16.758c0.075-0.248,0.149-0.496,0.224-0.744c0,0,0,0,0.001,0c6.035,0,12.071,0,18.105,0
			c1.293,0,2.585,0,3.878,0c1.718,5.7,3.436,11.399,5.153,17.099c0.034,0.116,0.069,0.23,0.104,0.346v0.001
			C35.708,24.387,32.756,24.387,29.805,24.387z"/>
		<path style="fill:#010002;" d="M11.405,15.255C11.405,15.255,11.406,15.255,11.405,15.255c6.251,0,12.5,0,18.75,0h0.001
			c1.195,0,2.388,0,3.583,0c0.063,0,0.11-0.021,0.159-0.039c0.023-0.008,0.052-0.007,0.072-0.018
			c0.064-0.035,0.115-0.084,0.154-0.142c0.128-0.14,0.178-0.343,0.046-0.554c-0.812-1.297-1.623-2.595-2.436-3.892
			c-0.191-0.307-0.371-0.508-0.753-0.508c-0.409,0-0.817,0-1.225,0h-0.001c-3.691,0-7.381,0-11.072,0h-0.001
			c-1.915,0-3.828,0-5.743,0h-0.001c-0.237,0-0.404,0.156-0.482,0.367c-0.512,1.384-1.024,2.768-1.535,4.152
			C10.809,14.932,11.101,15.255,11.405,15.255z M13.286,11.103L13.286,11.103c5.823,0,11.644,0,17.466,0h0.001
			c0.037,0,0.072,0,0.109,0c0.657,1.051,1.314,2.102,1.972,3.152c-5.949,0-11.896,0-17.845,0h-0.001c-0.956,0-1.911,0-2.867,0H12.12
			C12.509,13.204,12.898,12.154,13.286,11.103z"/>
		<path style="fill:#010002;" d="M34.22,17.824c-0.036-0.106-0.099-0.198-0.181-0.263s-0.184-0.104-0.3-0.104
			c-6.25,0-12.5,0-18.75,0c-1.195,0-2.389,0-3.584,0c-0.228,0-0.416,0.154-0.482,0.367c-0.444,1.442-0.889,2.884-1.333,4.325
			c-0.048,0.156-0.007,0.314,0.086,0.433s0.237,0.2,0.396,0.2c6.164,0,12.329,0,18.493,0c2.224,0,4.448,0,6.673,0
			c0.125-0.001,0.219-0.046,0.296-0.107c0.022-0.014,0.041-0.03,0.062-0.046c0.002-0.002,0.004-0.004,0.006-0.006
			c0.122-0.106,0.19-0.268,0.118-0.474C35.22,20.707,34.72,19.265,34.22,17.824z M11.773,18.456L11.773,18.456
			c6.128,0,12.254,0,18.381,0h0.001c1.076,0,2.152,0,3.228,0c0.385,1.108,0.77,2.217,1.153,3.325c-5.93,0-11.861,0-17.791,0h-0.001
			c-1.998,0-3.996,0-5.995,0h-0.001C11.09,20.673,11.432,19.564,11.773,18.456z"/>
	</g>
</g>
</svg>