<?xml version="1.0" encoding="iso-8859-1"?>
<!-- Uploaded to: SVG Repo, www.svgrepo.com, Generator: SVG Repo Mixer Tools -->
<svg fill="#000000" height="800px" width="800px" version="1.1" id="Layer_1" xmlns="http://www.w3.org/2000/svg" xmlns:xlink="http://www.w3.org/1999/xlink" 
	 viewBox="0 0 512 512" xml:space="preserve">
<g>
	<g>
		<path d="M470.561,97.452c-0.871-36.602-24.968-68.43-59.963-79.196L362.251,3.38C354.963,1.136,347.402,0,339.776,0H172.224
			c-7.625,0-15.187,1.136-22.476,3.38l-48.348,14.876C66.407,29.023,42.31,60.85,41.439,97.452l-7.094,297.941
			c-0.148,6.195,3.108,11.822,8.411,14.808v28.639c0,6.316,3.509,11.994,9.158,14.819l59.251,29.624v12.148
			c0,9.136,7.432,16.568,16.568,16.568h256.534c9.136,0,16.568-7.432,16.568-16.568v-12.148l59.251-29.625
			c5.649-2.825,9.158-8.503,9.158-14.819v-28.639c5.303-2.985,8.559-8.612,8.411-14.806L470.561,97.452z M307.219,16.033
			C303.354,40.825,281.86,59.858,256,59.858s-47.354-19.033-51.219-43.825H307.219z M172.223,16.033h16.391
			c3.981,33.659,32.673,59.858,67.385,59.858s63.405-26.199,67.385-59.858h16.39c0.633,0,1.265,0.016,1.896,0.035
			C337.617,60.153,300.817,94.063,256,94.063c-22.417,0-43.641-8.574-59.762-24.139c-14.923-14.409-24.004-33.385-25.9-53.855
			C170.966,16.049,171.595,16.033,172.223,16.033z M94.918,457.235l-35.833-17.917c-0.183-0.091-0.296-0.275-0.296-0.478v-21.648
			l36.222,15.524l-0.495,19.317C94.471,453.799,94.61,455.54,94.918,457.235z M384.802,495.432c0,0.294-0.239,0.534-0.534,0.534
			H127.733c-0.295,0-0.534-0.241-0.534-0.534v-17.637h257.603V495.432z M398.881,459.019c-1.724,1.769-4.035,2.744-6.506,2.744
			H119.626v-0.001c-2.471,0-4.782-0.975-6.506-2.744c-1.725-1.769-2.64-4.105-2.576-6.574l0.893-34.832l19.581,8.249
			c1.99,0.838,4.234,0.838,6.224,0l37.489-15.792l37.49,15.792c1.99,0.838,4.234,0.838,6.225,0l37.479-15.791l37.484,15.791
			c1.99,0.839,4.234,0.839,6.222,0.001l37.522-15.794l37.55,15.794c0.994,0.419,2.05,0.627,3.108,0.627
			c1.057,0,2.114-0.208,3.108-0.627l19.643-8.261l0.894,34.845C401.521,454.916,400.606,457.25,398.881,459.019z M131.019,289.043
			c1.99,0.838,4.234,0.838,6.224,0l37.489-15.792l37.49,15.792c0.995,0.419,2.053,0.629,3.113,0.629s2.117-0.21,3.113-0.629
			l37.479-15.791l37.484,15.791c1.99,0.839,4.234,0.839,6.222,0.001l37.522-15.794l37.55,15.794c1.987,0.836,4.229,0.836,6.216,0
			l16.172-6.802l2.161,84.31l-21.442,9.019l-37.551-15.794c-1.988-0.837-4.231-0.837-6.218,0l-37.52,15.793l-37.485-15.792
			c-1.989-0.839-4.234-0.839-6.225,0l-37.479,15.791l-37.489-15.791c-1.99-0.838-4.234-0.838-6.224,0l-37.489,15.792l-21.384-9.008
			l2.161-84.306L131.019,289.043z M115.349,265.044l0.427-16.628l15.242,6.421c1.99,0.838,4.234,0.838,6.224,0l37.489-15.792
			l37.49,15.792c1.989,0.838,4.234,0.838,6.224,0l37.479-15.791l37.484,15.791c1.989,0.839,4.234,0.839,6.222,0.001l37.522-15.794
			l37.55,15.794c0.994,0.419,2.05,0.627,3.108,0.627c1.058,0,2.114-0.208,3.108-0.627l15.304-6.437l0.428,16.631l-18.839,7.924
			l-37.551-15.794c-1.988-0.837-4.231-0.837-6.218,0l-37.52,15.793l-37.485-15.792c-1.989-0.839-4.234-0.839-6.225,0l-37.479,15.791
			l-37.49-15.791c-1.989-0.838-4.233-0.838-6.224,0l-37.489,15.792L115.349,265.044z M131.019,391.655
			c1.99,0.838,4.234,0.838,6.224,0l37.489-15.792l37.49,15.792c1.99,0.838,4.234,0.838,6.225,0l37.479-15.791l37.484,15.791
			c1.989,0.839,4.234,0.839,6.222,0.001l37.522-15.794l37.55,15.794c0.994,0.419,2.051,0.627,3.108,0.627s2.114-0.208,3.108-0.627
			l18.775-7.897l0.427,16.632l-22.31,9.384l-37.551-15.794c-1.988-0.837-4.231-0.837-6.218,0l-37.52,15.793l-37.485-15.792
			c-1.989-0.839-4.234-0.839-6.225,0l-37.479,15.791l-37.49-15.791c-1.989-0.838-4.233-0.838-6.224,0l-37.489,15.792l-22.252-9.373
			l0.425-16.629L131.019,391.655z M453.211,438.841c0,0.203-0.113,0.387-0.295,0.478l-35.834,17.917
			c0.309-1.695,0.448-3.435,0.402-5.202l-0.495-19.317l36.222-15.524V438.841z M461.302,396.279l-44.756,19.181l-7.164-279.383
			c-0.113-4.426-3.804-7.915-8.22-7.808c-4.426,0.113-7.922,3.794-7.808,8.22l2.429,94.703l-17.971,7.559l-37.551-15.794
			c-1.988-0.837-4.231-0.837-6.218,0l-37.52,15.793l-37.485-15.792c-1.989-0.839-4.234-0.839-6.225,0l-37.479,15.791l-37.49-15.791
			c-1.989-0.838-4.233-0.838-6.224,0L134.13,238.75l-17.914-7.546l2.429-94.715c0.113-4.426-3.383-8.107-7.808-8.22
			c-4.433-0.114-8.106,3.383-8.22,7.808l-7.164,279.383l-44.755-19.18c-0.202-0.087-0.329-0.285-0.324-0.505l7.093-297.942
			c0.707-29.696,20.258-55.517,48.648-64.253l48.347-14.877c0.012-0.003,0.025-0.006,0.036-0.011
			c2.476,23.857,13.175,45.939,30.601,62.764c19.126,18.468,44.305,28.639,70.899,28.639c26.53,0,51.664-10.129,70.775-28.519
			c17.491-16.833,28.244-38.968,30.727-62.883c0.012,0.003,0.022,0.006,0.034,0.01l48.347,14.877
			c28.391,8.736,47.942,34.557,48.649,64.253l7.094,297.942C461.632,395.995,461.504,396.194,461.302,396.279z"/>
	</g>
</g>
</svg>