<svg class="icon" style="width: 1em; height: 1em;vertical-align: middle;fill: currentColor;overflow: hidden;" viewBox="0 0 1024 1024" version="1.1" xmlns="http://www.w3.org/2000/svg"><path d="M877.714286 975.238095c0 43.885714-60.952381 48.761905-73.142857 48.761905-12.190476 0-558.32381 0-585.142857 0s-73.142857-29.257143-73.142857-48.761905c0-175.542857 219.428571-543.695238 219.428571-609.52381S268.190476 138.971429 268.190476 121.904762s0-56.07619 0-73.142857c0-17.066667 56.07619-48.761905 97.52381-48.761905 4.87619 0 12.190476 2.438095 17.066667 4.87619C385.219048 2.438095 387.657143 0 390.095238 0c14.628571 0 258.438095 0 268.190476 0 26.819048 0 97.52381 24.380952 97.52381 48.761905s0 60.952381 0 73.142857c0 12.190476-97.52381 192.609524-97.52381 243.809524S877.714286 789.942857 877.714286 975.238095zM195.047619 950.857143c0 29.257143 31.695238 24.380952 48.761905 24.380952 4.87619 0 43.885714 0 97.52381 0l0-85.333333C341.333333 882.590476 346.209524 877.714286 353.52381 877.714286l24.380952 0c7.314286 0 12.190476 4.87619 12.190476 12.190476L390.095238 975.238095c31.695238 0 63.390476 0 97.52381 0l0-109.714286c0-7.314286 4.87619-12.190476 12.190476-12.190476l24.380952 0c7.314286 0 12.190476 4.87619 12.190476 12.190476L536.380952 975.238095c34.133333 0 65.828571 0 97.52381 0l0-60.952381c0-7.314286 4.87619-12.190476 12.190476-12.190476 7.314286 0 36.571429 4.87619 36.571429 12.190476L682.666667 975.238095c53.638095 0 92.647619 0 97.52381 0 17.066667 0 48.761905 7.314286 48.761905-24.380952 0-114.590476-131.657143-380.342857-192.609524-512L387.657143 438.857143C331.580952 570.514286 195.047619 836.266667 195.047619 950.857143zM453.485714 48.761905c19.504762 12.190476 41.447619 24.380952 58.514286 24.380952 24.380952 0 48.761905-12.190476 68.266667-24.380952C541.257143 48.761905 492.495238 48.761905 453.485714 48.761905zM707.047619 121.904762c0-17.066667 0-19.504762 0-48.761905 0-24.380952-31.695238-31.695238-43.885714-26.819048C660.72381 46.32381 660.72381 48.761905 658.285714 48.761905c-12.190476 17.066667-95.085714 73.142857-146.285714 73.142857-63.390476 0-136.533333-68.266667-146.285714-73.142857C355.961905 43.885714 316.952381 60.952381 316.952381 73.142857s0 29.257143 0 48.761905 97.52381 195.047619 97.52381 243.809524c0 4.87619-2.438095 14.628571-7.314286 24.380952l209.67619 0c-4.87619-12.190476-7.314286-19.504762-7.314286-24.380952C609.52381 326.704762 707.047619 138.971429 707.047619 121.904762z" /></svg>