<?xml version="1.0" encoding="iso-8859-1"?>
<!-- Uploaded to: SVG Repo, www.svgrepo.com, Generator: SVG Repo Mixer Tools -->
<svg fill="#000000" height="800px" width="800px" version="1.1" id="Capa_1" xmlns="http://www.w3.org/2000/svg" xmlns:xlink="http://www.w3.org/1999/xlink" 
	 viewBox="0 0 458.42 458.42" xml:space="preserve">
<g>
	<path d="M450.92,274.534h-52.5V209.5c0-3.637-2.609-6.75-6.189-7.385l-112.731-20c-3.691-0.652-7.292,1.511-8.445,5.073
		l-27.4,84.558l-105.718-19.113v-63.746h32.868c4.142,0,7.5-3.358,7.5-7.5v-35c0-4.142-3.358-7.5-7.5-7.5H55v-2.5
		c0-4.142-3.358-7.5-7.5-7.5s-7.5,3.358-7.5,7.5v2.5H7.5c-4.142,0-7.5,3.358-7.5,7.5v35c0,4.142,3.358,7.5,7.5,7.5H40v2.5
		c0,4.142,3.358,7.5,7.5,7.5s7.5-3.358,7.5-7.5v-2.5h9.152v60.771H7.5c-4.142,0-7.5,3.358-7.5,7.5v64.876c0,4.142,3.358,7.5,7.5,7.5
		h113.304c4.142,0,7.5-3.358,7.5-7.5v-15.245l113.792,20.405c7.496,1.356,18.47,2.34,26.094,2.34H450.92c4.143,0,7.5-3.358,7.5-7.5
		v-40C458.42,277.892,455.063,274.534,450.92,274.534z M15,173.887v-20h25v20H15z M55,153.887h108.304v20H55V153.887z
		 M79.152,188.887h43.784v61.453c-4.217-0.418-8.591-0.682-11.919-0.682H79.152V188.887z M443.42,314.533H268.189
		c-6.733,0-16.804-0.903-23.435-2.103l-121.182-21.73c-0.857-0.341-1.791-0.528-2.769-0.528c-4.15,0.007-7.5,3.363-7.5,7.5v16.86H15
		v-49.876h96.017c4.94,0,13.222,0.743,18.085,1.622l118.333,21.394c5.771,1.043,14.888,1.861,20.755,1.861h62.731
		c4.143,0,7.5-3.358,7.5-7.5s-3.357-7.5-7.5-7.5h-62.731c-2.578,0-6.065-0.203-9.501-0.521l24.622-75.987l100.11,17.761v58.748
		h-22.5c-4.143,0-7.5,3.358-7.5,7.5s3.357,7.5,7.5,7.5h82.5V314.533z"/>
</g>
</svg>