<?xml version="1.0" encoding="iso-8859-1"?>
<!-- Uploaded to: SVG Repo, www.svgrepo.com, Generator: SVG Repo Mixer Tools -->
<!DOCTYPE svg PUBLIC "-//W3C//DTD SVG 1.1//EN" "http://www.w3.org/Graphics/SVG/1.1/DTD/svg11.dtd">
<svg fill="#000000" height="800px" width="800px" version="1.1" id="Capa_1" xmlns="http://www.w3.org/2000/svg" xmlns:xlink="http://www.w3.org/1999/xlink" 
	 viewBox="0 0 461.668 461.668" xml:space="preserve">
<g>
	<path d="M83.737,285.991c-11.696-11.696-11.696-30.729,0-42.426l86.278-86.277c3.905-3.905,3.905-10.237,0-14.143
		c-3.905-3.905-10.235-3.905-14.143,0l-86.278,86.277c-19.493,19.495-19.493,51.216,0,70.711l21.929,21.929
		c1.953,1.952,4.512,2.929,7.071,2.929c2.56,0,5.118-0.977,7.071-2.929c3.905-3.905,3.905-10.237,0-14.143L83.737,285.991z"/>
	<path d="M300.134,69.594c-19.496-19.494-51.215-19.494-70.711,0l-52.337,52.337c-3.905,3.905-3.905,10.237,0,14.143
		c3.906,3.904,10.236,3.904,14.143,0l52.337-52.337c11.696-11.695,30.73-11.696,42.426,0l91.94,91.94
		c11.696,11.696,11.696,30.729,0,42.426L218.102,377.93c-11.695,11.696-30.729,11.697-42.426,0l-48.798-48.798
		c-3.906-3.904-10.236-3.904-14.143,0c-3.905,3.905-3.905,10.237,0,14.143l48.798,48.798c9.748,9.747,22.552,14.62,35.355,14.62
		c12.804,0,25.607-4.873,35.355-14.62l159.828-159.828c19.493-19.495,19.493-51.216,0-70.711L300.134,69.594z"/>
	<path d="M430.964,122.642l-91.939-91.938c-40.94-40.938-107.553-40.939-148.493,0L30.704,190.532
		c-40.938,40.939-40.938,107.553,0,148.493l91.939,91.938c20.471,20.47,47.358,30.704,74.247,30.704
		c26.888,0,53.776-10.234,74.246-30.704l159.828-159.828C471.902,230.196,471.902,163.583,430.964,122.642z M416.821,256.993
		L256.993,416.821c-33.141,33.141-87.067,33.141-120.208,0l-91.938-91.939c-33.142-33.142-33.142-87.067,0-120.208L204.675,44.846
		c16.57-16.57,38.337-24.856,60.104-24.856s43.534,8.286,60.104,24.856l91.939,91.939
		C449.963,169.927,449.963,223.852,416.821,256.993z"/>
</g>
</svg>