<!DOCTYPE svg PUBLIC "-//W3C//DTD SVG 1.1//EN" "http://www.w3.org/Graphics/SVG/1.1/DTD/svg11.dtd">
<!-- Uploaded to: SVG Repo, www.svgrepo.com, Transformed by: SVG Repo Mixer Tools -->
<svg fill="#000000" height="800px" width="800px" version="1.1" id="Layer_1" xmlns="http://www.w3.org/2000/svg" xmlns:xlink="http://www.w3.org/1999/xlink" viewBox="0 0 237.2 237.2" xml:space="preserve" stroke="#000000" stroke-width="1.4232">
<g id="SVGRepo_bgCarrier" stroke-width="0"/>
<g id="SVGRepo_tracerCarrier" stroke-linecap="round" stroke-linejoin="round"/>
<g id="SVGRepo_iconCarrier"> <g> <g> <g> <path d="M219.116,164.856c-0.008-0.012,0-0.028-0.012-0.04c-0.312-0.36-7.792-8.864-18.88-10.76 c-4.968-0.852-9.748-0.22-13.556,0.756c1.432-1.156,2.816-2.548,3.892-4.26c3.768-6.02,2.204-13.18,2.136-13.484 c-0.052-0.232-0.2-0.432-0.408-0.548c-0.212-0.124-0.452-0.148-0.676-0.076c-0.32,0.1-7.828,2.504-11.576,8.492 c-0.988,1.58-1.596,3.232-1.972,4.824c0.232-6.896-0.208-13.8-1.548-20.648c0.024-0.008,0.044-0.004,0.068-0.012 c1.612-0.62,2.7-1.636,3.232-3.016c0.588-1.528,0.448-3.448-0.424-5.704c-1.78-4.616-8.532-8.54-8.82-8.704 c-0.224-0.132-0.492-0.152-0.732-0.056c-0.24,0.092-0.424,0.288-0.5,0.532c-0.1,0.316-2.472,7.756-0.692,12.372 c0.868,2.252,2.052,3.772,3.516,4.508c0.68,0.344,1.412,0.516,2.176,0.516c0.168,0,0.352-0.088,0.52-0.104 c2.836,14.464,1.616,29.188-1.62,43.504c-1.532,1.348-4.456,4.296-6.224,8.476c-1.004,2.372-1.44,4.712-1.632,6.688 c-0.284-0.064-0.568-0.116-0.856-0.164c0.596-1.896,1.108-4.22,1.108-6.804c0-6.212-2.908-11.18-3.032-11.388 c-0.304-0.516-1.156-0.516-1.46,0c-0.124,0.208-3.032,5.176-3.032,11.388c0,2.584,0.512,4.908,1.108,6.804 c-0.18,0.032-0.368,0.032-0.544,0.068c-0.148-1.976-0.532-4.308-1.484-6.696c-2.172-5.452-6.3-8.876-6.916-9.364L160.36,64.68 h0.132l0.008-1.488l0.232-2.48h-0.22l0.008-1.036c0.012-2.236-0.844-4.34-2.416-5.932c-1.572-1.592-3.668-2.476-5.904-2.488 l-56.7-0.348c-1.704-0.016-3.3,0.484-4.676,1.328c-3.22-4.54-6.968-8.476-11.3-11.416c0.624-0.632,1.016-1.36,1.016-2.228V6.264 c-0.02,0.016-0.04,0.032-0.06,0.052C79.868,1.352,68.796,0,62.156,0c-6.276,0-16.52,1.208-18.14,5.532 C44,5.496,43.976,5.464,43.96,5.428l-0.184,0.184v32.98c0,0.804,0.336,1.484,0.876,2.088 c-19.768,13.088-26.764,46.776-26.764,60.188V218.96c0,8.488,22.948,12.356,44.268,12.356c13.204,0,26.924-1.516,35.536-4.66 c0.364,0.572,0.78,1.112,1.264,1.608c1.8,1.824,4.196,2.832,6.744,2.848l33.484,0.204h0.06c2.524,0,4.908-0.98,6.716-2.768 c1.824-1.8,2.832-4.192,2.848-6.74v-0.168c0.024-0.024,0.048-0.04,0.072-0.064c1.824-1.824,3.104-3.824,4.024-5.584 c0.176,0.124,0.352,0.244,0.536,0.36c-1.284,1.512-2.656,3.456-3.66,5.828c-2.416,5.724-1.672,11.432-1.64,11.672 c0.04,0.296,0.236,0.552,0.512,0.668c0.104,0.044,0.22,0.068,0.332,0.068c0.176,0,0.356-0.056,0.504-0.164 c0.196-0.144,4.808-3.588,7.228-9.308c1-2.372,1.444-4.712,1.632-6.688c0.28,0.064,0.564,0.116,0.852,0.164 c-0.596,1.896-1.104,4.224-1.104,6.804c0,6.212,2.908,11.18,3.032,11.388c0.152,0.256,0.428,0.416,0.732,0.416 c0.304,0,0.58-0.16,0.732-0.416c0.124-0.208,3.032-5.176,3.032-11.388c0-2.58-0.508-4.904-1.104-6.8 c0.18-0.032,0.364-0.032,0.54-0.068c0.148,1.976,0.536,4.308,1.484,6.692c2.296,5.768,6.836,9.308,7.032,9.456 c0.152,0.116,0.332,0.176,0.516,0.176c0.104,0,0.212-0.02,0.316-0.06c0.28-0.112,0.48-0.36,0.524-0.66 c0.036-0.24,0.904-5.928-1.392-11.7c-0.956-2.404-2.296-4.38-3.556-5.92c0.28-0.172,0.564-0.332,0.832-0.52 c0.92,1.76,2.2,3.76,4.024,5.584c4.392,4.396,9.96,5.848,10.196,5.908c0.068,0.016,0.14,0.024,0.208,0.024 c0.224,0,0.44-0.084,0.6-0.248c0.212-0.212,0.296-0.52,0.224-0.812c-0.06-0.236-1.512-5.808-5.908-10.2 c-1.824-1.824-3.824-3.104-5.584-4.024c0.124-0.176,0.244-0.356,0.36-0.54c1.512,1.288,3.456,2.66,5.828,3.66 c3.496,1.476,6.98,1.772,9.22,1.772c1.432,0,2.356-0.12,2.448-0.136c0.296-0.04,0.552-0.236,0.668-0.508 c0.116-0.276,0.08-0.592-0.096-0.836c-0.144-0.196-3.584-4.812-9.308-7.228c-2.376-1.004-4.712-1.44-6.688-1.632 c0.064-0.284,0.116-0.568,0.164-0.856c1.896,0.596,4.22,1.104,6.8,1.104c6.212,0,11.18-2.908,11.388-3.032 c0.256-0.152,0.416-0.428,0.416-0.732c0-0.304-0.16-0.58-0.416-0.732c-0.208-0.124-5.176-3.032-11.388-3.032 c-2.584,0-4.904,0.512-6.8,1.108c-0.032-0.18-0.032-0.372-0.068-0.548c1.976-0.148,4.304-0.528,6.696-1.48 c5.772-2.3,9.312-6.84,9.46-7.032c0.184-0.236,0.228-0.552,0.116-0.832c-0.112-0.28-0.36-0.48-0.66-0.524 c-0.24-0.044-5.932-0.904-11.704,1.392c-2.4,0.956-4.38,2.292-5.924,3.548c-0.172-0.28-0.332-0.56-0.52-0.828 c1.76-0.916,3.764-2.196,5.588-4.024c4.392-4.392,5.844-9.964,5.908-10.2c0.076-0.292-0.012-0.596-0.224-0.812 c-0.212-0.216-0.524-0.292-0.812-0.224c-0.236,0.06-5.804,1.516-10.196,5.908c-1.828,1.824-3.1,3.828-4.02,5.592 c-0.18-0.128-0.364-0.248-0.548-0.372c1.288-1.516,2.664-3.448,3.668-5.828c2.416-5.72,1.672-11.428,1.64-11.668 c-0.036-0.26-0.204-0.472-0.424-0.604c1.116-5.136,1.976-10.316,2.476-15.52c0.104,1.052,0.248,1.768,0.264,1.852 c0.036,0.168,0.168,0.28,0.292,0.396c0.032,0.12,0.012,0.256,0.096,0.352c0.28,0.324,6.408,7.216,15.72,9.972 c0.008,0,0.016,0.012,0.024,0.012c0.004,0,0.008-0.004,0.012-0.004c1.012,0.3,2.036,0.592,3.12,0.776 c1.632,0.28,3.244,0.4,4.812,0.4c9.064,0,16.524-4.008,16.892-4.208c0.024-0.012,0.02-0.048,0.044-0.06 c0.184-0.12,0.324-0.288,0.372-0.516c0.012,0.012,0.02,0.012,0.024,0l0.004-0.004C219.344,165.268,219.26,165.04,219.116,164.856 z M177.356,202.34c1.816-0.6,4.104-1.136,6.628-1.136c3.832,0,7.216,1.236,9.06,2.064c-1.84,0.828-5.228,2.064-9.06,2.064 c-2.52,0-4.808-0.54-6.628-1.14c0.02-0.312,0.092-0.608,0.092-0.924C177.448,202.948,177.372,202.652,177.356,202.34z M161.864,172.084c0.828,1.836,2.064,5.22,2.064,9.06c0,2.524-0.54,4.808-1.144,6.628c-0.312-0.02-0.608-0.092-0.924-0.092 c-0.316,0-0.612,0.076-0.924,0.092c-0.604-1.82-1.14-4.104-1.14-6.628C159.796,177.312,161.032,173.924,161.864,172.084z M150.328,174.3c1.452,1.404,3.852,4.096,5.268,7.652c0.932,2.34,1.28,4.668,1.396,6.584c-0.592,0.196-1.176,0.4-1.732,0.664 c-1.228-1.468-2.568-3.392-3.5-5.72C150.344,179.924,150.24,176.316,150.328,174.3z M153.732,190.028 c-0.28,0.172-0.564,0.332-0.832,0.52c-0.892-1.712-2.14-3.648-3.884-5.428l0.34-3.6c0.22,0.852,0.476,1.716,0.82,2.588 C151.136,186.512,152.472,188.488,153.732,190.028z M151.556,191.664c-0.464,0.412-0.896,0.844-1.308,1.308 c-1.708-0.86-3.704-2.096-5.492-3.884c-2.708-2.708-4.232-5.98-4.944-7.868c1.884,0.712,5.148,2.232,7.864,4.948 C149.46,187.952,150.696,189.948,151.556,191.664z M145.32,182.108c-3.372-2.192-6.464-3.008-6.64-3.052 c-0.284-0.072-0.596,0.008-0.812,0.224c-0.212,0.212-0.296,0.52-0.224,0.812c0.06,0.236,1.512,5.808,5.908,10.2 c1.832,1.832,3.832,3.104,5.592,4.016c-0.128,0.18-0.248,0.36-0.368,0.544c-1.512-1.288-3.456-2.66-5.832-3.66 c-5.728-2.424-11.432-1.676-11.668-1.64c-0.296,0.04-0.552,0.236-0.668,0.512c-0.116,0.276-0.08,0.592,0.096,0.832 c0.144,0.196,3.588,4.812,9.308,7.228c2.376,1.004,4.712,1.44,6.688,1.632c-0.064,0.284-0.116,0.568-0.168,0.86 c-1.896-0.596-4.22-1.108-6.8-1.108c-6.212,0-11.18,2.908-11.388,3.032c-0.212,0.128-0.336,0.348-0.38,0.588l-26.072-0.16 L90.552,64.252l32.912,0.204l32.912,0.204L145.32,182.108z M146.364,204.2c-1.816,0.6-4.104,1.136-6.628,1.136 c-3.832,0-7.216-1.236-9.06-2.064c1.84-0.828,5.228-2.064,9.06-2.064c2.516,0,4.808,0.536,6.628,1.14 c-0.02,0.312-0.092,0.608-0.092,0.924C146.268,203.588,146.344,203.884,146.364,204.2z M139.464,207.02 c0.092,0,0.176,0.016,0.268,0.016c2.58,0,4.904-0.512,6.8-1.108c0.032,0.176,0.032,0.364,0.068,0.54 c-1.976,0.148-4.308,0.536-6.692,1.484c-2.216,0.884-4.092,2.092-5.584,3.264l-29.052-0.176l0.024-4.08l34.172,0.208 C139.468,207.12,139.468,207.068,139.464,207.02z M140.544,209.532c2.344-0.932,4.672-1.276,6.584-1.392 c0.196,0.592,0.4,1.172,0.664,1.728c-1.468,1.232-3.388,2.572-5.724,3.5c-3.532,1.408-7.108,1.524-9.136,1.432 c-0.004-0.008-0.008-0.02-0.012-0.028C134.332,213.32,137.008,210.94,140.544,209.532z M147.22,198.092 c-1.908-0.156-4.22-0.556-6.54-1.536c-3.528-1.492-6.168-3.952-7.544-5.428c2.04-0.04,5.612,0.132,9.148,1.628 c2.32,0.98,4.22,2.368,5.66,3.628C147.668,196.936,147.432,197.504,147.22,198.092z M152.828,55.356 c2.1,0.34,3.736,2.1,3.724,4.296l-0.004,1.036l-5.568-0.036L152.828,55.356z M151.668,55.224l-1.896,5.424l-6.048-0.036 l2.3-5.424L151.668,55.224z M144.8,55.18l-2.3,5.424l-5.42-0.032l1.884-5.428L144.8,55.18z M137.772,55.14l-1.888,5.424 l-5.444-0.032l1.896-5.424L137.772,55.14z M131.132,55.096l-1.892,5.424l-5.748-0.036h-0.304l2.3-5.424L131.132,55.096z M124.264,55.052l-2.304,5.424l-6.116-0.036l2.412-5.424L124.264,55.052z M117.02,55.012l-2.412,5.42l-4.708-0.028l1.896-5.424 L117.02,55.012z M110.596,54.972l-1.896,5.424l-6.052-0.036l2.304-5.424L110.596,54.972z M103.728,54.924l-2.304,5.424 l-5.984-0.036l2.312-5.424L103.728,54.924z M90.436,59.856c0.008-1.336,0.536-2.592,1.492-3.532 c0.944-0.936,2.192-1.448,3.52-1.448c0.008,0,0.02,0,0.032,0l1.04,0.008l-2.312,5.424l-3.772-0.024V59.856z M62.156,3.964 c8.472,0,13.256,1.812,14.284,2.768c-1.028,0.956-5.816,2.764-14.284,2.764S48.9,7.688,47.872,6.732 C48.9,5.772,53.688,3.964,62.156,3.964z M47.744,11.176c3.984,1.732,10.128,2.292,14.412,2.292s10.432-0.56,14.416-2.292v27.052 c-1.084,0.856-6.136,2.324-14.416,2.324c-8.276,0-13.328-1.464-14.412-2.324V11.176z M96.252,210.98l-0.064,10.5 c-0.004,0.488,0.064,0.968,0.132,1.44c-6.488,2.296-18.012,4.428-34.164,4.428c-26.076,0-40.3-5.54-40.3-8.388V100.864 c0-14.968,7.936-47.156,26.848-57.944c4.76,1.484,11.52,1.6,13.452,1.6c1.916,0,8.596-0.112,13.352-1.568 c4.832,2.824,8.956,7.072,12.424,12.084c-0.904,1.388-1.452,3.024-1.464,4.792l-0.004,0.428h-0.22l0.204,2.492l-0.008,1.476 h0.128l11.664,142.684l4.8,0.028l-0.024,4.084L96.252,210.98z M105.724,227.148c-1.488-0.016-2.888-0.608-3.944-1.676 c-1.056-1.068-1.632-2.476-1.62-3.964l0.04-6.532l30.18,0.188c-0.096,0.208-0.128,0.44-0.044,0.656 c0.112,0.28,0.36,0.48,0.66,0.524c0.104,0.016,1.248,0.192,2.984,0.192c2.24,0,5.468-0.292,8.72-1.584 c2.404-0.956,4.38-2.296,5.92-3.552c0.172,0.28,0.332,0.564,0.52,0.828c-1.76,0.916-3.764,2.2-5.588,4.024 c-4.392,4.392-5.844,9.964-5.908,10.2c-0.076,0.292,0.012,0.596,0.224,0.812c0.052,0.052,0.132,0.044,0.192,0.08L105.724,227.148 z M143.168,225.724c-1.068,1.056-2.464,1.752-3.964,1.62h-0.056c0.728-0.22,2.252-0.756,4.084-1.708 C143.208,225.664,143.196,225.7,143.168,225.724z M147.676,220.372c-2.708,2.708-5.98,4.232-7.868,4.948 c0.712-1.884,2.232-5.152,4.948-7.864c1.784-1.784,3.78-3.02,5.496-3.88c0.412,0.464,0.844,0.896,1.304,1.304 C150.696,216.592,149.46,218.588,147.676,220.372z M155.148,224.448c-1.492,3.528-3.948,6.168-5.428,7.54 c-0.048-2.012,0.132-5.608,1.628-9.148c0.984-2.324,2.368-4.216,3.628-5.656c0.552,0.272,1.116,0.512,1.7,0.72 C156.524,219.812,156.132,222.116,155.148,224.448z M161.856,234.452c-0.828-1.836-2.064-5.22-2.064-9.06 c0-2.524,0.54-4.808,1.14-6.628c0.312,0.02,0.608,0.092,0.924,0.092c0.316,0,0.612-0.076,0.928-0.092 c0.604,1.82,1.14,4.1,1.14,6.628C163.924,229.224,162.688,232.612,161.856,234.452z M171.96,223.06 c1.416,3.56,1.52,7.164,1.432,9.176c-1.452-1.404-3.852-4.092-5.268-7.652c-0.932-2.344-1.28-4.672-1.392-6.584 c0.592-0.196,1.172-0.4,1.732-0.664C169.692,218.808,171.032,220.728,171.96,223.06z M178.964,217.452 c2.708,2.708,4.232,5.98,4.944,7.868c-1.884-0.712-5.148-2.232-7.864-4.948c-1.784-1.78-3.02-3.78-3.88-5.492 c0.464-0.412,0.896-0.844,1.308-1.308C175.18,214.428,177.176,215.664,178.964,217.452z M181.652,193.172 c3.56-1.416,7.168-1.508,9.18-1.432c-1.404,1.452-4.096,3.852-7.652,5.268c-2.34,0.932-4.668,1.28-6.584,1.396 c-0.192-0.584-0.392-1.156-0.652-1.708C177.412,195.456,179.304,194.104,181.652,193.172z M176.492,208.452 c1.916,0.156,4.224,0.548,6.548,1.528c3.528,1.492,6.168,3.952,7.54,5.428c-2.032,0.052-5.612-0.132-9.148-1.628 c-2.324-0.98-4.22-2.368-5.66-3.628C176.048,209.6,176.284,209.036,176.492,208.452z M176.044,186.168 c2.708-2.708,5.98-4.232,7.864-4.948c-0.712,1.884-2.232,5.152-4.948,7.864c-1.784,1.784-3.784,3.016-5.496,3.876 c-0.408-0.46-0.84-0.888-1.3-1.3C173.028,189.952,174.256,187.956,176.044,186.168z M175.752,203.268 c0,7.66-6.232,13.892-13.892,13.892c-7.66,0-13.892-6.232-13.892-13.892c0-7.66,6.232-13.892,13.892-13.892 C169.52,189.376,175.752,195.612,175.752,203.268z M172.376,183.692c-0.988,2.336-2.384,4.204-3.652,5.648 c-0.544-0.272-1.104-0.504-1.684-0.708c0.152-1.908,0.548-4.216,1.532-6.544c1.492-3.528,3.948-6.168,5.428-7.54 C174.044,176.568,173.864,180.168,172.376,183.692z M175.96,127.512c-1.14,0.44-2.164,0.44-3.036,0 c-1.076-0.54-1.98-1.752-2.696-3.604c-1.2-3.116-0.144-8.036,0.42-10.18c1.856,1.208,5.944,4.144,7.148,7.264 c0.712,1.848,0.856,3.356,0.42,4.476C177.864,126.384,177.108,127.068,175.96,127.512z M181.472,145.84 c2.676-4.272,7.66-6.612,9.72-7.428c0.268,2.056,0.56,7.028-2.076,11.24c-2.676,4.272-7.656,6.608-9.716,7.428 C179.132,155.016,178.844,150.036,181.472,145.84z M181.484,159.948l6.752,1.148c0.008,0.008,0.004,0.016,0.008,0.024l3.648,5.5 C187.208,164.708,183.556,161.84,181.484,159.948z M197.452,168.252c-0.996-0.172-1.956-0.412-2.888-0.688l-4.032-6.08 l5.944,1.012c0.02,0.104-0.004,0.212,0.06,0.308l3.82,5.756C199.396,168.508,198.428,168.416,197.452,168.252z M202.404,168.572 l-3.792-5.712l5.444,0.924l2.92,4.4C205.528,168.42,203.988,168.544,202.404,168.572z M208.788,167.84l-2.428-3.66l9.228,1.568 C213.948,166.42,211.576,167.24,208.788,167.84z M204.732,162.176l-23.012-3.912c3.596-1.48,10.78-3.8,18.216-2.532 c7.392,1.264,13.208,5.776,16.024,8.352L204.732,162.176z"/> <path d="M61.716,77.24c-14.464,0-26.228,11.764-26.228,26.228s11.764,26.228,26.228,26.228c14.46,0,26.228-11.764,26.228-26.228 S76.176,77.24,61.716,77.24z M61.716,127.428c-13.212,0-23.96-10.748-23.96-23.96c0-13.212,10.748-23.96,23.96-23.96 c13.212,0,23.956,10.748,23.956,23.96S74.924,127.428,61.716,127.428z"/> <path d="M61.716,93.672c-5.4,0-9.796,4.396-9.796,9.796c0,5.4,4.396,9.796,9.796,9.796s9.792-4.396,9.792-9.796 C71.508,98.068,67.116,93.672,61.716,93.672z M61.716,111.564c-4.464,0-8.096-3.632-8.096-8.096s3.632-8.096,8.096-8.096 s8.092,3.632,8.092,8.096S66.176,111.564,61.716,111.564z"/> <path d="M61.716,92.652c0.468,0,0.848-0.38,0.848-0.848V88.56c0-0.468-0.38-0.848-0.848-0.848s-0.848,0.38-0.848,0.848v3.244 C60.864,92.272,61.248,92.652,61.716,92.652z"/> <path d="M61.716,114.28c-0.468,0-0.848,0.38-0.848,0.848v3.244c0,0.468,0.38,0.848,0.848,0.848s0.848-0.38,0.848-0.848v-3.244 C62.564,114.664,62.184,114.28,61.716,114.28z"/> <path d="M76.62,102.616h-3.244c-0.468,0-0.848,0.38-0.848,0.848s0.38,0.848,0.848,0.848h3.244c0.468,0,0.848-0.38,0.848-0.848 S77.092,102.616,76.62,102.616z"/> <path d="M50.9,103.468c0-0.468-0.38-0.848-0.848-0.848h-3.244c-0.468,0-0.848,0.38-0.848,0.848c0,0.468,0.38,0.848,0.848,0.848 h3.244C50.52,104.316,50.9,103.936,50.9,103.468z"/> <path d="M70.564,111.112c-0.332-0.332-0.868-0.332-1.204,0c-0.332,0.332-0.332,0.872,0,1.204l2.292,2.292 c0.168,0.168,0.384,0.248,0.6,0.248s0.436-0.084,0.6-0.248c0.332-0.332,0.332-0.872,0-1.204L70.564,111.112z"/> <path d="M52.864,95.82c0.168,0.168,0.384,0.248,0.6,0.248s0.436-0.084,0.6-0.248c0.332-0.332,0.332-0.872,0-1.204l-2.292-2.292 c-0.332-0.332-0.872-0.332-1.204,0c-0.332,0.332-0.332,0.872,0,1.204L52.864,95.82z"/> <path d="M52.864,111.112l-2.292,2.292c-0.332,0.332-0.332,0.872,0,1.204c0.168,0.168,0.384,0.248,0.6,0.248 s0.436-0.084,0.6-0.248l2.292-2.292c0.332-0.332,0.332-0.872,0-1.204C53.732,110.78,53.196,110.78,52.864,111.112z"/> <path d="M69.964,96.068c0.216,0,0.436-0.084,0.6-0.248l2.292-2.292c0.332-0.332,0.332-0.872,0-1.204 c-0.332-0.332-0.872-0.332-1.204,0l-2.292,2.292c-0.332,0.332-0.332,0.872,0,1.204C69.528,95.988,69.748,96.068,69.964,96.068z"/> <path d="M99.932,96.116c0,12.612,10.26,22.872,22.872,22.872s22.872-10.26,22.872-22.872c0-12.616-10.26-22.876-22.872-22.876 S99.932,83.5,99.932,96.116z M143.408,96.112c0,11.364-9.244,20.604-20.604,20.604S102.2,107.472,102.2,96.112 c0-11.364,9.244-20.604,20.604-20.604C134.164,75.508,143.408,84.752,143.408,96.112z"/> <path d="M114.204,96.112c0,4.74,3.856,8.596,8.6,8.596s8.6-3.856,8.6-8.596s-3.86-8.6-8.6-8.6 C118.06,87.512,114.204,91.368,114.204,96.112z M129.704,96.112c0,3.804-3.096,6.9-6.9,6.9s-6.9-3.096-6.9-6.9s3.096-6.9,6.9-6.9 C126.608,89.212,129.704,92.308,129.704,96.112z"/> <path d="M121.956,83.2v2.808c-0.004,0.468,0.38,0.848,0.848,0.848c0.468,0,0.848-0.38,0.848-0.848V83.2 c0-0.468-0.38-0.848-0.848-0.848C122.336,82.352,121.956,82.732,121.956,83.2z"/> <path d="M122.804,105.368c-0.468,0-0.848,0.38-0.848,0.848v2.808c0,0.468,0.38,0.848,0.848,0.848c0.468,0,0.848-0.38,0.848-0.848 v-2.808C123.652,105.748,123.272,105.368,122.804,105.368z"/> <path d="M132.06,96.112c0,0.468,0.38,0.848,0.848,0.848h2.808c0.468,0,0.848-0.38,0.848-0.848s-0.38-0.848-0.848-0.848h-2.808 C132.44,95.264,132.06,95.644,132.06,96.112z"/> <path d="M113.548,96.112c0-0.468-0.38-0.848-0.848-0.848h-2.808c-0.468,0-0.848,0.38-0.848,0.848s0.38,0.848,0.848,0.848h2.808 C113.168,96.964,113.548,96.584,113.548,96.112z"/> <path d="M130.548,102.656c-0.332-0.332-0.872-0.332-1.204,0c-0.332,0.332-0.332,0.872,0,1.204l1.988,1.988 c0.168,0.168,0.384,0.248,0.6,0.248s0.436-0.084,0.6-0.248c0.332-0.332,0.332-0.872,0-1.204L130.548,102.656z"/> <path d="M115.056,89.568c0.168,0.168,0.384,0.248,0.6,0.248s0.436-0.084,0.6-0.248c0.332-0.332,0.332-0.872,0-1.204l-1.988-1.988 c-0.332-0.332-0.872-0.332-1.204,0c-0.332,0.332-0.332,0.872,0,1.204L115.056,89.568z"/> <path d="M115.056,102.656l-1.988,1.988c-0.332,0.332-0.332,0.872,0,1.204c0.168,0.168,0.384,0.248,0.6,0.248 s0.436-0.084,0.6-0.248l1.988-1.988c0.332-0.332,0.332-0.872,0-1.204C115.924,102.324,115.388,102.324,115.056,102.656z"/> <path d="M129.948,89.816c0.216,0,0.436-0.084,0.6-0.248l1.988-1.988c0.332-0.332,0.332-0.872,0-1.204 c-0.332-0.332-0.872-0.332-1.204,0l-1.988,1.988c-0.332,0.332-0.332,0.872,0,1.204C129.512,89.736,129.732,89.816,129.948,89.816 z"/> </g> </g> </g> </g>
</svg>