<?xml version="1.0" encoding="iso-8859-1"?>
<!-- Uploaded to: SVG Repo, www.svgrepo.com, Generator: SVG Repo Mixer Tools -->
<!DOCTYPE svg PUBLIC "-//W3C//DTD SVG 1.1//EN" "http://www.w3.org/Graphics/SVG/1.1/DTD/svg11.dtd">
<svg fill="#000000" height="800px" width="800px" version="1.1" id="Capa_1" xmlns="http://www.w3.org/2000/svg" xmlns:xlink="http://www.w3.org/1999/xlink" 
	 viewBox="0 0 435.646 435.646" xml:space="preserve">
<path d="M411.208,101.598l-29.347-53.558c-7.488-13.666-19.783-23.815-34.619-28.577L287.351,0.24
	c-1.224-0.395-2.554-0.299-3.711,0.263c-41.828,20.3-89.807,20.299-131.635,0c-1.157-0.562-2.487-0.657-3.711-0.263L88.404,19.463
	c-14.837,4.762-27.132,14.911-34.619,28.577l-29.347,53.558c-0.857,1.564-0.816,3.468,0.108,4.994
	c0.869,1.433,21.785,35.152,66.699,40.375c2.38,0.276,4.616-1.171,5.342-3.451l1.011-3.175c5.697,30.61,15.93,88.323,15.229,104.442
	c-0.978,22.485-21.743,165.058-21.952,166.495c-0.355,2.434,1.112,4.764,3.46,5.495c40.394,12.582,81.94,18.872,123.487,18.872
	s83.094-6.29,123.487-18.872c2.348-0.731,3.815-3.062,3.46-5.495c-0.209-1.438-20.975-144.009-21.952-166.495
	c-0.7-16.119,9.532-73.832,15.229-104.442l1.011,3.175c0.726,2.28,2.966,3.729,5.342,3.451c44.914-5.223,65.83-38.942,66.699-40.375
	C412.024,105.066,412.065,103.163,411.208,101.598z M373.092,52.845l20.724,37.823c-5.218,7.09-21.721,26.272-50.896,32.005
	l-0.958-3.012c8.018-44.61,9.021-74.659,8.951-87.977C360.279,36.24,368.01,43.573,373.092,52.845z M185.912,68.125
	c16.028,10.782,30.352,13.666,30.953,13.783c0.316,0.062,0.638,0.093,0.958,0.093s0.642-0.031,0.958-0.093
	c0.602-0.117,14.925-3.001,30.953-13.783c13.977-9.401,31.809-26.755,39.697-56.715l4.767,1.53
	c-8.321,31.345-27.069,49.513-41.676,59.333c-16.923,11.385-32.138,14.415-32.787,14.541l-1.912,0.373l-1.923-0.375
	c-0.639-0.124-15.855-3.154-32.778-14.54c-14.605-9.819-33.352-27.985-41.674-59.331l4.768-1.53
	C154.103,41.37,171.935,58.723,185.912,68.125z M278.328,13.797c-6.103,19.279-17.442,34.664-33.834,45.8
	c-12.153,8.256-23.396,11.462-26.673,12.274c-6.674-1.654-46.193-13.244-60.505-58.075c19.152,7.761,39.865,11.833,60.507,11.833
	C238.463,25.629,259.176,21.558,278.328,13.797z M62.554,52.845c5.081-9.272,12.812-16.605,22.179-21.162
	c-0.069,13.318,0.933,43.367,8.951,87.977l-0.958,3.012c-29.255-5.742-45.708-24.924-50.897-32.004L62.554,52.845z M34.688,103.701
	l1.925-3.513c7.918,9.524,25.288,26.25,53.065,32.063l-1.34,4.211C57.41,131.34,39.818,110.655,34.688,103.701z M101.388,408.474
	c0.305-2.106,0.713-4.919,1.198-8.29c37.474,10.827,76.209,16.326,115.236,16.326c39.027,0,77.763-5.499,115.236-16.326
	c0.486,3.371,0.893,6.184,1.199,8.29C257.984,431.369,177.662,431.369,101.388,408.474z M312.828,245.217
	c0.767,17.642,12.833,103.374,18.794,144.967c-36.987,10.824-75.246,16.326-113.799,16.326c-38.552,0-76.812-5.502-113.799-16.326
	c5.961-41.593,18.027-127.325,18.794-144.967c0.854-19.625-12.657-92.565-17.456-117.714c-0.882-4.623-2.993-16.153-3.6-19.863
	c-7.011-42.83-7.165-70.56-6.96-79.728L131.916,16c9.172,34.027,29.651,53.831,45.626,64.569
	c18.276,12.297,34.656,15.712,36.453,16.059c0,0,3.507,0.653,3.828,0.653s3.817-0.651,3.817-0.651
	c1.808-0.349,18.187-3.764,36.463-16.06c15.976-10.741,36.456-30.544,45.626-64.571l37.117,11.914
	c0.214,9.276,0.062,37.576-7.257,81.509c-0.525,3.148-2.354,13.099-3.148,17.252C325.79,151.009,311.965,225.373,312.828,245.217z
	 M347.307,136.462l-1.34-4.211c27.711-5.807,45.113-22.535,53.061-32.07l1.929,3.52C395.82,110.665,378.228,131.341,347.307,136.462
	z"/>
</svg>