<svg class="icon" style="width: 1em; height: 1em;vertical-align: middle;fill: currentColor;overflow: hidden;" viewBox="0 0 1024 1024" version="1.1" xmlns="http://www.w3.org/2000/svg"><path d="M511.981568 950.556672 293.4272 950.556672c-18.16576 0-39.819264-9.09312-39.819264-52.4288l22.800384-573.636608c0.313344-8.046592 7.08608-14.338048 15.13472-13.981696 8.04864 0.319488 14.303232 7.094272 13.983744 15.13472L282.738688 898.70336c0.014336 22.706176 5.687296 22.706176 10.688512 22.706176l218.556416 0c8.04864 0 14.573568 6.524928 14.573568 14.573568C526.555136 944.031744 520.030208 950.556672 511.981568 950.556672zM149.438464 851.910656c-3.600384 0-7.421952-0.442368-11.470848-1.337344l-104.097792-15.16544c-10.645504-2.318336-23.945216-6.7584-28.592128-20.764672-2.973696-8.943616-1.28-18.323456 1.44384-30.590976L139.057152 194.480128c0.178176-0.804864 0.425984-1.601536 0.745472-2.363392 29.765632-72.118272 166.852608-100.737024 187.815936-102.936576l73.607168-12.517376c3.022848-0.497664 6.156288-0.063488 8.902656 1.30048 0.53248 0.264192 53.43232 26.12224 101.855232 26.12224l0 29.147136c-47.241216 0-95.700992-20.359168-110.3872-27.068416l-69.494784 11.819008c-0.790528 0.135168-1.585152 0.206848-2.390016 0.206848-18.30912 1.265664-139.008 30.527488-162.510848 83.965952L35.166208 790.401024c-0.790528 3.579904-2.619392 11.804672-2.285568 14.686208 0.342016-0.036864 2.19136 0.768 6.240256 1.665024l104.105984 15.16544c8.404992 1.826816 12.05248 2.625536 16.259072-16.30208l118.145024-487.376896 28.319744 6.866944L187.871232 812.204032C182.03648 838.547456 169.1136 851.910656 149.438464 851.910656zM511.981568 935.983104M511.981568 935.983104M730.537984 950.556672 511.981568 950.556672c-8.046592 0-14.573568-6.524928-14.573568-14.573568 0-8.046592 6.524928-14.573568 14.573568-14.573568l218.556416 0c5.001216 0 10.674176 0 10.674176-23.281664l-22.769664-572.483584c-0.321536-8.040448 5.935104-14.815232 13.983744-15.13472 8.091648-0.376832 14.821376 5.935104 15.13472 13.981696l22.786048 573.059072C770.357248 941.463552 748.705792 950.556672 730.537984 950.556672zM874.156032 852.031488c-19.191808 0-32.206848-13.408256-38.127616-40.112128l-118.016-486.815744 28.321792-6.866944 118.079488 487.100416c4.261888 19.183616 7.90528 18.40128 15.27808 16.771072l106.190848-15.548416c4.376576-1.00352 5.777408-2.113536 5.834752-2.162688-0.100352-1.28-2.07872-10.21952-2.924544-14.03904L856.778752 202.15808c-23.517184-53.440512-144.216064-82.700288-162.902016-83.974144-0.483328-0.034816-1.538048-0.120832-2.013184-0.198656l-69.492736-11.819008c-14.686208 6.709248-63.145984 27.068416-110.3872 27.068416L511.983616 104.087552c48.60928 0 101.316608-25.851904 101.842944-26.116096 2.760704-1.366016 5.892096-1.806336 8.914944-1.308672l73.607168 12.517376c20.963328 2.199552 158.048256 30.818304 187.830272 102.930432 0.311296 0.768 0.567296 1.564672 0.745472 2.37568l132.31104 589.533184c2.732032 12.302336 4.425728 21.682176 1.452032 30.625792-4.646912 14.004224-17.944576 18.446336-27.551744 20.57216l-106.182656 15.548416C881.164288 851.605504 877.55776 852.031488 874.156032 852.031488zM511.981568 935.983104M511.981568 935.983104M504.694784 128.636928l14.573568 0 0 794.943488-14.573568 0 0-794.943488ZM610.422784 303.323136l-25.360384 0c-4.028416 0-7.286784-3.258368-7.286784-7.286784s3.258368-7.286784 7.286784-7.286784l25.360384 0c4.028416 0 7.286784 3.258368 7.286784 7.286784S614.4512 303.323136 610.422784 303.323136zM659.052544 303.323136 633.69216 303.323136c-4.028416 0-7.286784-3.258368-7.286784-7.286784s3.258368-7.286784 7.286784-7.286784l25.360384 0c4.028416 0 7.286784 3.258368 7.286784 7.286784S663.08096 303.323136 659.052544 303.323136zM349.464576 825.532416c-3.260416 0-6.227968-2.205696-7.059456-5.515264-0.966656-3.858432 1.337344-7.778304 5.167104-8.810496 0.95232-0.299008 42.51648-14.559232 42.51648-128.925696 0-4.028416 3.258368-7.286784 7.286784-7.286784 4.026368 0 7.286784 3.258368 7.286784 7.286784 0 128.141312-51.234816 142.481408-53.420032 143.028224C350.652416 825.460736 350.0544 825.532416 349.464576 825.532416zM665.120768 825.532416c-0.58368 0-1.175552-0.07168-1.765376-0.219136-2.185216-0.548864-53.417984-14.886912-53.417984-143.028224 0-4.028416 3.258368-7.286784 7.286784-7.286784 4.028416 0 7.286784 3.258368 7.286784 7.286784 0 115.105792 42.102784 128.804864 42.530816 128.93184 3.807232 1.11616 6.084608 5.095424 5.046272 8.923136C671.205376 823.382016 668.315648 825.532416 665.120768 825.532416zM317.280256 889.288704l7.286784 0 0 34.291712-7.286784 0 0-34.291712ZM288.13312 889.288704l7.286784 0 0 34.291712-7.286784 0 0-34.291712ZM345.827328 889.288704l7.286784 0 0 34.291712-7.286784 0 0-34.291712ZM374.66112 889.288704l7.286784 0 0 34.291712-7.286784 0 0-34.291712ZM399.253504 889.288704l7.286784 0 0 34.291712-7.286784 0 0-34.291712ZM54.265838 779.144874l7.172768 1.308713-6.154627 33.732157-7.172768-1.308713 6.154627-33.732157ZM74.877662 779.146822l7.172768 1.308713-6.154259 33.730142-7.172768-1.308713 6.154259-33.730142ZM94.404443 781.93787l7.172039 1.310171-6.161485 33.728728-7.172039-1.310171 6.161485-33.728728ZM113.967368 784.568811l7.172768 1.308713-6.154627 33.732157-7.172768-1.308713 6.154627-33.732157ZM132.843254 788.199721l7.172039 1.310171-6.161117 33.726713-7.172039-1.310171 6.161117-33.726713ZM426.57792 889.288704l7.286784 0 0 34.291712-7.286784 0 0-34.291712ZM456.636416 889.288704l7.286784 0 0 34.291712-7.286784 0 0-34.291712ZM482.138112 889.288704l7.286784 0 0 34.291712-7.286784 0 0-34.291712ZM537.700352 889.288704l7.286784 0 0 34.291712-7.286784 0 0-34.291712ZM559.699968 889.288704l7.286784 0 0 34.291712-7.286784 0 0-34.291712ZM588.53376 889.288704l7.286784 0 0 34.291712-7.286784 0 0-34.291712ZM613.126144 889.288704l7.286784 0 0 34.291712-7.286784 0 0-34.291712ZM640.45056 889.288704l7.286784 0 0 34.291712-7.286784 0 0-34.291712ZM670.509056 889.288704l7.286784 0 0 34.291712-7.286784 0 0-34.291712ZM696.010752 889.288704l7.286784 0 0 34.291712-7.286784 0 0-34.291712ZM725.157888 889.288704l7.286784 0 0 34.291712-7.286784 0 0-34.291712ZM269.289472 882.003968l486.494208 0 0 14.573568-486.494208 0 0-14.573568ZM26.212784 761.621207l145.871206 23.644406-2.332099 14.387591-145.871206-23.644406 2.332099-14.387591ZM967.430816 780.00674l6.161117 33.726713-7.172039 1.310171-6.161117-33.726713 7.172039-1.310171ZM946.769931 780.015277l6.147035 33.728127-7.172768 1.307255-6.147035-33.728127 7.172768-1.307255ZM927.295031 782.855452l6.161485 33.728728-7.172039 1.310171-6.161485-33.728728 7.172039-1.310171ZM907.735735 785.433791l6.161485 33.728728-7.172039 1.310171-6.161485-33.728728 7.172039-1.310171ZM888.872249 789.109155l6.161117 33.726713-7.172039 1.310171-6.161117-33.726713 7.172039-1.310171ZM995.480948 762.575728l2.335014 14.387591-145.871206 23.673961-2.335014-14.387591 145.871206-23.673961ZM545.753088 186.431488c-6.567936 0-12.744704-2.562048-17.391616-7.206912l-1.622016-2.463744L504.426496 120.50432l58.720256 23.945216c9.578496 9.578496 9.578496 25.176064 0.006144 34.766848C558.497792 183.86944 552.323072 186.431488 545.753088 186.431488zM539.656192 169.787392c3.835904 2.953216 9.713664 2.619392 13.185024-0.866304 3.586048-3.59424 3.878912-9.259008 0.862208-13.17888l-23.289856-9.250816L539.656192 169.787392z" /></svg>