<?xml version="1.0" standalone="no"?>
<!DOCTYPE svg PUBLIC "-//W3C//DTD SVG 20010904//EN"
 "http://www.w3.org/TR/2001/REC-SVG-20010904/DTD/svg10.dtd">
<svg version="1.0" xmlns="http://www.w3.org/2000/svg"
 width="600.000000pt" height="628.000000pt" viewBox="0 0 600.000000 628.000000"
 preserveAspectRatio="xMidYMid meet">
<g transform="translate(0.000000,628.000000) scale(0.100000,-0.100000)"
fill="#000000" stroke="none">
<path d="M2125 5418 l7 -863 -75 -29 c-42 -15 -83 -26 -92 -23 -9 4 -29 -5
-48 -22 -30 -26 -168 -104 -173 -98 -2 2 17 60 41 131 25 70 45 132 45 137 0
14 -20 11 -25 -3 -2 -7 -25 -75 -51 -150 l-46 -137 -96 -63 c-54 -34 -100 -64
-103 -66 -11 -5 -29 85 -29 146 0 115 52 232 139 310 86 79 231 125 332 104
32 -6 58 -7 63 -1 17 16 -2 21 -91 26 -73 4 -99 1 -153 -17 -84 -28 -149 -70
-204 -131 -54 -60 -83 -121 -104 -217 -15 -69 -15 -80 1 -159 10 -47 17 -86
15 -87 -2 -2 -18 -13 -36 -25 -18 -13 -34 -22 -36 -20 -1 2 -27 45 -56 94 -64
108 -58 101 -70 89 -5 -5 14 -46 51 -106 l60 -97 -32 -29 -33 -29 -48 38
c-139 109 -354 118 -506 20 -117 -77 -178 -174 -206 -328 -4 -24 -2 -33 8 -33
9 0 16 18 21 53 10 77 58 170 120 230 98 97 232 140 362 117 71 -12 149 -46
198 -85 l30 -25 -80 -80 c-51 -51 -87 -80 -100 -79 -11 1 -86 1 -167 0 -111
-1 -148 -4 -148 -13 0 -10 36 -12 157 -10 l157 4 -40 -44 c-22 -23 -50 -57
-63 -75 -19 -26 -28 -30 -42 -23 -47 26 -121 -12 -132 -67 -5 -29 8 -74 25
-84 7 -5 -4 -30 -30 -69 -22 -34 -60 -98 -84 -141 -23 -43 -45 -78 -48 -78 -3
0 -41 74 -85 164 -44 90 -86 164 -92 164 -7 1 -13 -1 -13 -4 0 -3 37 -78 81
-168 45 -89 80 -164 79 -167 -1 -3 -81 -39 -177 -81 -95 -42 -177 -79 -180
-83 -9 -9 -23 -7 -23 3 0 5 -9 30 -21 56 -14 31 -24 44 -31 37 -7 -7 -3 -26
11 -57 12 -26 21 -49 21 -51 0 -4 -69 -34 -80 -34 -4 0 -13 18 -20 41 -8 22
-18 42 -22 46 -20 12 -20 -9 0 -54 l20 -47 -30 -13 c-17 -7 -33 -13 -37 -13
-3 0 -14 23 -24 50 -10 29 -24 50 -32 50 -16 0 -15 -4 24 -92 18 -42 41 -64
41 -39 0 5 15 14 33 21 17 7 60 26 95 41 70 33 72 33 72 18 0 -6 6 -25 14 -42
8 -18 47 -101 85 -186 39 -85 70 -155 69 -156 -25 -18 -270 -175 -287 -184
-15 -9 -20 -16 -13 -23 6 -6 59 23 156 86 81 53 149 96 151 96 2 0 -1 -15 -6
-32 -12 -46 -39 -231 -39 -272 0 -31 -10 -42 -130 -142 -72 -60 -126 -112
-121 -117 5 -5 58 33 121 85 61 51 115 94 118 96 4 1 6 -31 4 -72 -3 -67 -6
-74 -28 -85 -30 -14 -54 -66 -47 -104 5 -24 45 -69 72 -79 5 -1 10 -39 12 -83
l4 -80 -57 -9 c-39 -5 -58 -13 -58 -22 0 -15 8 -14 89 7 19 5 35 7 36 6 1 -2
6 -31 31 -182 l6 -30 -141 -39 c-95 -27 -141 -44 -141 -53 0 -10 6 -12 23 -7
12 4 77 24 143 44 l121 37 25 -89 26 -89 -27 -10 c-14 -6 -38 -13 -53 -16 -16
-3 -28 -12 -28 -20 0 -15 4 -14 80 12 l35 12 27 -70 c27 -70 27 -70 8 -95 -48
-60 -2 -152 75 -152 51 0 95 44 95 95 0 53 -46 98 -97 93 l-36 -3 -24 69 c-12
38 -22 70 -20 71 1 1 30 10 64 20 35 10 63 21 63 25 0 18 -17 17 -75 -5 l-63
-22 -26 90 c-14 50 -25 91 -23 92 1 1 66 19 144 41 94 26 143 44 143 53 0 7
-6 11 -12 8 -25 -9 -267 -77 -275 -77 -7 0 -43 164 -43 196 0 6 36 16 80 23
54 9 80 18 80 27 0 14 -20 12 -113 -11 -26 -7 -49 -9 -51 -6 -2 3 -6 38 -10
76 l-7 71 36 17 c36 17 55 49 55 93 0 31 -50 84 -79 84 -23 0 -26 24 -13 109
l7 43 60 -83 c33 -45 72 -99 86 -120 18 -25 30 -34 36 -28 7 7 -22 54 -88 142
l-99 132 6 50 c9 82 35 249 39 254 3 2 9 -7 14 -20 32 -83 129 -266 138 -261
6 4 -20 68 -68 166 -44 88 -77 162 -74 164 3 3 53 27 113 52 59 26 142 64 185
84 l77 36 60 -120 c33 -66 62 -120 64 -120 2 0 27 15 54 33 28 17 58 37 68 43
11 6 14 15 10 23 -6 10 -11 9 -24 -2 -23 -19 -101 -62 -104 -56 -11 17 -48 95
-48 100 0 4 27 18 60 33 33 15 60 31 60 37 0 15 -17 11 -79 -20 l-58 -30 -17
40 c-10 22 -16 42 -15 43 2 2 28 16 57 31 28 15 52 30 52 34 0 20 -17 16 -67
-16 -30 -19 -56 -33 -59 -31 -2 3 -38 78 -79 169 -42 90 -83 177 -91 193 -8
16 -13 30 -12 31 12 6 230 100 291 125 42 18 77 39 77 46 0 17 -5 17 -28 4
-29 -16 -315 -140 -317 -138 -2 2 29 56 68 121 l71 117 44 0 c77 0 122 66 91
134 -13 28 -3 44 81 136 l41 45 -6 -80 c-3 -44 -8 -110 -12 -147 -5 -56 -3
-68 9 -68 10 0 15 13 16 43 1 23 6 96 11 161 l9 119 68 68 c38 38 71 69 74 69
3 0 20 -22 38 -49 88 -129 95 -312 16 -447 -35 -59 -125 -141 -187 -169 -65
-30 -155 -43 -231 -35 -41 4 -56 3 -56 -6 0 -19 105 -28 180 -17 142 23 265
115 331 248 31 63 34 79 37 175 4 119 -12 179 -73 269 l-33 50 30 26 c16 15
31 25 32 23 23 -32 116 -192 116 -199 0 -5 7 -9 15 -9 16 0 21 25 6 34 -5 4
-25 34 -45 69 -19 34 -45 76 -56 93 l-20 31 38 25 38 26 24 -45 c48 -91 173
-179 291 -204 70 -15 181 -6 250 21 118 45 231 168 264 285 25 91 28 115 13
115 -9 0 -18 -22 -25 -61 -17 -87 -57 -161 -124 -224 -135 -129 -310 -156
-477 -74 -68 33 -147 107 -178 165 l-19 36 24 19 c12 10 56 40 97 65 l74 46
162 -46 c102 -29 165 -43 171 -37 10 10 -45 28 -217 74 l-89 23 44 26 c24 14
62 35 85 46 39 20 40 20 52 1 26 -42 96 -11 90 40 -3 25 2 28 165 82 177 60
299 89 481 116 139 21 499 24 636 5 255 -35 536 -109 566 -149 7 -11 28 -17
58 -18 66 -3 73 -14 42 -67 -30 -51 -31 -58 -13 -58 8 0 24 22 37 49 l23 49
66 -30 c36 -16 69 -32 73 -36 4 -4 -35 -89 -86 -190 -51 -100 -89 -185 -84
-188 12 -8 1 -26 108 181 51 99 93 181 94 181 3 4 151 -87 154 -95 2 -5 -18
-47 -43 -94 -30 -56 -42 -88 -35 -92 6 -4 12 -5 13 -4 1 2 22 42 46 89 24 47
45 86 47 88 1 2 33 -19 71 -46 l68 -50 17 -122 c10 -68 20 -125 22 -128 18
-18 20 18 4 112 -9 61 -15 112 -13 114 2 3 24 -13 47 -34 38 -34 43 -43 40
-77 -7 -69 55 -121 118 -99 29 11 32 9 117 -84 49 -52 89 -98 91 -103 1 -4
-39 1 -90 11 -51 10 -176 34 -278 53 -102 19 -195 37 -207 40 -15 3 -23 1 -23
-7 0 -13 53 -24 475 -103 l140 -27 -2 -106 c-2 -59 -6 -171 -9 -250 -6 -140
-7 -144 -28 -139 -11 3 -47 9 -78 12 -47 6 -58 5 -58 -7 0 -9 13 -15 38 -16
21 -2 62 -6 90 -11 29 -4 54 -5 56 -2 2 3 4 56 5 116 0 61 4 172 7 248 l7 138
52 -72 c29 -40 68 -97 86 -127 l32 -54 -27 -120 c-26 -111 -28 -145 -7 -122 4
5 16 47 26 94 27 130 25 129 77 29 46 -89 46 -91 27 -110 -25 -25 -29 -73 -8
-115 13 -25 49 -44 83 -44 19 0 27 -10 44 -57 12 -31 19 -59 17 -62 -3 -2 -57
8 -121 23 -63 16 -118 26 -121 23 -14 -14 16 -26 122 -47 63 -13 120 -27 127
-31 12 -7 81 -260 73 -267 -3 -3 -10 0 -17 5 -44 35 -360 195 -368 187 -4 -5
-33 -57 -64 -117 -39 -72 -53 -107 -43 -107 7 0 37 45 66 100 29 55 54 100 57
100 2 0 62 -31 132 -69 70 -37 155 -83 190 -101 35 -18 61 -38 58 -44 -56
-131 -176 -433 -176 -443 0 -39 23 4 88 164 39 98 77 192 83 208 l12 30 8 -41
c26 -137 33 -508 13 -616 l-5 -27 -120 -3 c-71 -2 -119 -7 -119 -13 0 -6 44
-9 120 -6 66 2 120 0 120 -5 0 -46 -49 -284 -58 -284 -4 0 -63 16 -132 35
-144 40 -140 40 -140 20 0 -8 7 -15 16 -15 9 0 69 -15 135 -32 l120 -33 -7
-30 c-6 -31 -64 -218 -69 -223 -1 -2 -54 11 -116 27 -123 33 -139 36 -139 22
0 -5 54 -24 121 -42 140 -38 134 -23 67 -172 -47 -106 -121 -241 -185 -342
-51 -79 -165 -236 -169 -232 -2 1 5 61 16 132 32 225 34 256 17 249 -8 -3 -38
-1 -66 4 -40 7 -51 7 -51 -4 0 -8 19 -16 51 -20 l50 -7 -3 -36 -3 -36 -54 4
c-41 2 -52 0 -49 -10 5 -15 8 -16 64 -18 34 -1 35 -2 32 -38 l-3 -37 -52 3
c-44 2 -53 0 -53 -14 0 -14 9 -16 50 -13 l51 3 -5 -35 c-3 -19 -8 -57 -12 -83
-6 -43 -9 -48 -28 -43 -11 2 -50 10 -86 16 -57 10 -226 42 -286 55 -19 4 -22
-1 -27 -38 -6 -48 -62 -348 -72 -389 -7 -25 -5 -28 19 -28 15 0 46 -4 69 -10
101 -23 360 -70 367 -65 4 2 10 37 14 77 4 40 11 89 16 108 4 19 16 79 25 132
18 97 18 98 44 92 62 -14 61 -12 54 -60 -8 -58 13 -59 24 -1 5 23 11 41 13 40
3 0 27 -4 53 -8 38 -6 47 -11 43 -24 -3 -9 -8 -29 -11 -46 -4 -16 -9 -38 -12
-47 -3 -11 1 -18 10 -18 10 0 18 20 26 61 l12 60 32 -7 c18 -3 33 -7 34 -8 1
-1 -2 -19 -7 -41 -13 -56 -12 -75 4 -75 9 0 15 20 20 66 4 37 5 68 3 70 -5 5
-260 54 -284 54 -12 0 -24 4 -27 8 -2 4 20 39 50 77 113 145 258 395 329 570
16 39 31 73 34 77 3 4 69 -10 147 -32 163 -44 186 -49 191 -35 1 6 -67 28
-153 50 -86 22 -160 42 -164 45 -5 3 7 57 26 119 18 62 34 120 34 128 0 9 7
12 18 9 9 -2 85 -23 167 -46 83 -22 158 -43 168 -46 10 -3 17 0 17 8 0 9 -44
25 -127 47 -192 51 -226 60 -229 63 -1 2 6 44 17 93 10 50 21 116 25 148 l7
57 81 1 c182 4 231 8 235 20 3 9 -32 11 -150 7 l-154 -5 -1 271 c-1 197 -5
294 -16 356 -9 47 -14 87 -13 88 4 4 342 -174 362 -190 10 -8 31 8 22 17 -2 2
-87 47 -189 101 -102 54 -186 98 -188 99 -7 5 148 370 156 368 5 -1 47 -25 93
-53 86 -51 99 -57 99 -41 0 5 -39 33 -87 62 -49 28 -95 60 -103 71 -15 18 -21
5 -97 -182 l-81 -202 -12 59 c-7 32 -20 90 -31 129 -22 86 -19 98 50 231 28
53 51 97 51 99 0 2 -6 4 -13 4 -7 0 -37 -49 -67 -110 l-54 -110 -25 67 c-18
48 -21 68 -13 71 18 6 42 57 42 87 0 42 -50 85 -99 85 -27 0 -41 5 -41 13 0 7
-20 48 -45 91 -25 44 -44 81 -42 82 1 1 50 -10 107 -27 121 -33 120 -33 120
-16 0 7 -31 19 -74 30 -175 42 -170 39 -232 134 -32 47 -71 102 -88 121 l-31
35 29 -7 c16 -4 135 -27 265 -52 130 -24 241 -46 247 -48 7 -3 14 16 18 48 3
29 9 67 12 85 6 26 4 33 -7 29 -8 -3 -18 -30 -24 -69 -8 -47 -14 -63 -25 -62
-8 1 -109 20 -225 42 -115 23 -232 44 -258 47 l-48 7 6 231 c3 127 8 248 10
269 4 27 2 37 -8 37 -15 0 -27 -181 -27 -404 l-1 -101 -26 30 c-14 17 -55 61
-91 99 -56 59 -64 71 -54 87 17 26 15 80 -3 106 -24 35 -76 47 -120 29 -36
-15 -37 -15 -80 17 -24 17 -44 35 -45 38 0 4 44 10 98 14 95 7 134 17 120 31
-4 3 -62 0 -130 -8 l-123 -14 -60 43 c-32 24 -63 43 -67 43 -14 0 -9 15 42
110 52 97 56 110 41 110 -5 0 -33 -44 -62 -98 l-53 -99 -69 43 c-39 24 -75 45
-81 47 -12 5 13 59 116 251 43 81 55 112 46 118 -9 5 -38 -43 -102 -170 -48
-97 -89 -178 -91 -180 -4 -4 -144 63 -145 69 0 3 18 39 40 79 27 50 37 76 29
81 -7 4 -26 -22 -51 -70 -22 -42 -41 -77 -42 -78 -1 -1 -12 0 -24 4 -16 4 -22
13 -22 33 0 29 -27 60 -53 60 -9 0 -26 -9 -38 -21 -11 -11 -25 -19 -30 -17
-13 4 -16 165 -18 1011 -1 562 -4 708 -13 704 -9 -3 -13 -34 -13 -109 0 -80
-3 -104 -12 -101 -12 5 -17 18 -14 36 1 5 -3 6 -9 2 -12 -7 -58 19 -76 43 -7
9 -16 12 -24 7 -9 -5 -11 -4 -6 3 4 7 3 12 -2 12 -5 0 -21 11 -37 24 -20 17
-24 25 -14 30 8 3 4 4 -8 2 -34 -6 -28 3 12 20 19 8 35 19 35 24 0 17 -26 11
-64 -15 -20 -14 -39 -25 -41 -25 -3 0 -5 11 -5 25 0 14 -4 25 -10 25 -6 0 -10
-79 -10 -216 0 -118 -3 -213 -7 -211 -5 3 -30 -26 -58 -63 -27 -38 -52 -69
-55 -69 -3 0 -21 22 -41 48 l-37 48 58 69 c52 62 63 84 42 84 -4 0 -30 -29
-57 -65 -28 -35 -52 -64 -55 -65 -3 0 -23 23 -43 50 -43 58 -46 45 37 144 26
31 36 50 29 57 -6 6 -29 -15 -65 -61 l-55 -70 -48 60 -47 61 57 70 c33 41 54
74 48 80 -5 5 -32 -21 -64 -61 l-56 -69 -24 32 c-13 17 -29 39 -36 48 -10 14
-6 23 23 58 43 49 21 58 -24 10 l-29 -31 -22 31 c-12 17 -31 31 -42 31 -18 0
-16 -5 15 -41 l35 -41 -32 -39 c-18 -21 -34 -39 -37 -39 -3 0 -29 34 -59 76
-36 50 -57 72 -64 65 -6 -6 9 -35 47 -85 31 -41 56 -78 56 -83 -1 -17 -81 -96
-89 -87 -6 7 -74 97 -107 143 -2 1 -7 0 -13 -4 -7 -4 13 -38 50 -86 l60 -79
-38 -50 c-21 -27 -41 -49 -44 -50 -3 0 -28 31 -55 70 -44 62 -65 81 -66 57 0
-5 24 -40 52 -78 l52 -70 -44 -54 c-23 -30 -46 -54 -50 -55 -4 0 -26 27 -49
60 -23 33 -45 60 -49 60 -21 0 -14 -19 32 -76 l50 -64 -32 -40 c-17 -22 -35
-40 -38 -40 -4 1 -37 46 -74 100 l-68 99 0 216 c0 191 -2 215 -16 215 -10 0
-14 -6 -10 -15 3 -8 1 -15 -5 -15 -6 0 -9 -3 -7 -7 2 -5 -16 -27 -39 -49 -24
-23 -43 -40 -43 -39 0 2 -17 -13 -38 -34 -21 -20 -36 -39 -34 -43 2 -4 -4 -5
-13 -2 -13 5 -16 19 -14 63 4 108 0 141 -17 141 -15 0 -15 -75 -9 -862z m1540
699 c66 -50 122 -92 124 -94 3 -2 -4 -10 -15 -17 -34 -24 -209 -172 -223 -189
-7 -10 -17 -17 -22 -17 -5 0 -9 95 -9 211 0 165 3 209 13 203 6 -4 66 -48 132
-97z m-1317 -253 l-3 -117 -95 128 c-52 71 -96 132 -98 135 -1 4 41 50 95 103
l98 96 3 -114 c1 -63 1 -167 0 -231z m657 285 c0 -8 -8 -13 -17 -11 -9 1 -19
-1 -22 -6 -6 -10 30 -9 40 1 13 12 22 8 27 -14 4 -13 10 -18 18 -13 8 4 10 3
5 -4 -4 -7 -3 -12 3 -12 11 0 9 -26 -4 -37 -4 -4 -5 -1 -1 7 5 8 -3 2 -18 -15
-14 -16 -24 -35 -22 -41 2 -6 -2 -11 -10 -11 -8 0 -14 6 -14 12 0 7 -12 24
-26 39 -23 23 -44 84 -25 72 4 -3 16 9 26 25 20 30 40 34 40 8z m-57 -124 l33
-45 -36 -48 c-20 -26 -40 -47 -45 -47 -5 0 -24 20 -43 45 l-34 45 41 47 c23
27 43 48 46 48 3 -1 20 -21 38 -45z m203 -113 c-37 -52 -48 -57 -71 -31 -11
13 -29 38 -40 56 l-21 31 32 46 32 45 44 -59 45 -60 -21 -28z m-987 16 c-4
-13 -1 -16 10 -12 14 6 21 -5 17 -28 0 -4 5 -5 12 -3 15 5 93 -114 89 -135 -2
-12 -1 -12 6 -2 7 11 11 11 19 0 11 -14 0 -58 -14 -58 -5 0 -26 -15 -48 -34
-22 -19 -44 -32 -49 -29 -5 3 -6 1 -2 -5 5 -9 -28 -42 -44 -42 -3 0 -5 87 -5
194 0 107 3 189 7 183 4 -7 5 -20 2 -29z m1621 -81 c-1 -161 -3 -197 -13 -197
-8 0 -24 12 -69 50 -7 6 -13 8 -13 3 0 -4 -6 1 -13 11 -7 9 -17 16 -22 15 -6
-2 -29 9 -52 25 l-41 28 36 37 c34 35 77 65 94 66 3 0 10 4 15 9 5 5 3 6 -4 2
-16 -9 -17 6 -1 22 16 16 31 15 22 0 -4 -7 -4 -10 0 -6 4 3 7 10 6 13 -1 4 11
16 27 26 15 10 28 19 28 19 0 0 0 -55 0 -123z m-928 38 c28 -23 28 -24 8 -40
-11 -9 -13 -13 -5 -9 13 7 13 5 1 -9 -7 -9 -17 -14 -22 -11 -5 3 -9 -2 -9 -10
0 -9 -5 -16 -11 -16 -5 0 -8 -4 -5 -9 4 -5 -2 -8 -11 -6 -10 2 -21 4 -25 4 -5
1 -7 5 -5 10 1 5 -9 18 -21 29 -14 13 -21 26 -16 33 5 9 2 10 -10 6 -10 -4 -1
11 20 33 40 42 49 48 39 28 -3 -7 2 -2 11 11 l18 23 8 -21 c4 -12 20 -32 35
-46z m156 28 c-4 -9 0 -11 13 -6 12 4 15 3 10 -5 -4 -7 -1 -15 8 -18 8 -3 13
-14 11 -25 -2 -11 0 -17 6 -14 5 4 14 3 20 -1 6 -4 -5 -21 -30 -44 -23 -21
-41 -44 -41 -52 0 -7 -11 1 -25 17 -13 17 -29 35 -34 41 -5 7 -7 15 -4 18 10
10 11 46 1 40 -4 -3 -8 2 -8 10 0 9 4 16 8 16 5 0 15 11 22 25 10 19 16 22 27
13 11 -9 12 -7 7 8 -4 15 -4 16 4 5 6 -8 8 -20 5 -28z m182 -3 c-3 -5 1 -10 9
-10 10 0 13 -7 11 -21 -3 -12 -2 -19 2 -16 10 11 35 -23 29 -40 -6 -14 -4 -14
10 -2 14 12 16 11 12 -6 -2 -11 -10 -19 -16 -17 -7 1 -12 -3 -12 -9 0 -13 -30
-44 -44 -44 -6 0 -25 19 -42 42 -17 24 -34 40 -37 36 -4 -3 -7 -4 -7 -1 0 3
16 22 36 42 20 20 32 36 28 36 -5 0 -2 5 6 10 19 12 23 12 15 0z m-255 -60 c7
-14 7 -20 0 -20 -5 0 -10 5 -10 11 0 5 -4 8 -8 5 -5 -3 -9 1 -9 9 0 21 14 18
27 -5z m20 -96 c27 -38 28 -43 13 -55 -9 -8 -29 -31 -44 -52 l-27 -37 -44 62
-45 62 41 53 41 53 18 -23 c10 -12 31 -41 47 -63z m-211 29 c22 -31 31 -50 25
-58 -43 -59 -80 -104 -84 -104 -3 0 -21 23 -41 52 l-37 53 45 52 c25 29 48 52
51 52 4 -1 22 -22 41 -47z m730 -135 l-22 -31 -28 34 c-16 19 -29 40 -29 46 0
7 21 39 48 72 l47 60 3 -75 c2 -64 0 -79 -19 -106z m-335 107 l38 -54 -38 -46
c-21 -25 -41 -45 -44 -45 -3 0 -15 15 -27 33 -13 17 -30 42 -39 54 -15 21 -14
24 22 68 21 25 41 45 44 45 4 0 24 -25 44 -55z m-702 -50 l56 -81 -32 -34
c-17 -19 -46 -53 -64 -75 l-32 -40 0 165 c0 90 4 160 8 155 5 -6 34 -46 64
-90z m918 -7 c0 -6 -60 -80 -72 -88 -4 -3 -23 17 -42 44 l-35 49 37 45 36 44
38 -43 c20 -24 38 -47 38 -51z m296 -9 c71 -44 130 -83 131 -87 1 -4 -44 -35
-100 -69 -56 -35 -117 -72 -134 -84 l-33 -21 0 171 c0 94 2 171 4 171 2 0 61
-36 132 -81z m-1061 11 c-3 -5 1 -10 9 -10 10 0 13 -7 11 -21 -3 -15 0 -19 11
-15 9 3 12 1 9 -4 -3 -6 -1 -10 5 -10 6 0 8 -4 5 -10 -3 -5 1 -10 9 -10 15 0
18 -19 5 -30 -3 -3 -13 -16 -22 -30 -9 -13 -17 -19 -17 -12 0 7 -5 10 -10 7
-8 -5 -7 -12 1 -23 7 -10 -2 -1 -19 18 -17 19 -38 42 -45 50 -18 19 -8 48 24
66 13 7 18 13 10 14 -11 0 -11 3 -1 15 14 17 24 20 15 5z m-245 -247 l0 -246
-100 154 c-55 85 -99 160 -98 166 2 10 183 169 196 172 1 1 2 -110 2 -246z
m463 229 c-2 -7 2 -12 9 -12 6 0 9 -2 6 -6 -9 -8 46 -61 57 -55 15 7 -14 -29
-52 -65 -18 -18 -33 -37 -33 -44 0 -8 -8 -4 -17 8 -47 54 -53 63 -53 72 0 6
-4 10 -9 10 -6 0 -4 12 3 26 8 14 17 25 21 24 5 -1 14 13 21 30 10 22 19 30
31 28 10 -2 17 -10 16 -16z m212 -20 c-2 -2 12 -19 31 -39 39 -40 42 -47 13
-40 -16 4 -18 3 -8 -9 8 -10 8 -14 0 -14 -6 0 -16 -10 -22 -23 -17 -37 -63
-32 -86 10 -10 18 -20 33 -24 33 -3 0 -6 7 -6 15 0 9 6 14 14 11 8 -4 11 -1 7
5 -3 6 2 19 12 29 11 11 25 26 32 35 10 12 15 13 26 3 8 -7 13 -14 11 -16z
m195 -22 c11 -11 20 -25 20 -31 0 -5 5 -7 10 -4 6 3 10 -1 10 -10 0 -10 5 -14
13 -9 6 4 -2 -6 -19 -22 -17 -16 -36 -39 -43 -52 -7 -12 -17 -20 -23 -16 -7 4
-6 9 3 15 11 7 10 9 -4 9 -10 0 -15 5 -12 10 4 6 1 9 -7 8 -7 -2 -12 3 -10 10
1 8 -2 11 -7 8 -5 -4 -12 -2 -16 4 -3 5 -2 10 4 10 6 0 7 8 4 17 -4 11 -8 12
-11 5 -2 -7 -8 -12 -14 -12 -6 0 -3 9 7 20 14 16 20 17 27 8 5 -9 8 -4 8 13 0
44 26 53 60 19z m174 9 c-2 -4 1 -11 8 -16 28 -17 40 -42 29 -55 -39 -46 -51
-62 -51 -71 0 -5 -7 -4 -15 3 -8 7 -12 17 -8 23 4 7 0 8 -12 3 -14 -5 -16 -4
-6 8 6 7 8 21 5 31 -5 13 -9 14 -15 3 -7 -11 -10 -10 -21 1 -11 11 -11 13 1 6
11 -6 13 -4 8 9 -5 14 -3 17 8 12 10 -3 15 0 15 11 0 9 7 21 16 28 18 13 46
16 38 4z m106 -51 c0 -30 -1 -31 -17 -16 -13 14 -14 20 -3 32 18 22 20 20 20
-16z m-946 -51 l37 -49 -47 -54 c-32 -38 -43 -59 -36 -66 7 -7 22 6 48 41 21
28 41 51 45 51 8 0 79 -102 79 -114 0 -5 -18 -28 -40 -52 -22 -24 -40 -48 -40
-54 0 -21 20 -9 57 35 20 25 41 44 45 43 4 -2 25 -28 46 -58 l40 -55 -51 -58
c-32 -38 -46 -62 -40 -68 6 -6 25 10 54 46 24 30 46 55 49 55 3 -1 22 -25 43
-55 l38 -55 -46 -56 c-25 -31 -45 -60 -45 -65 0 -20 20 -7 56 39 20 26 40 51
44 55 8 9 63 -70 58 -84 -2 -5 -50 -69 -108 -143 l-105 -135 -50 -6 c-59 -7
-261 -43 -290 -50 -20 -6 -20 -1 -23 397 l-2 403 67 82 c38 45 71 81 74 80 4
-1 23 -24 43 -50z m182 -26 l41 -57 -38 -44 c-21 -24 -40 -42 -42 -40 -25 33
-77 112 -77 116 0 8 63 82 70 83 3 0 23 -26 46 -58z m180 32 c8 -10 25 -35 40
-55 l26 -37 -43 -55 c-24 -31 -46 -56 -49 -56 -4 0 -69 92 -78 111 -3 6 78
109 86 109 3 0 11 -8 18 -17z m226 -38 l36 -50 -42 -57 -43 -57 -36 49 c-20
27 -37 54 -37 58 0 10 81 115 84 110 1 -2 18 -26 38 -53z m198 45 c0 -5 -5
-10 -11 -10 -5 0 -7 5 -4 10 3 6 8 10 11 10 2 0 4 -4 4 -10z m160 -479 c0
-354 -2 -432 -13 -428 -19 7 -150 27 -234 35 l-72 7 -95 134 -94 134 35 54
c20 29 37 53 39 53 1 0 24 -29 50 -65 30 -41 51 -62 57 -56 6 6 -1 24 -20 48
-16 21 -39 52 -50 68 l-21 31 42 56 43 57 53 -69 c29 -38 56 -67 61 -64 11 7
7 13 -48 86 -24 31 -43 61 -43 66 0 6 18 33 41 62 l40 51 65 -86 c36 -47 69
-83 75 -79 6 3 0 19 -14 37 -123 164 -116 144 -68 204 14 18 29 33 33 33 3 0
28 -30 54 -67 26 -38 49 -70 51 -72 2 -3 8 0 13 5 6 6 -10 36 -45 82 -44 59
-53 76 -43 86 7 7 24 29 38 49 l25 37 22 -27 23 -28 0 -434z m-182 435 c21
-29 28 -47 21 -51 -5 -4 -23 -24 -38 -46 l-28 -38 -32 40 -33 40 38 49 c21 28
39 50 39 50 1 0 16 -20 33 -44z m462 -128 c-1 -142 -2 -161 -15 -144 -8 10
-19 15 -26 10 -9 -5 -10 -2 -6 9 4 12 2 14 -10 10 -10 -4 -14 -2 -10 4 4 6 0
14 -9 17 -8 3 -13 10 -10 15 3 5 -1 8 -9 7 -7 0 -15 4 -16 9 -5 17 -37 47 -46
43 -4 -2 -21 9 -38 25 -16 16 -24 26 -17 23 7 -4 12 -1 12 8 0 9 6 16 14 16 8
0 16 3 18 8 5 11 80 58 106 66 12 4 22 12 22 17 0 6 5 7 10 4 6 -3 10 -1 10 4
0 6 5 11 10 11 6 0 10 -61 10 -162z m-1610 43 c0 -5 16 -28 35 -51 19 -23 35
-48 35 -56 0 -16 6 -24 68 -94 l42 -47 -24 -17 c-14 -9 -29 -16 -35 -16 -5 0
-12 -7 -15 -16 -3 -9 -11 -12 -18 -8 -7 4 -10 4 -6 -1 10 -11 -52 -56 -65 -48
-6 3 -7 1 -3 -5 4 -7 1 -12 -9 -12 -10 0 -13 -5 -9 -12 4 -7 3 -10 -1 -6 -5 5
-9 84 -9 177 -1 93 2 164 6 158 6 -9 8 -9 8 0 0 6 -5 15 -11 19 -8 4 -7 9 2
15 10 6 11 9 2 9 -7 0 -13 5 -13 10 0 6 5 10 10 10 6 0 10 -4 10 -9z m1070
-38 c0 -2 -6 -1 -12 4 -19 11 -39 13 -32 2 3 -5 9 -7 12 -5 4 2 18 -4 32 -14
l24 -18 -41 -41 c-27 -26 -44 -36 -47 -28 -4 7 -4 -1 -1 -16 4 -19 2 -26 -5
-22 -5 3 -10 13 -10 21 0 8 -6 14 -14 14 -13 0 -28 22 -30 45 -2 15 26 45 41
45 7 0 12 3 11 8 -1 4 3 17 10 29 l12 22 25 -21 c14 -12 25 -23 25 -25z m-433
17 c3 -11 9 -18 13 -15 4 3 13 -9 20 -25 7 -17 17 -33 23 -37 6 -4 7 -1 2 7
-6 9 -4 11 4 5 11 -6 -7 -36 -40 -65 -3 -3 -8 -13 -12 -22 -8 -22 -23 -23 -30
-4 -4 11 -1 13 11 10 10 -3 7 0 -5 8 -12 7 -23 18 -25 23 -1 6 -13 20 -25 31
-13 12 -23 24 -23 27 0 10 64 77 73 77 5 0 11 -9 14 -20z m209 0 c8 0 14 -7
14 -15 0 -8 4 -15 10 -15 5 0 16 -13 24 -29 14 -26 14 -30 1 -41 -13 -11 -14
-10 -9 6 6 18 5 17 -9 -1 -9 -11 -17 -25 -17 -31 0 -6 -9 -19 -20 -29 -11 -10
-17 -22 -14 -26 3 -5 3 -9 0 -9 -9 0 -40 64 -38 76 1 6 -4 11 -13 11 -8 0 -11
-5 -8 -10 4 -6 1 -7 -6 -3 -7 5 -10 14 -7 22 3 9 0 11 -11 7 -14 -5 -13 -2 3
19 14 19 22 23 32 16 9 -8 11 -7 7 4 -3 8 5 26 17 39 13 14 25 22 26 17 2 -4
10 -8 18 -8z m673 -140 c55 -47 100 -88 100 -91 1 -5 -205 -106 -256 -126 -10
-4 -13 35 -13 177 l0 182 34 -29 c19 -15 80 -66 135 -113z m-752 -116 c-20
-25 -38 -46 -40 -47 -6 -2 -77 99 -77 109 0 4 16 27 36 51 l36 44 40 -56 40
-56 -35 -45z m187 115 l27 -40 -41 -55 c-22 -30 -44 -54 -48 -54 -4 1 -19 19
-34 40 l-28 40 43 54 c23 30 45 55 48 55 4 1 18 -17 33 -40z m-89 -153 c16
-22 24 -36 17 -32 -9 5 -35 -26 -37 -45 0 -9 -33 -39 -42 -39 -4 1 -20 19 -36
41 -23 33 -25 42 -15 59 7 11 19 20 27 20 8 0 12 3 8 6 -3 4 4 15 16 25 12 9
24 15 28 11 3 -4 18 -25 34 -46z m-685 -182 l0 -217 -100 143 -99 144 61 45
c33 25 75 58 92 73 17 15 34 28 39 28 4 0 7 -97 7 -216z m1435 67 c0 -130 -1
-138 -18 -129 -10 5 -14 14 -11 20 4 6 3 8 -4 4 -6 -3 -18 1 -26 10 -9 8 -16
13 -16 10 0 -4 -13 6 -30 20 -16 15 -27 31 -23 37 3 6 2 7 -4 4 -12 -8 -65 27
-56 37 4 4 0 4 -9 1 -11 -5 -16 -2 -14 9 1 8 29 29 62 46 68 34 67 34 59 18
-4 -7 -1 -6 7 2 7 8 29 23 48 32 19 9 35 17 35 17 0 1 0 -62 0 -138z m-77
-117 c39 -30 72 -59 72 -64 0 -5 -9 -11 -19 -15 -17 -5 -128 -73 -213 -129
l-28 -18 0 187 0 187 58 -47 c31 -25 90 -71 130 -101z m-646 -59 l87 -125 -52
0 -53 0 -34 70 c-19 38 -37 69 -40 70 -3 0 -22 -31 -42 -69 l-37 -68 -58 -5
c-32 -3 -59 -4 -61 -3 -2 2 27 40 63 86 36 45 80 102 97 126 17 24 34 43 37
43 3 -1 45 -57 93 -125z m-889 102 c-3 -5 -1 -12 5 -16 11 -7 82 -107 82 -116
0 -7 15 -26 47 -61 12 -13 17 -24 12 -24 -6 0 -25 -10 -42 -22 -17 -12 -37
-23 -43 -24 -7 -1 -20 -7 -31 -14 -17 -11 -17 -11 0 -6 11 3 15 2 12 -4 -3 -6
-15 -10 -26 -10 -13 0 -18 -4 -13 -12 5 -10 4 -10 -5 -2 -14 13 -26 220 -13
228 5 3 6 25 2 49 -5 32 -3 44 6 44 7 0 10 -5 7 -10z m1615 -237 c1 -71 -3
-108 -9 -104 -6 3 -20 7 -32 9 -12 2 -56 13 -97 25 -41 12 -84 21 -95 21 -16
0 -17 2 -5 9 8 5 18 6 22 4 4 -3 8 0 8 5 0 6 7 11 15 11 7 0 19 8 24 18 6 9
11 14 11 9 0 -8 80 41 91 56 3 5 12 9 20 10 8 2 15 6 16 11 1 7 22 25 29 26 1
0 1 -50 2 -110z m-811 73 c-4 -3 1 -11 10 -18 21 -16 10 -44 -16 -42 -11 0
-17 5 -14 10 3 5 -5 6 -18 3 -13 -3 -18 -3 -11 0 6 3 9 11 6 16 -5 7 -2 8 6 3
10 -6 12 -4 7 9 -4 10 -3 15 3 11 6 -3 10 -1 10 4 0 6 5 11 12 11 6 0 8 -3 5
-7z m-629 -139 c-3 -2 -40 -14 -84 -27 -43 -13 -87 -27 -96 -32 -10 -4 -18 -3
-18 1 0 5 44 36 98 69 l97 60 3 -33 c2 -19 2 -36 0 -38z m1560 -65 c-20 -11
-24 -29 -7 -29 5 0 7 5 4 10 -3 6 -1 10 5 10 13 0 8 -22 -6 -27 -5 -1 -16 2
-24 7 -13 9 -12 12 4 25 11 8 25 15 30 15 6 0 3 -5 -6 -11z m-1935 -108 c4
-16 -9 -19 -42 -12 -2 1 2 7 8 14 6 8 8 17 4 21 -4 4 0 4 9 1 9 -4 18 -14 21
-24z m2756 -354 c12 -10 13 -9 6 2 -6 10 -4 12 4 7 7 -5 10 -14 7 -22 -3 -8 0
-13 6 -11 6 1 14 -11 19 -27 6 -23 3 -32 -17 -51 -24 -22 -64 -30 -64 -13 0 4
-7 5 -15 2 -9 -4 -15 0 -15 10 0 9 -4 16 -10 16 -17 0 -12 72 6 84 21 16 55
17 73 3z m-3754 -378 c-4 -5 1 -9 9 -9 9 0 16 -7 16 -16 0 -8 4 -13 9 -10 15
10 3 -41 -15 -63 -25 -29 -94 -30 -101 -1 -3 11 -9 18 -13 15 -17 -11 -1 60
18 75 21 18 87 26 77 9z m-228 -539 c26 -56 37 -90 30 -90 -7 0 -45 -16 -85
-35 l-72 -34 -14 32 c-7 18 -23 52 -34 77 -25 54 -29 67 -20 70 4 1 37 17 75
36 37 18 70 33 73 33 3 0 24 -40 47 -89z m4624 35 c10 -10 15 -24 12 -33 -5
-10 -3 -13 6 -8 7 5 3 -10 -8 -33 -16 -30 -27 -41 -44 -40 -23 1 -78 16 -64
18 4 1 1 11 -7 24 -16 24 -11 71 7 60 6 -4 8 0 5 8 -9 23 69 25 93 4z m-4847
-28 c-2 -7 12 -48 32 -91 30 -65 33 -81 22 -91 -16 -15 -157 -80 -162 -74 -13
14 -75 174 -69 177 8 3 176 88 180 90 1 1 0 -4 -3 -11z m324 -202 l42 -86 -86
-39 c-47 -22 -88 -40 -92 -40 -4 0 -22 35 -40 78 -18 42 -35 82 -38 88 -4 9
134 81 161 83 6 1 30 -37 53 -84z m-208 -82 c19 -43 35 -82 35 -86 0 -5 -37
-26 -83 -47 l-83 -39 -16 37 c-8 20 -24 56 -34 79 -10 23 -19 46 -19 50 0 5
25 20 56 33 31 14 66 30 78 37 12 6 23 11 26 12 3 1 21 -34 40 -76z m-146
-776 c3 3 6 1 6 -6 0 -7 5 -9 10 -6 6 3 10 -3 10 -15 0 -12 4 -18 10 -15 6 3
7 -1 4 -9 -3 -9 -10 -16 -15 -16 -5 0 -9 -8 -9 -19 0 -23 -25 -47 -35 -31 -3
5 -12 10 -18 10 -7 0 -6 -4 3 -10 13 -8 13 -10 -2 -10 -31 0 -47 12 -58 45
-14 44 10 89 43 79 14 -4 17 -3 12 6 -6 9 -3 9 12 1 11 -6 23 -7 27 -4z m196
-937 c0 -5 5 -10 11 -10 5 0 7 6 4 13 -4 6 0 3 9 -8 8 -11 20 -25 26 -32 6 -8
6 -14 0 -18 -6 -4 -8 -10 -5 -15 7 -12 -4 -36 -18 -39 -80 -12 -108 1 -99 46
4 20 2 24 -9 18 -8 -5 -5 1 5 13 11 12 15 22 10 22 -5 0 -2 5 6 10 20 13 60
13 60 0z m3940 -620 c94 -17 90 -14 81 -52 -5 -18 -14 -58 -20 -89 l-12 -56
-62 13 c-34 7 -74 13 -89 14 -15 0 -29 4 -32 9 -3 4 2 47 11 95 16 79 19 87
38 82 11 -2 49 -10 85 -16z m275 -110 c-14 -124 -13 -122 -54 -116 -134 24
-143 27 -137 49 2 12 10 51 16 87 l11 66 86 -15 85 -16 -7 -55z m-295 -102
c30 -6 57 -13 59 -14 1 -2 -5 -44 -14 -94 -15 -73 -21 -90 -34 -86 -9 3 -43
10 -76 16 -100 19 -93 12 -78 83 7 34 13 75 13 90 0 27 2 28 38 23 20 -4 62
-11 92 -18z m199 -33 c41 -8 75 -16 77 -17 3 -4 -26 -181 -31 -186 -2 -2 -47
4 -100 13 -68 13 -95 21 -91 30 2 7 12 52 22 99 14 72 20 86 33 81 9 -4 49
-13 90 -20z"/>
<path d="M2235 6061 c-3 -5 -2 -12 3 -15 5 -3 9 1 9 9 0 17 -3 19 -12 6z"/>
<path d="M2277 5715 c2 -7 10 -12 17 -12 7 0 13 5 13 12 0 6 -8 11 -18 11 -9
0 -15 -5 -12 -11z"/>
<path d="M2160 5600 c0 -5 7 -7 15 -4 8 4 15 8 15 10 0 2 -7 4 -15 4 -8 0 -15
-4 -15 -10z"/>
<path d="M3080 5696 c0 -2 8 -10 18 -17 15 -13 16 -12 3 4 -13 16 -21 21 -21
13z"/>
<path d="M2522 5351 c-11 -6 -10 -10 4 -15 9 -3 19 -4 22 -1 3 3 0 5 -7 5 -7
0 -9 5 -6 10 7 12 4 12 -13 1z"/>
<path d="M3446 5488 c3 -5 10 -6 15 -3 13 9 11 12 -6 12 -8 0 -12 -4 -9 -9z"/>
<path d="M3236 5233 c-6 -14 -5 -15 5 -6 7 7 10 15 7 18 -3 3 -9 -2 -12 -12z"/>
<path d="M3127 5336 c-3 -8 2 -20 11 -28 15 -11 16 -11 4 4 -10 13 -10 17 0
20 8 3 9 6 1 11 -6 4 -13 0 -16 -7z"/>
<path d="M2824 5356 c1 -14 5 -29 9 -32 3 -3 4 6 3 20 -2 15 -6 29 -9 32 -3 4
-5 -6 -3 -20z"/>
<path d="M2996 5135 c4 -8 11 -15 16 -15 6 0 5 6 -2 15 -7 8 -14 15 -16 15 -2
0 -1 -7 2 -15z"/>
<path d="M2930 5095 c-10 -13 -11 -18 -1 -28 10 -9 11 -8 5 7 -5 12 -4 17 3
13 5 -3 10 0 10 8 0 19 -2 19 -17 0z"/>
<path d="M3885 6270 c8 -13 35 -13 55 0 11 7 5 10 -23 10 -23 0 -36 -4 -32
-10z"/>
<path d="M1986 6224 c-37 -37 -5 -91 51 -85 19 2 43 31 43 51 0 26 -27 50 -55
50 -13 0 -31 -7 -39 -16z m49 -54 c-11 -10 -18 -11 -26 -3 -7 7 -5 15 7 27 14
14 19 15 25 4 5 -8 2 -19 -6 -28z"/>
<path d="M3069 6223 c-13 -16 -12 -17 4 -4 16 13 21 21 13 21 -2 0 -10 -8 -17
-17z"/>
<path d="M2806 6112 c-3 -5 1 -9 9 -9 8 0 12 4 9 9 -3 4 -7 8 -9 8 -2 0 -6 -4
-9 -8z"/>
<path d="M3881 6101 c-25 -25 -27 -54 -5 -75 22 -23 60 -20 78 6 19 27 19 38
3 59 -21 28 -54 32 -76 10z m42 -38 c-5 -12 -3 -14 7 -8 9 5 11 4 6 -3 -7 -12
-39 -12 -43 1 -6 16 -2 28 7 22 6 -3 10 -1 10 5 0 6 4 9 10 5 5 -3 6 -13 3
-22z"/>
<path d="M1976 6014 c-23 -23 -20 -61 7 -78 29 -19 61 -11 77 19 27 51 -43
100 -84 59z m64 -39 c0 -2 -7 -1 -17 2 -10 4 -14 2 -9 -5 3 -6 1 -14 -6 -18
-7 -4 -10 -4 -6 1 4 4 0 14 -10 22 -9 8 -11 12 -4 8 6 -3 12 -1 12 5 0 8 6 8
20 0 11 -6 20 -13 20 -15z"/>
<path d="M1516 5867 c-15 -67 -28 -123 -30 -125 -2 -2 -33 2 -67 7 -35 6 -79
14 -96 17 -24 3 -33 1 -33 -9 0 -11 25 -18 92 -26 51 -7 94 -14 96 -16 4 -3
-28 -155 -44 -212 -5 -17 -2 -23 9 -23 10 0 20 29 36 108 12 59 24 112 26 118
3 10 53 4 188 -20 18 -4 27 -1 27 8 0 9 -28 17 -92 25 -51 7 -98 14 -104 16
-8 2 -3 41 16 124 19 87 24 121 15 125 -8 2 -21 -37 -39 -117z"/>
<path d="M1402 5914 c-17 -12 -22 -24 -20 -46 4 -40 28 -55 65 -42 38 13 45
65 11 88 -12 9 -25 16 -28 16 -3 0 -16 -7 -28 -16z m51 -50 c-3 -8 -14 -14
-25 -14 -10 0 -16 5 -13 10 3 6 1 10 -6 10 -7 0 -4 6 7 14 22 16 46 4 37 -20z"/>
<path d="M1426 5881 c-4 -5 -2 -12 3 -15 5 -4 12 -2 15 3 4 5 2 12 -3 15 -5 4
-12 2 -15 -3z"/>
<path d="M1619 5867 c-27 -14 -38 -60 -18 -83 34 -41 115 8 89 55 -16 32 -42
42 -71 28z m43 -44 c-6 -2 -10 -8 -8 -12 3 -4 -1 -8 -9 -8 -8 0 -16 6 -19 14
-4 9 3 13 22 12 15 0 21 -3 14 -6z"/>
<path d="M3883 5810 c-48 -19 -31 -100 22 -100 52 0 75 65 33 94 -25 18 -25
18 -55 6z m40 -55 c-2 -8 -10 -13 -16 -12 -17 3 -26 31 -13 39 14 9 36 -10 29
-27z"/>
<path d="M1997 5782 c-22 -24 -21 -55 1 -75 36 -32 85 -10 85 38 0 49 -54 72
-86 37z m48 -36 c12 -12 12 -15 0 -20 -10 -3 -15 1 -15 12 0 15 -2 15 -10 2
-5 -8 -10 -10 -10 -4 0 11 10 24 17 24 3 0 11 -6 18 -14z"/>
<path d="M4524 5670 l7 -110 -83 -2 c-46 -1 -91 -2 -100 -1 -10 0 -18 -7 -18
-15 0 -13 15 -14 99 -9 l98 7 6 -83 c4 -45 7 -108 7 -139 0 -45 3 -58 15 -58
15 0 15 1 0 216 l-4 61 52 7 c29 3 85 6 125 6 59 0 72 3 72 16 0 14 -13 15
-102 9 -57 -3 -113 -8 -125 -11 -23 -4 -23 -2 -24 93 -1 54 -1 104 0 111 1 6
-6 12 -15 12 -15 0 -16 -11 -10 -110z"/>
<path d="M4388 5739 c-18 -10 -24 -55 -10 -75 25 -37 92 -14 92 33 0 42 -44
65 -82 42z m52 -39 c0 -4 -6 -13 -14 -19 -11 -9 -13 -7 -13 13 0 17 4 23 13
19 8 -3 14 -9 14 -13z m-35 0 c3 -5 1 -10 -4 -10 -6 0 -11 5 -11 10 0 6 2 10
4 10 3 0 8 -4 11 -10z"/>
<path d="M4640 5730 c-11 -11 -20 -26 -20 -33 0 -24 31 -57 54 -57 26 0 56 28
56 53 0 21 -35 57 -55 57 -8 0 -24 -9 -35 -20z m53 -47 c-4 -10 -9 -11 -19 -2
-11 9 -12 15 -3 26 14 17 31 -1 22 -24z"/>
<path d="M1323 5658 c-22 -29 -22 -48 2 -75 23 -27 25 -27 52 -13 33 18 42 60
18 84 -19 19 -59 21 -72 4z m30 -30 c-5 -22 -5 -22 9 -4 13 16 16 17 21 3 7
-17 -15 -29 -38 -21 -11 5 -12 11 -4 25 13 25 18 24 12 -3z"/>
<path d="M3981 5626 c-9 -11 -9 -16 1 -22 7 -4 10 -4 6 1 -4 4 -3 14 3 22 6 7
9 13 6 13 -2 0 -10 -6 -16 -14z"/>
<path d="M1550 5610 c-11 -11 -20 -27 -20 -35 0 -19 36 -55 55 -55 19 0 55 36
55 55 0 19 -36 55 -55 55 -8 0 -24 -9 -35 -20z m56 -25 c-2 -16 -16 -35 -25
-35 -5 0 -11 10 -13 23 -3 17 0 22 18 22 12 0 21 -4 20 -10z"/>
<path d="M3867 5582 c-24 -27 -21 -59 8 -78 51 -33 104 21 71 71 -20 30 -56
33 -79 7z m50 -23 c13 -13 -6 -39 -27 -39 -7 0 -5 6 4 16 20 20 21 30 1 14
-14 -12 -22 0 -8 13 9 10 17 9 30 -4z"/>
<path d="M1993 5500 c-35 -14 -47 -47 -28 -76 29 -45 100 -20 93 34 -4 32 -36
53 -65 42z m28 -48 c-6 -2 -8 -9 -5 -15 4 -7 -1 -5 -11 5 -22 20 -11 45 12 26
10 -8 11 -14 4 -16z"/>
<path d="M4380 5440 c-11 -11 -20 -28 -20 -38 0 -24 31 -52 57 -52 23 0 53 30
53 53 0 21 -35 57 -55 57 -8 0 -24 -9 -35 -20z m54 -36 c4 -10 -2 -14 -22 -13
-15 0 -21 3 -14 6 6 2 12 9 12 14 0 6 -5 7 -12 3 -7 -4 -8 -3 -4 4 8 14 33 5
40 -14z"/>
<path d="M4654 5425 c-19 -29 -11 -60 18 -76 51 -28 103 46 58 83 -31 25 -56
23 -76 -7z m46 -48 c0 -4 -6 -2 -14 5 -8 7 -12 17 -9 22 5 8 23 -12 23 -27z
m20 17 c0 -8 -4 -12 -10 -9 -5 3 -10 10 -10 16 0 5 5 9 10 9 6 0 10 -7 10 -16z"/>
<path d="M3882 5284 c-42 -29 -19 -94 33 -94 34 0 60 41 45 69 -9 17 -39 41
-52 41 -2 0 -14 -7 -26 -16z m18 -24 c0 -5 -5 -10 -11 -10 -5 0 -7 5 -4 10 3
6 8 10 11 10 2 0 4 -4 4 -10z m36 -15 c-2 -16 -9 -19 -28 -13 -15 5 -1 28 17
28 7 0 12 -7 11 -15z"/>
<path d="M1966 5164 c-19 -18 -21 -55 -4 -72 29 -29 98 -3 98 37 0 42 -64 66
-94 35z m56 -19 c3 0 10 -4 15 -9 5 -6 2 -6 -6 -1 -10 6 -13 4 -9 -6 4 -10 -2
-15 -18 -17 -25 -2 -28 5 -18 32 3 9 11 13 18 9 6 -4 14 -8 18 -8z"/>
<path d="M3875 5025 c-25 -24 -25 -43 -2 -72 12 -16 59 -17 75 -1 16 16 15 63
0 75 -30 23 -49 23 -73 -2z m55 -40 c0 -8 -4 -17 -10 -20 -5 -3 -10 -1 -10 5
0 6 -4 8 -10 5 -11 -7 -14 18 -4 28 10 9 34 -4 34 -18z"/>
<path d="M2005 4970 c-3 -6 1 -7 9 -4 18 7 21 14 7 14 -6 0 -13 -4 -16 -10z"/>
<path d="M1964 4932 c-23 -15 -35 -51 -24 -72 25 -47 100 -28 100 26 0 35 -49
65 -76 46z m49 -28 c7 -8 -10 -44 -21 -44 -4 0 -13 10 -21 23 -13 20 -13 21 2
8 15 -12 17 -11 17 3 0 16 11 21 23 10z"/>
<path d="M3976 4932 c-3 -5 1 -9 9 -9 8 0 12 4 9 9 -3 4 -7 8 -9 8 -2 0 -6 -4
-9 -8z"/>
<path d="M3976 4832 c-3 -5 1 -9 9 -9 8 0 12 4 9 9 -3 4 -7 8 -9 8 -2 0 -6 -4
-9 -8z"/>
<path d="M3875 4780 c-22 -25 -13 -68 17 -79 54 -20 94 27 64 74 -20 30 -56
33 -81 5z m59 -26 c3 -9 1 -12 -4 -9 -6 3 -10 -1 -10 -10 0 -15 -1 -15 -16 0
-9 8 -13 22 -10 30 6 17 32 10 40 -11z"/>
<path d="M1944 4675 c-15 -23 -15 -27 0 -50 11 -17 26 -25 44 -25 35 0 52 16
52 50 0 34 -17 50 -52 50 -18 0 -33 -8 -44 -25z m62 -28 c1 -10 -5 -15 -16
-14 -10 1 -16 5 -14 9 3 4 0 8 -6 8 -6 0 -9 4 -6 9 9 14 39 6 42 -12z"/>
<path d="M1585 4589 c-4 -6 -5 -12 -2 -15 2 -3 7 2 10 11 7 17 1 20 -8 4z"/>
<path d="M2737 4393 l-148 -148 2 140 c1 77 -1 139 -4 138 -4 -2 -36 -3 -72
-3 -47 0 -65 -4 -65 -13 0 -10 15 -12 60 -9 l60 4 0 -71 0 -71 -60 0 c-49 0
-60 -3 -60 -16 0 -14 9 -16 60 -11 l60 5 -1 -53 -2 -54 -53 -7 c-71 -8 -69
-24 2 -24 47 0 55 -3 50 -16 -3 -9 -6 -38 -6 -65 l0 -49 -50 0 c-27 0 -50 -4
-50 -10 0 -5 23 -10 50 -10 l50 0 0 -50 0 -50 -37 -1 c-60 -2 -66 -3 -70 -16
-3 -9 11 -13 50 -13 35 0 57 -5 60 -12 11 -31 16 7 19 140 l3 142 150 -150
150 -150 155 155 155 155 -3 -148 -3 -148 65 1 c46 0 66 4 66 13 0 8 -18 12
-55 12 l-56 0 5 68 c2 37 5 88 5 115 l1 47 55 0 c42 0 55 3 55 15 0 12 -13 15
-55 15 l-55 0 0 60 0 60 55 0 c30 0 55 5 55 10 0 6 -25 10 -55 10 l-55 0 0 81
0 81 50 -4 c35 -2 50 1 50 10 0 8 -16 12 -44 12 -25 0 -48 5 -51 10 -19 30
-25 -3 -25 -135 0 -80 -2 -145 -5 -145 -3 0 -74 68 -157 150 -84 83 -152 150
-152 150 -1 0 -68 -66 -149 -147z m221 43 l62 -63 -67 -66 -66 -67 -63 62
c-35 34 -64 65 -64 68 0 10 119 130 128 130 4 0 36 -29 70 -64z m-153 -155
l67 -64 -70 -70 -70 -70 -70 71 -69 70 66 66 c36 36 69 65 73 64 3 -2 36 -32
73 -67z m310 0 l67 -64 -70 -69 -69 -70 -29 30 c-16 16 -47 48 -69 71 l-39 41
64 65 c36 36 68 64 71 63 4 -2 37 -32 74 -67z m-101 -223 c-3 -5 -10 -5 -16
-2 -6 4 -8 2 -5 -3 4 -6 -19 -36 -50 -66 l-58 -56 -62 62 c-58 57 -74 86 -44
79 7 -1 10 2 7 7 -3 5 8 23 26 40 26 25 34 29 47 18 14 -10 14 -10 4 4 -10 12
-9 20 5 37 17 21 17 21 84 -45 37 -37 65 -70 62 -75z"/>
<path d="M2866 4462 c-3 -5 1 -9 9 -9 8 0 12 4 9 9 -3 4 -7 8 -9 8 -2 0 -6 -4
-9 -8z"/>
<path d="M4257 4289 c7 -7 15 -10 18 -7 3 3 -2 9 -12 12 -14 6 -15 5 -6 -5z"/>
<path d="M1586 4212 c-3 -5 1 -9 9 -9 8 0 12 4 9 9 -3 4 -7 8 -9 8 -2 0 -6 -4
-9 -8z"/>
<path d="M2294 4069 c-3 -6 -2 -15 3 -20 5 -5 9 -1 9 11 0 23 -2 24 -12 9z"/>
<path d="M3220 4021 c0 -5 25 -11 55 -13 39 -2 55 1 55 10 0 8 -18 12 -55 12
-30 0 -55 -4 -55 -9z"/>
<path d="M676 3981 c-3 -4 4 -7 14 -6 27 2 33 10 10 12 -11 1 -22 -2 -24 -6z"/>
<path d="M1570 3901 c0 -6 4 -13 10 -16 6 -3 7 1 4 9 -7 18 -14 21 -14 7z"/>
<path d="M4756 3888 c3 -5 10 -6 15 -3 13 9 11 12 -6 12 -8 0 -12 -4 -9 -9z"/>
<path d="M2700 3809 c-339 -42 -651 -151 -890 -310 -133 -88 -296 -254 -389
-394 -162 -244 -285 -573 -327 -872 -28 -200 -5 -603 33 -603 11 0 14 6 9 23
-3 12 -9 49 -12 82 l-5 60 133 158 133 157 7 -162 c8 -175 17 -239 33 -238 11
1 11 10 1 99 -8 59 -7 63 10 57 11 -3 60 -10 109 -16 238 -27 331 -39 348 -46
17 -6 17 -2 10 47 -4 30 -7 113 -6 184 1 103 6 150 26 227 45 172 132 324 262
454 128 128 269 213 433 259 85 24 218 45 240 37 9 -3 12 -55 12 -178 l0 -174
-151 0 c-116 0 -150 -3 -146 -12 3 -10 42 -13 151 -13 l147 0 -3 -139 -3 -138
-152 1 c-132 2 -153 0 -153 -14 0 -13 22 -15 155 -15 l155 0 0 -140 0 -140
-145 0 c-90 0 -145 -4 -145 -10 0 -6 55 -10 145 -10 l145 0 0 -240 c0 -153 4
-240 10 -240 6 0 10 87 10 240 l0 240 170 0 c107 0 170 4 170 10 0 6 -63 10
-170 10 l-170 0 0 140 0 140 155 0 c134 0 155 2 155 16 0 13 -20 15 -152 13
l-153 -2 -3 139 -3 139 156 -3 c136 -3 155 -1 155 12 0 14 -21 16 -155 16
l-155 0 0 180 0 181 63 -6 c259 -25 467 -119 637 -285 166 -164 257 -338 296
-572 46 -277 -48 -595 -237 -802 -27 -30 -49 -57 -49 -60 0 -14 30 -5 42 13
14 19 17 19 129 3 l116 -17 83 -88 c94 -100 95 -80 -4 -184 -36 -38 -47 -56
-39 -64 7 -7 23 5 56 42 l46 52 143 -73 c79 -40 146 -76 150 -79 4 -4 -28 -46
-72 -93 -53 -57 -76 -89 -69 -94 13 -7 21 1 188 189 107 121 115 132 177 244
79 144 142 349 163 528 64 569 -48 1012 -366 1443 -283 382 -642 604 -1103
682 -87 15 -446 21 -540 9z m20 -29 c15 10 414 12 437 3 19 -7 -4 -32 -62 -69
-25 -15 -42 -30 -40 -33 9 -8 -37 -51 -48 -44 -6 4 -7 1 -2 -7 6 -10 4 -12
-11 -6 -10 4 -15 4 -11 0 7 -8 -66 -75 -93 -86 -12 -4 -24 3 -41 25 -13 16
-35 42 -49 55 -14 14 -20 22 -14 19 6 -3 11 0 11 7 0 8 -6 12 -14 9 -8 -3 -13
2 -13 12 0 9 -9 19 -21 22 -12 4 -18 11 -15 20 3 8 2 12 -2 9 -11 -7 -46 34
-49 58 -3 14 0 16 10 8 8 -7 18 -7 27 -2z m24 -135 c64 -74 116 -137 116 -140
0 -3 -19 -5 -42 -5 -96 -1 -333 -45 -406 -76 -52 -21 -56 -17 -25 24 16 20 69
96 118 167 80 119 114 165 120 165 2 0 55 -61 119 -135z m551 3 c38 -68 86
-152 107 -187 21 -35 37 -66 34 -68 -2 -3 -18 3 -34 11 -74 38 -297 85 -468
99 -31 2 -29 5 78 97 61 52 129 112 152 132 22 20 46 37 51 38 6 0 42 -55 80
-122z m26 108 c5 3 9 0 9 -6 0 -7 6 -10 14 -7 7 3 31 1 52 -4 22 -5 44 -11 51
-12 7 -2 16 -6 19 -10 4 -4 18 -7 30 -7 13 0 26 -5 29 -11 4 -6 14 -8 22 -5 8
3 12 2 9 -3 -3 -5 1 -12 10 -15 8 -3 12 -2 9 4 -3 6 1 7 9 4 9 -3 13 -10 10
-15 -3 -5 4 -9 14 -9 28 0 84 -25 75 -34 -4 -4 0 -4 10 0 9 3 17 1 17 -5 0 -6
7 -8 17 -4 12 5 14 3 8 -7 -6 -10 -4 -12 11 -6 10 4 15 4 11 0 -4 -4 15 -17
41 -29 l47 -23 -30 -11 c-16 -6 -39 -16 -51 -22 -11 -6 -31 -12 -45 -14 -13
-1 -42 -10 -63 -20 -22 -9 -49 -19 -60 -21 -12 -2 -22 -8 -24 -14 -2 -5 -17
-10 -32 -10 -16 0 -32 -5 -35 -11 -4 -6 -14 -8 -22 -5 -8 3 -11 1 -8 -4 3 -6
1 -10 -5 -10 -7 0 -14 9 -17 20 -3 11 -8 20 -12 20 -3 0 -12 9 -19 21 -9 13
-9 18 -2 14 7 -5 7 1 -2 16 -7 13 -19 28 -26 32 -7 5 -10 12 -7 18 4 5 2 9 -3
9 -6 0 -13 11 -16 25 -4 14 -10 25 -15 25 -5 0 -14 15 -22 33 -7 17 -22 44
-32 59 -11 14 -16 31 -12 37 3 6 1 10 -6 9 -6 -2 -14 3 -16 10 -4 9 1 10 22 2
15 -6 31 -8 36 -4z m-766 -5 c3 -6 -3 -14 -12 -20 -10 -6 -14 -11 -9 -11 5 0
-3 -9 -18 -21 -14 -11 -26 -25 -26 -32 0 -6 7 -2 15 9 8 10 15 14 15 9 0 -6
-11 -22 -25 -37 -14 -15 -25 -32 -25 -37 0 -5 -10 -17 -22 -25 -12 -9 -19 -19
-15 -22 4 -4 -2 -14 -13 -21 -11 -8 -18 -19 -15 -24 4 -5 2 -9 -4 -9 -5 0 -13
-9 -16 -20 -4 -11 -11 -18 -16 -15 -8 5 -13 -15 -10 -37 0 -3 -14 -2 -32 4
-17 5 -40 10 -49 10 -10 -1 -18 3 -18 7 0 4 -6 8 -12 9 -7 0 -31 7 -53 16 -22
8 -48 15 -58 16 -11 0 -15 4 -11 12 4 7 3 8 -5 4 -6 -4 -18 -3 -26 4 -7 6 -24
13 -37 14 -42 6 -68 18 -68 32 0 8 7 14 15 14 7 0 18 6 22 14 4 8 19 16 33 18
14 2 39 12 57 21 18 9 41 17 53 17 11 0 20 4 20 9 0 7 43 22 75 25 6 1 24 7
40 13 51 20 133 35 146 27 8 -4 9 -3 5 5 -6 9 0 10 21 6 20 -5 24 -4 14 3 -11
8 -9 11 10 15 41 8 48 7 54 -2z m-649 -250 c0 -17 -4 -27 -10 -24 -5 4 -7 -1
-3 -11 4 -9 0 -51 -8 -94 -8 -42 -16 -89 -17 -104 -1 -16 -5 -28 -8 -28 -3 0
-6 -13 -7 -30 -7 -78 -7 -80 -38 -88 -16 -5 -84 -10 -150 -11 -66 -1 -138 -3
-159 -4 -51 -2 -56 14 -14 56 18 18 44 47 58 64 74 90 101 114 115 103 11 -9
13 -7 9 14 -3 18 0 26 10 26 8 0 21 8 28 18 7 11 24 25 38 32 14 7 30 20 36
28 6 8 35 30 65 48 30 18 54 33 55 33 0 1 0 -12 0 -28z m120 10 c33 -11 117
-40 187 -64 l128 -45 -105 -50 c-119 -57 -233 -130 -321 -206 -32 -28 -56 -43
-52 -33 6 15 45 230 64 347 7 41 20 70 32 70 5 0 35 -9 67 -19z m1852 -4 c6
-7 22 -104 36 -217 15 -113 28 -211 31 -217 8 -23 -7 -13 -78 53 -88 81 -204
159 -320 215 l-89 42 194 68 c106 37 198 68 204 68 6 1 16 -5 22 -12z m76 -37
c4 1 35 -20 69 -48 65 -52 161 -142 153 -142 -3 0 5 -10 17 -23 40 -42 85 -97
80 -97 -3 0 5 -9 18 -21 13 -11 18 -18 12 -14 -7 3 -13 1 -13 -4 0 -6 6 -11
14 -11 8 0 16 -6 19 -14 8 -20 -18 -24 -175 -24 -76 0 -146 -3 -156 -6 -11 -4
-19 -1 -20 6 -1 7 -4 38 -7 68 -3 30 -10 78 -15 105 -9 50 -19 131 -24 195 -4
40 3 58 14 40 4 -6 10 -11 14 -10z m-1290 -165 c-58 -88 -109 -164 -114 -168
-9 -10 -93 30 -88 43 2 5 30 67 63 139 l60 129 90 14 c50 7 91 11 93 8 1 -3
-45 -78 -104 -165z m276 169 c0 -3 -66 -96 -146 -205 l-146 -199 -39 20 c-21
11 -39 23 -39 25 0 3 54 86 120 185 l120 180 65 0 c36 0 65 -3 65 -6z m52 -69
c18 -55 121 -349 133 -379 7 -16 5 -17 -16 -11 -13 4 -46 10 -73 14 l-50 6
-51 158 -51 159 38 51 c21 28 38 55 38 61 0 21 17 -10 32 -59z m114 54 c56
-10 62 -13 67 -37 2 -15 32 -125 66 -245 33 -120 61 -220 61 -223 0 -2 -8 0
-17 6 -10 6 -43 19 -73 29 l-55 18 -77 224 c-43 123 -78 227 -78 231 0 11 32
10 106 -3z m-604 -136 c-33 -65 -61 -123 -63 -128 -2 -6 -23 0 -50 15 l-46 25
41 85 41 85 55 16 c30 10 61 17 68 18 7 1 -13 -50 -46 -116z m784 95 c46 -12
84 -24 84 -28 -1 -10 -130 -145 -130 -135 0 6 -11 49 -24 98 -13 48 -22 87
-19 87 3 0 43 -10 89 -22z m-928 -95 c-18 -38 -34 -70 -35 -72 -3 -6 -113 53
-113 60 0 6 158 78 172 79 4 0 -7 -30 -24 -67z m1107 33 c30 -14 55 -28 55
-31 0 -4 -35 -43 -79 -88 -43 -45 -93 -99 -111 -120 -18 -21 -34 -36 -37 -34
-2 3 -12 35 -23 73 l-20 69 77 77 c43 43 79 78 80 78 1 0 27 -11 58 -24z
m-550 -177 c25 -73 45 -136 45 -139 0 -3 -21 -3 -47 -1 l-48 4 -42 84 -43 84
41 55 c23 30 44 53 46 51 2 -2 24 -64 48 -138z m693 106 c28 -16 51 -33 49
-36 -1 -3 -69 -69 -152 -145 -82 -76 -155 -145 -162 -154 -13 -17 -11 -20 -32
58 l-12 43 123 134 c68 73 125 132 128 132 3 -1 29 -15 58 -32z m-1113 -159
c99 -53 184 -96 188 -96 5 0 5 -4 2 -10 -3 -5 -15 -10 -26 -10 -11 0 -45 -9
-76 -20 -50 -17 -58 -18 -82 -5 -14 8 -126 62 -249 119 l-223 104 73 45 73 45
70 -38 c39 -21 151 -81 250 -134z m1148 -120 l-154 -154 -64 37 c-36 20 -65
39 -65 42 0 3 46 48 102 100 56 52 129 119 162 151 l61 56 56 -39 56 -40 -154
-153z m-1543 142 c69 -33 162 -77 328 -153 34 -16 62 -31 62 -34 0 -4 -15 -12
-32 -20 -18 -8 -43 -19 -55 -24 -17 -7 -47 2 -145 43 -67 29 -130 59 -139 69
-21 21 -112 164 -102 159 5 -1 42 -20 83 -40z m740 -109 c1 -12 -119 -10 -142
3 -13 7 -24 14 -26 14 -2 1 18 32 45 68 l48 66 37 -73 c20 -39 37 -75 38 -78z
m-726 -55 l119 -186 -37 -35 c-20 -19 -40 -33 -43 -30 -3 4 -60 89 -127 190
l-122 185 36 30 c19 17 40 31 45 31 6 1 64 -83 129 -185z m1774 93 l24 -25
-74 -11 c-40 -7 -89 -14 -108 -17 l-35 -5 59 60 59 60 26 -19 c14 -10 36 -29
49 -43z m-2104 -60 c-80 -85 -170 -208 -210 -289 -30 -60 -44 -72 -44 -38 0
12 -20 97 -44 190 -35 132 -42 172 -33 184 10 12 39 16 142 19 72 1 159 4 194
5 l64 2 -69 -73z m225 -111 c62 -93 110 -170 107 -173 -2 -2 -30 -1 -62 3
l-59 7 -97 131 -97 131 41 42 c23 24 45 40 49 35 3 -4 56 -83 118 -176z m-593
118 c-4 -14 -3 -23 2 -20 5 3 9 0 10 -7 3 -26 23 -123 29 -137 7 -17 12 -36
18 -65 13 -59 32 -114 45 -130 13 -17 13 -18 -1 -13 -9 3 -29 0 -45 -7 -88
-39 -141 -58 -157 -57 -9 0 -15 -3 -12 -8 3 -4 -2 -11 -11 -14 -10 -4 -13 -2
-8 7 4 6 -2 4 -13 -6 -11 -10 -35 -22 -53 -27 -28 -8 -31 -7 -25 8 4 9 17 44
28 77 11 33 27 68 35 78 8 9 13 20 9 23 -11 11 52 162 108 256 22 37 42 68 44
68 2 0 0 -12 -3 -26z m2957 12 c5 -13 -124 -406 -133 -405 -3 0 -17 26 -33 59
-37 79 -113 193 -181 273 -31 37 -56 69 -56 71 0 3 64 7 143 9 78 1 167 4 198
5 40 1 58 -2 62 -12z m-389 -58 c27 -30 41 -54 34 -55 -7 -1 -105 -14 -218
-28 -113 -14 -218 -28 -235 -31 -28 -5 -25 -1 38 63 l67 68 118 16 c64 9 125
17 134 18 9 0 37 -23 62 -51z m-2105 -118 l90 -120 -42 1 c-95 1 -112 9 -167
82 l-51 69 33 44 c18 24 36 44 40 44 4 0 48 -54 97 -120z m366 80 c50 -22 96
-40 103 -40 6 0 12 -4 12 -10 0 -5 -4 -10 -9 -10 -5 0 -30 -15 -55 -34 l-45
-35 -50 80 c-48 75 -55 89 -48 89 2 0 43 -18 92 -40z m2161 24 c-3 -8 -2 -13
3 -10 12 7 34 -20 27 -33 -3 -5 0 -11 7 -14 17 -7 101 -176 99 -201 0 -10 2
-16 5 -12 13 13 31 -28 21 -48 -7 -12 -7 -16 0 -12 13 8 19 -2 26 -35 2 -13 9
-36 14 -50 6 -15 8 -30 5 -33 -4 -3 -1 -6 5 -6 7 0 12 -7 12 -15 0 -12 -5 -12
-39 0 -22 7 -42 11 -45 8 -3 -4 -6 -2 -6 4 0 6 -20 16 -45 23 -25 7 -45 17
-45 22 0 6 -7 7 -16 4 -8 -3 -13 -2 -10 3 3 5 -1 12 -10 15 -8 3 -13 2 -10 -3
3 -5 -11 0 -31 10 -21 11 -43 19 -50 19 -7 0 -13 4 -13 10 0 5 -8 6 -17 3 -13
-5 -15 -2 -10 11 4 10 3 15 -3 11 -15 -9 -12 7 5 31 8 12 11 24 8 28 -3 3 -1
6 4 6 6 0 14 18 18 41 8 47 49 154 67 177 8 10 9 13 1 9 -8 -5 -9 0 0 23 6 16
15 30 20 30 5 0 6 -7 3 -16z m-306 -139 c28 -41 49 -75 48 -76 -14 -3 -96 -10
-281 -24 l-218 -16 -47 45 c-26 24 -58 53 -71 64 l-24 19 114 12 c63 7 170 20
239 30 198 29 181 33 240 -54z m-2360 -15 l41 -60 -81 0 c-44 0 -80 3 -80 8 0
9 69 112 75 112 2 0 23 -27 45 -60z m354 -99 l50 -1 -30 -32 c-17 -18 -40 -47
-52 -63 l-20 -31 -89 7 c-48 4 -161 10 -251 14 -90 4 -161 10 -160 14 2 3 16
31 32 61 l28 55 221 -12 c122 -6 244 -12 271 -12z m2105 -58 c17 -34 31 -64
31 -66 0 -2 -98 -8 -219 -12 -120 -3 -225 -7 -233 -8 -9 -1 -36 26 -61 59
l-45 62 107 7 c59 4 167 12 241 19 74 7 138 10 142 7 4 -4 21 -34 37 -68z
m-2684 -40 c-53 -123 -114 -345 -115 -415 0 -21 -3 -38 -7 -37 -5 0 -59 70
-122 155 -84 114 -111 158 -103 166 10 10 325 144 346 147 4 0 5 -7 1 -16z
m2782 -33 c22 -10 109 -47 194 -81 85 -33 156 -63 158 -64 2 -2 -59 -90 -134
-195 -76 -105 -136 -193 -134 -195 2 -2 70 -71 152 -153 95 -97 147 -158 147
-171 0 -12 -6 -21 -12 -21 -7 0 -92 -35 -188 -79 -96 -43 -176 -77 -178 -76
-1 1 2 15 8 31 53 138 76 470 46 661 -18 114 -56 254 -86 316 -28 56 -29 55
27 27z m-2462 -6 c99 -4 184 -9 188 -11 5 -3 2 -12 -6 -21 -8 -10 -22 -31 -30
-48 l-16 -32 -103 -2 c-57 -1 -167 -5 -246 -8 -78 -4 -142 -4 -142 0 0 4 8 29
18 55 11 26 22 56 26 67 5 16 14 18 69 12 34 -3 143 -8 242 -12z m2234 -96
c-41 -44 -96 -107 -124 -139 -27 -32 -52 -58 -55 -58 -3 0 -15 31 -28 70 l-22
71 56 61 55 62 77 6 c42 3 85 6 96 7 12 1 -5 -24 -55 -80z m197 20 c10 -35 19
-66 19 -69 0 -7 -362 -319 -370 -319 -3 0 -5 15 -5 33 0 17 -4 49 -9 69 -8 36
-7 40 41 90 27 29 91 99 141 156 84 94 95 102 128 102 35 0 36 -1 55 -62z
m-386 5 c-24 -26 -47 -49 -50 -51 -5 -2 -50 77 -50 88 0 3 32 6 72 8 l72 3
-44 -48z m-1944 -120 l-22 -58 -113 -11 -113 -11 -91 48 c-50 27 -99 51 -109
55 -47 15 -5 21 144 23 89 1 164 4 167 6 2 3 39 5 82 5 l77 0 -22 -57z m-759
18 c-1 -3 13 -22 31 -41 18 -19 32 -39 32 -45 0 -7 11 -22 25 -35 13 -12 22
-27 19 -31 -3 -5 0 -9 6 -9 6 0 8 -5 5 -10 -4 -6 -3 -9 2 -8 4 2 8 0 8 -4 0
-3 16 -21 35 -40 19 -18 35 -37 35 -43 0 -5 -13 -19 -29 -30 -17 -11 -28 -23
-25 -26 2 -3 -8 -17 -23 -31 -15 -14 -25 -28 -21 -32 4 -4 0 -4 -10 0 -13 5
-16 2 -10 -12 4 -11 3 -15 -4 -11 -6 4 -16 -6 -22 -23 -5 -17 -16 -30 -23 -30
-7 0 -25 -21 -40 -45 -20 -33 -31 -43 -44 -38 -15 6 -16 22 -10 182 7 188 9
214 22 282 10 52 11 60 13 75 0 6 8 11 15 11 8 0 14 -3 13 -6z m700 -225 c1
-1 -1 -22 -5 -47 l-7 -45 -212 81 c-117 45 -215 83 -218 86 -3 3 2 37 11 76
l15 70 207 -110 c114 -60 208 -110 209 -111z m2442 119 c0 -26 -15 -42 -112
-121 -62 -50 -151 -124 -199 -163 l-88 -72 0 73 1 73 56 45 c31 25 116 96 187
158 l131 114 12 -39 c6 -21 12 -51 12 -68z m346 75 c3 -5 0 -10 -7 -10 -11 0
-11 -2 0 -9 8 -4 12 -14 11 -22 -2 -8 3 -43 10 -79 9 -50 22 -480 14 -480 -1
0 -39 37 -85 82 -46 45 -76 78 -68 73 13 -8 13 -6 1 8 -7 9 -16 15 -20 13 -9
-5 -60 51 -53 58 3 3 -2 6 -11 6 -10 0 -15 7 -12 19 3 15 -1 18 -12 14 -22 -9
-7 37 20 58 12 10 17 21 12 29 -5 9 -4 11 3 6 7 -4 17 7 26 29 8 19 22 38 31
41 8 3 15 10 15 16 0 5 6 16 13 23 6 8 26 32 42 54 19 25 36 38 45 35 11 -4
12 -2 3 7 -12 12 -7 39 7 39 5 0 12 -4 15 -10z m-2760 -87 c-4 -10 -9 -33 -12
-50 -3 -18 -7 -33 -9 -33 -1 0 -38 19 -81 43 l-78 42 60 6 c119 11 128 11 120
-8z m2439 -130 l7 -61 -65 26 c-36 15 -66 30 -66 33 0 4 21 24 48 45 26 21 49
43 51 48 7 16 18 -24 25 -91z m-2689 -14 l215 -82 0 -53 c0 -30 -3 -54 -7 -54
-3 0 -107 26 -231 57 l-224 56 6 45 c3 25 6 60 6 78 0 19 4 34 10 34 5 0 106
-37 225 -81z m2618 -40 l77 -31 0 -84 c0 -46 -3 -84 -7 -84 -20 0 -293 105
-291 112 3 8 130 117 138 118 3 0 40 -14 83 -31z m-2623 -120 c118 -29 216
-53 217 -54 0 0 4 -22 8 -49 7 -44 6 -48 -11 -42 -15 4 -428 56 -449 56 -3 0
-5 34 -5 76 0 56 3 74 13 71 6 -3 109 -29 227 -58z m2543 -51 l149 -53 -7 -65
c-3 -35 -8 -66 -9 -68 -2 -2 -89 31 -192 74 -104 42 -195 79 -203 82 -18 7 79
93 99 88 8 -3 82 -28 163 -58z m-68 -134 c105 -42 191 -78 193 -79 8 -6 -34
-145 -43 -142 -5 2 -99 31 -208 63 -160 47 -196 61 -191 74 3 8 13 50 22 93 9
43 21 75 27 73 5 -2 96 -39 200 -82z m-197 -139 c44 -15 51 -23 107 -112 33
-53 79 -125 102 -161 l42 -64 -22 -39 c-12 -21 -24 -39 -27 -38 -3 0 -68 84
-146 187 -130 172 -140 189 -132 215 11 32 14 32 76 12z m746 -33 c-7 -70 -15
-101 -45 -194 -17 -51 -38 -101 -47 -111 -8 -9 -12 -20 -9 -24 4 -3 7 0 7 7 0
7 2 11 5 8 9 -8 -17 -61 -39 -81 -20 -17 -20 -17 -28 3 -4 12 -19 36 -33 54
-14 18 -25 38 -25 44 0 7 -5 12 -11 12 -6 0 -8 7 -5 16 4 10 2 13 -6 8 -8 -5
-9 -2 -5 9 3 9 1 19 -5 23 -7 5 -8 2 -3 -7 4 -8 -3 -3 -16 11 -13 13 -25 28
-25 32 -1 5 -2 13 -3 19 0 5 -6 7 -13 3 -8 -5 -9 -2 -5 10 4 10 3 15 -3 11 -9
-5 -14 9 -7 18 1 2 -4 11 -11 20 -12 14 -10 17 15 23 15 4 37 13 48 20 11 8
26 14 35 14 8 0 33 12 54 26 21 15 36 22 32 15 -11 -17 10 -13 25 5 18 22 61
41 83 36 10 -2 16 0 12 6 -3 6 2 8 13 5 16 -4 18 -12 15 -41z m-569 -22 c46
-15 53 -22 92 -90 l42 -73 -25 -50 -25 -49 -38 63 c-20 35 -60 99 -89 142 -29
43 -52 81 -52 83 0 6 12 2 95 -26z m-14 -424 l-25 -38 -67 73 c-44 49 -65 79
-61 91 3 13 -1 18 -18 18 -15 0 -43 23 -84 66 -33 37 -62 70 -64 74 -2 5 11
36 28 70 l31 61 143 -188 143 -188 -26 -39z m149 383 c37 -11 38 -12 28 -43
-17 -49 -21 -48 -50 5 -16 27 -25 49 -22 49 4 0 24 -5 44 -11z m163 -202 c59
-87 107 -164 107 -172 0 -8 -10 -17 -22 -20 -109 -25 -430 -95 -437 -95 -6 0
14 32 44 71 54 73 148 245 180 332 10 26 19 46 20 45 1 -2 50 -74 108 -161z
m-592 21 c30 -34 46 -59 37 -55 -10 3 -51 9 -93 13 -41 4 -75 9 -75 11 0 7 65
92 71 93 3 0 30 -28 60 -62z m688 -262 c-7 -14 -16 -26 -21 -26 -5 0 -7 -4 -3
-9 3 -6 -4 -15 -15 -21 -11 -6 -18 -15 -15 -21 4 -5 1 -9 -5 -9 -6 0 -15 -12
-20 -26 -6 -14 -14 -22 -20 -19 -6 4 -7 -1 -3 -11 4 -11 2 -15 -4 -11 -6 4
-13 -3 -16 -14 -3 -12 -10 -18 -15 -15 -6 3 -12 0 -15 -6 -3 -10 -9 -8 -24 5
-11 9 -26 17 -35 17 -8 0 -26 9 -39 19 -14 10 -41 26 -62 35 -24 9 -36 20 -31
27 4 7 0 9 -14 5 -11 -4 -23 -2 -27 3 -4 7 1 8 11 4 13 -5 15 -3 9 7 -6 10 -4
12 8 7 10 -3 17 -2 17 2 0 5 17 11 38 14 20 2 48 8 62 12 14 3 32 7 40 7 8 1
18 6 22 12 5 8 8 7 8 -1 0 -7 5 -13 11 -13 5 0 7 5 3 11 -4 7 0 9 14 5 11 -4
23 -2 27 4 3 5 18 7 32 4 19 -5 24 -4 18 6 -5 9 -2 10 14 5 13 -4 21 -2 21 5
0 7 7 10 15 6 8 -3 15 0 15 6 0 6 2 9 5 6 3 -3 0 -17 -6 -32z"/>
<path d="M2561 3626 c-20 -24 -9 -69 19 -83 32 -16 64 3 68 41 4 35 -14 56
-48 56 -15 0 -33 -6 -39 -14z m60 -26 c5 0 9 -5 9 -11 0 -5 -4 -7 -10 -4 -5 3
-10 1 -10 -4 0 -14 -27 -14 -35 -1 -9 15 5 32 22 26 8 -3 19 -6 24 -6z"/>
<path d="M3156 3604 c-9 -8 -16 -23 -16 -33 0 -54 80 -75 102 -26 23 52 -46
100 -86 59z m57 -28 c8 -19 -20 -43 -34 -29 -12 12 -1 43 16 43 7 0 15 -6 18
-14z"/>
<path d="M1490 3150 c-9 -6 -10 -10 -3 -10 6 0 15 5 18 10 8 12 4 12 -15 0z"/>
<path d="M2008 3419 c-18 -10 -24 -55 -10 -75 25 -36 92 -14 92 31 0 44 -43
67 -82 44z m50 -42 c1 -16 -4 -23 -18 -23 -10 0 -16 4 -14 8 3 4 -1 8 -8 8 -8
1 -6 6 6 15 27 20 31 19 34 -8z"/>
<path d="M2005 3281 c-3 -5 -2 -12 3 -15 5 -3 9 1 9 9 0 17 -3 19 -12 6z"/>
<path d="M3712 3364 c-12 -8 -22 -25 -22 -38 0 -26 28 -56 53 -56 21 0 57 35
57 55 0 18 -35 55 -53 55 -7 0 -23 -7 -35 -16z m43 -32 c17 -12 14 -28 -5 -29
-22 -2 -34 12 -25 27 7 12 16 12 30 2z"/>
<path d="M3730 3319 c0 -5 5 -7 10 -4 6 3 10 8 10 11 0 2 -4 4 -10 4 -5 0 -10
-5 -10 -11z"/>
<path d="M2536 3253 c-6 -14 -5 -15 5 -6 7 7 10 15 7 18 -3 3 -9 -2 -12 -12z"/>
<path d="M3419 3133 c-13 -16 -12 -17 4 -4 9 7 17 15 17 17 0 8 -8 3 -21 -13z"/>
<path d="M3426 2943 c-6 -14 -5 -15 5 -6 7 7 10 15 7 18 -3 3 -9 -2 -12 -12z"/>
<path d="M2156 2808 c3 -5 10 -6 15 -3 13 9 11 12 -6 12 -8 0 -12 -4 -9 -9z"/>
<path d="M1547 2992 c-23 -25 -21 -55 3 -77 31 -28 74 -10 78 31 5 55 -47 84
-81 46z m53 -38 c0 -17 -27 -25 -33 -9 -7 16 -2 22 18 22 8 0 15 -6 15 -13z"/>
<path d="M4156 2924 c-36 -35 -6 -87 48 -82 23 2 33 10 40 30 18 51 -49 91
-88 52z m49 -22 c13 -9 18 -35 5 -27 -5 3 -10 0 -11 -7 0 -10 -2 -10 -6 0 -2
6 -9 10 -14 6 -11 -6 -11 -2 -3 20 7 18 14 20 29 8z"/>
<path d="M3659 2933 c-13 -16 -12 -17 4 -4 16 13 21 21 13 21 -2 0 -10 -8 -17
-17z"/>
<path d="M1339 2473 c-37 -10 -41 -71 -5 -95 32 -22 76 6 76 47 0 26 -24 56
-43 54 -7 -1 -19 -3 -28 -6z m44 -37 c3 -6 -2 -17 -9 -24 -11 -10 -14 -10 -14
0 0 9 -3 9 -10 -2 -8 -12 -10 -11 -10 6 0 11 2 23 5 26 9 9 34 5 38 -6z"/>
<path d="M4410 2370 c-24 -24 -25 -38 -4 -68 18 -27 55 -29 77 -4 23 26 21 58
-5 76 -30 21 -44 20 -68 -4z m53 -46 c-4 -10 -10 -11 -25 -3 -15 8 -17 13 -7
25 14 18 41 0 32 -22z"/>
<path d="M4422 1784 c-39 -27 -19 -94 29 -94 23 0 59 34 59 55 0 18 -35 55
-53 55 -7 0 -23 -7 -35 -16z m27 -30 c-12 -15 -11 -16 11 -11 14 4 19 4 12 1
-6 -3 -10 -9 -8 -13 3 -4 -4 -7 -14 -7 -9 0 -17 5 -16 11 2 14 16 35 23 35 3
0 -1 -7 -8 -16z"/>
<path d="M4136 2462 c-3 -5 1 -9 9 -9 8 0 12 4 9 9 -3 4 -7 8 -9 8 -2 0 -6 -4
-9 -8z"/>
<path d="M1210 2331 c0 -6 4 -13 10 -16 6 -3 7 1 4 9 -7 18 -14 21 -14 7z"/>
<path d="M4227 2289 c7 -7 15 -10 18 -7 3 3 -2 9 -12 12 -14 6 -15 5 -6 -5z"/>
<path d="M4506 2163 c-6 -14 -5 -15 5 -6 7 7 10 15 7 18 -3 3 -9 -2 -12 -12z"/>
<path d="M4010 1501 c0 -6 4 -13 10 -16 6 -3 7 1 4 9 -7 18 -14 21 -14 7z"/>
<path d="M4280 1300 c-11 -11 -20 -28 -20 -38 0 -23 30 -52 53 -52 21 0 57 35
57 55 0 8 -9 24 -20 35 -11 11 -27 20 -35 20 -8 0 -24 -9 -35 -20z m55 -33
c-1 -11 -9 -21 -18 -23 -10 -1 -14 2 -10 9 4 7 0 8 -11 4 -10 -4 -15 -3 -11 3
3 6 13 10 21 10 8 0 13 4 10 8 -3 5 1 9 8 9 7 0 12 -9 11 -20z"/>
<path d="M4118 3413 c7 -3 16 -2 19 1 4 3 -2 6 -13 5 -11 0 -14 -3 -6 -6z"/>
<path d="M1365 3119 c-4 -6 -5 -12 -2 -15 2 -3 7 2 10 11 7 17 1 20 -8 4z"/>
<path d="M4386 3117 c3 -10 9 -15 12 -12 3 3 0 11 -7 18 -10 9 -11 8 -5 -6z"/>
<path d="M1206 2897 c3 -10 9 -15 12 -12 3 3 0 11 -7 18 -10 9 -11 8 -5 -6z"/>
<path d="M2700 2840 c-11 -11 -20 -26 -20 -33 0 -24 31 -57 54 -57 26 0 56 28
56 53 0 21 -35 57 -55 57 -8 0 -24 -9 -35 -20z m56 -37 c3 -17 -1 -19 -21 -15
-31 6 -33 22 -2 22 18 0 19 2 7 11 -12 8 -12 10 -1 7 8 -2 16 -13 17 -25z"/>
<path d="M3040 2843 c-25 -18 -24 -70 2 -87 28 -17 72 4 76 37 6 49 -39 78
-78 50z m36 -22 c-4 -5 0 -12 6 -14 10 -4 9 -8 -2 -16 -18 -13 -32 -9 -38 10
-3 11 -2 11 7 -1 9 -12 11 -11 11 8 0 12 5 22 11 22 5 0 8 -4 5 -9z"/>
<path d="M3557 2699 c7 -7 15 -10 18 -7 3 3 -2 9 -12 12 -14 6 -15 5 -6 -5z"/>
<path d="M2698 2549 c-11 -6 -18 -22 -18 -41 0 -51 51 -76 83 -40 45 49 -8
115 -65 81z m39 -51 c-18 -11 -29 2 -16 18 10 12 14 12 20 2 4 -7 3 -16 -4
-20z"/>
<path d="M3032 2544 c-26 -18 -29 -56 -6 -78 40 -40 109 6 83 56 -22 41 -42
47 -77 22z m41 -39 c4 -8 2 -17 -3 -20 -6 -4 -10 -1 -10 5 0 6 -4 9 -9 5 -5
-3 -13 0 -17 6 -4 8 -3 9 4 5 7 -4 12 -2 12 3 0 16 17 13 23 -4z"/>
<path d="M2073 2525 c0 -8 4 -12 9 -9 5 3 6 10 3 15 -9 13 -12 11 -12 -6z"/>
<path d="M3686 2532 c-3 -5 1 -9 9 -9 8 0 12 4 9 9 -3 4 -7 8 -9 8 -2 0 -6 -4
-9 -8z"/>
<path d="M349 2313 c-13 -16 -12 -17 4 -4 9 7 17 15 17 17 0 8 -8 3 -21 -13z"/>
<path d="M2655 2260 c-3 -5 -1 -10 4 -10 6 0 11 5 11 10 0 6 -2 10 -4 10 -3 0
-8 -4 -11 -10z"/>
<path d="M2702 2224 c-39 -27 -21 -94 26 -94 24 0 52 31 52 58 0 18 -33 52
-50 52 -3 0 -16 -7 -28 -16z m38 -29 c4 3 11 -3 14 -12 4 -10 4 -14 0 -10 -4
4 -13 2 -21 -4 -10 -9 -13 -8 -13 0 0 7 -4 10 -8 7 -5 -3 -9 1 -9 9 0 8 4 12
9 9 4 -3 8 1 9 8 0 10 2 10 6 0 2 -6 8 -10 13 -7z"/>
<path d="M3031 2223 c-26 -18 -27 -54 -3 -76 27 -24 59 -21 78 8 15 23 15 27
1 49 -20 30 -50 38 -76 19z m49 -39 c0 -14 -31 -20 -43 -8 -13 13 5 25 19 13
12 -10 13 -9 8 6 -5 13 -4 16 4 11 7 -4 12 -14 12 -22z"/>
<path d="M686 2113 c-6 -14 -5 -15 5 -6 7 7 10 15 7 18 -3 3 -9 -2 -12 -12z"/>
<path d="M5631 2051 c-26 -26 -26 -46 -1 -71 25 -25 52 -26 73 -2 20 22 21 42
5 64 -22 28 -55 31 -77 9z m45 -23 c4 -7 3 -8 -4 -4 -7 4 -12 2 -12 -3 0 -6 7
-11 16 -11 8 0 12 -5 9 -10 -5 -8 -11 -7 -21 1 -11 9 -14 9 -14 -1 0 -8 -3
-11 -6 -8 -5 6 13 48 21 48 2 0 7 -5 11 -12z"/>
<path d="M5312 2048 c-7 -7 -12 -24 -12 -38 0 -33 17 -50 50 -50 33 0 50 17
50 50 0 33 -17 50 -50 50 -14 0 -31 -5 -38 -12z m52 -24 c9 -3 14 -10 11 -15
-3 -4 -13 -5 -22 -2 -12 5 -14 3 -8 -8 6 -11 5 -11 -5 -2 -7 6 -9 16 -6 22 8
13 9 13 30 5z"/>
<path d="M2700 1890 c-11 -11 -20 -27 -20 -35 0 -18 35 -55 53 -55 24 0 57 31
57 55 0 24 -33 55 -57 55 -7 0 -22 -9 -33 -20z m60 -33 c0 -7 -9 -13 -20 -14
-11 -1 -18 2 -15 7 3 4 -1 11 -7 13 -7 3 -1 6 15 6 16 1 27 -4 27 -12z"/>
<path d="M3037 1892 c-35 -38 -13 -92 37 -92 44 0 61 68 24 94 -29 21 -41 20
-61 -2z m50 -41 c1 -12 -5 -18 -15 -17 -25 2 -34 20 -14 28 26 10 28 9 29 -11z"/>
<path d="M1270 1841 c-14 -27 -13 -47 6 -65 24 -24 61 -20 80 9 15 23 15 27 0
50 -21 31 -70 35 -86 6z m62 -19 c-7 -2 -10 -8 -7 -12 3 -5 1 -11 -5 -15 -5
-3 -10 1 -10 9 0 9 -6 16 -12 16 -9 0 -9 3 1 9 8 5 21 6 30 3 10 -4 11 -7 3
-10z"/>
<path d="M2966 1812 c-3 -5 1 -9 9 -9 8 0 12 4 9 9 -3 4 -7 8 -9 8 -2 0 -6 -4
-9 -8z"/>
<path d="M5311 1756 c-18 -21 -9 -66 14 -82 29 -19 69 2 73 39 4 36 -13 57
-48 57 -15 0 -33 -6 -39 -14z m59 -37 c-13 -24 -17 -24 -31 2 -7 13 -7 19 -1
15 6 -3 13 -2 17 4 12 19 26 0 15 -21z"/>
<path d="M5632 1708 c-30 -30 -2 -88 42 -88 25 0 56 28 56 52 0 37 -70 64 -98
36z m44 -34 c-3 -8 -2 -12 4 -9 6 3 10 1 10 -4 0 -12 -23 -15 -33 -5 -8 8 3
34 15 34 6 0 7 -7 4 -16z"/>
<path d="M3699 1513 c-13 -16 -12 -17 4 -4 16 13 21 21 13 21 -2 0 -10 -8 -17
-17z"/>
<path d="M5266 1497 c-38 -28 -13 -97 35 -97 47 0 65 67 27 94 -27 19 -39 20
-62 3z m52 -30 c13 4 14 3 3 -5 -8 -6 -10 -15 -6 -22 5 -7 4 -11 -1 -8 -5 3
-17 8 -28 12 -15 5 -16 9 -5 22 8 9 15 12 17 6 2 -6 11 -8 20 -5z"/>
<path d="M5577 1402 c-23 -26 -21 -58 5 -76 28 -20 43 -20 62 0 32 31 10 94
-33 94 -10 0 -25 -8 -34 -18z m56 -29 c-7 -3 -9 -11 -7 -18 4 -9 -1 -13 -15
-12 -12 1 -21 5 -21 10 0 5 7 7 14 4 10 -4 13 -1 10 8 -3 8 -13 11 -22 8 -13
-4 -14 -3 -3 5 7 5 23 7 34 4 12 -3 16 -7 10 -9z"/>
<path d="M3606 1378 c3 -5 10 -6 15 -3 13 9 11 12 -6 12 -8 0 -12 -4 -9 -9z"/>
<path d="M5156 1199 c-24 -35 0 -79 43 -79 34 0 51 17 51 50 0 14 -5 31 -12
38 -19 19 -65 14 -82 -9z m65 -20 c6 -13 7 -19 1 -15 -6 3 -12 1 -14 -5 -2 -5
-11 -7 -20 -4 -15 6 -15 8 0 26 20 23 19 24 33 -2z"/>
<path d="M5452 1098 c-7 -7 -12 -24 -12 -38 0 -34 17 -50 52 -50 18 0 33 8 44
25 15 23 15 27 0 50 -18 27 -63 34 -84 13z m38 -33 c0 -8 4 -15 10 -15 5 0 7
8 4 18 -5 14 -4 15 5 2 12 -18 0 -33 -21 -25 -15 6 -21 35 -6 35 4 0 8 -7 8
-15z"/>
<path d="M566 1037 c3 -10 9 -15 12 -12 3 3 0 11 -7 18 -10 9 -11 8 -5 -6z"/>
<path d="M4253 200 c-70 -42 -57 -144 21 -170 86 -28 164 77 108 146 -37 47
-80 55 -129 24z m88 -31 c4 -6 12 -9 18 -5 7 4 9 1 5 -7 -3 -8 -1 -18 5 -22 6
-3 11 -11 11 -16 0 -6 -5 -7 -12 -3 -6 4 -8 3 -4 -4 3 -6 -6 -23 -20 -39 -15
-15 -23 -21 -19 -13 8 13 7 13 -8 1 -13 -10 -20 -11 -30 -2 -8 6 -16 8 -19 5
-3 -3 -9 0 -14 7 -5 8 -3 10 7 5 8 -4 5 0 -6 9 -20 16 -30 55 -13 55 5 0 6 5
3 11 -4 6 1 16 11 24 21 15 74 11 85 -6z"/>
</g>
</svg>
