<?xml version="1.0" standalone="no"?>
<!DOCTYPE svg PUBLIC "-//W3C//DTD SVG 20010904//EN"
 "http://www.w3.org/TR/2001/REC-SVG-20010904/DTD/svg10.dtd">
<svg version="1.0" xmlns="http://www.w3.org/2000/svg"
 width="829.000000pt" height="829.000000pt" viewBox="0 0 829.000000 829.000000"
 preserveAspectRatio="xMidYMid meet">

<g transform="translate(0.000000,829.000000) scale(0.100000,-0.100000)"
fill="#000000" stroke="none">
<path d="M3913 7965 c0 -8 4 -15 9 -15 4 0 8 7 8 15 0 8 -4 15 -8 15 -5 0 -9
-7 -9 -15z"/>
<path d="M3776 7841 c-57 -93 -243 -248 -267 -224 -9 9 -3 26 21 65 45 71 48
135 8 157 -25 15 -30 14 -62 -3 -45 -24 -59 -65 -57 -167 1 -44 -3 -88 -9 -99
-17 -31 -114 -73 -257 -110 -24 -6 -43 -16 -43 -22 0 -25 216 32 330 88 82 39
109 41 205 14 98 -28 176 -27 211 3 70 61 -47 120 -170 86 -28 -8 -41 -8 -50
1 -14 15 79 102 172 162 34 22 62 44 62 48 0 5 3 17 6 27 5 15 4 15 -5 3 -8
-12 -11 -11 -19 9 -6 18 -11 21 -17 12 -6 -10 -9 -10 -15 -1 -5 8 -21 -10 -44
-49z"/>
<path d="M4580 7813 c-14 -2 -69 -18 -122 -35 -93 -30 -101 -31 -156 -20 -117
24 -350 8 -385 -27 -20 -20 -1 -22 64 -6 35 8 103 15 150 15 109 0 121 -9 145
-120 26 -121 67 -173 121 -154 59 21 52 86 -19 177 -44 55 -26 64 51 26 79
-40 164 -121 181 -174 44 -138 116 -207 164 -159 47 46 -2 129 -129 215 -27
19 -56 39 -63 46 -7 7 -33 29 -57 49 -25 20 -45 41 -45 46 0 5 34 6 84 2 93
-7 149 5 166 37 12 22 -1 54 -28 67 -22 12 -90 20 -122 15z"/>
<path d="M5230 7703 c-26 -9 -61 -46 -101 -105 -22 -32 -48 -62 -59 -68 -24
-13 -104 6 -223 51 -86 32 -97 34 -97 19 0 -24 231 -110 337 -126 70 -10 94
-25 156 -103 89 -110 155 -149 206 -122 55 30 5 108 -102 163 -46 22 -57 32
-48 41 17 18 139 23 276 13 101 -7 126 -6 158 7 41 18 52 35 43 70 -7 30 -45
47 -104 47 -36 0 -69 -11 -133 -41 -84 -42 -85 -42 -221 -47 -134 -4 -157 0
-125 25 6 6 29 16 50 23 47 15 107 70 107 99 0 46 -64 75 -120 54z"/>
<path d="M2889 7540 c-37 -20 -95 -86 -146 -165 -22 -36 -43 -52 -108 -83 -44
-22 -108 -60 -142 -85 -59 -44 -149 -144 -139 -155 3 -2 33 21 67 52 85 79
158 126 194 126 23 0 41 -11 70 -41 88 -89 171 -122 208 -81 43 47 1 108 -89
131 -73 19 -74 20 -74 31 0 20 55 31 151 32 103 0 97 2 242 -76 72 -38 112
-45 139 -23 35 26 22 79 -25 104 -24 12 -75 18 -206 24 -96 5 -181 11 -189 14
-18 7 -7 22 31 40 58 28 130 89 138 118 15 55 -50 75 -122 37z"/>
<path d="M5566 7361 c-3 -5 36 -29 87 -54 101 -49 187 -118 187 -148 0 -11 -9
-37 -19 -57 -11 -21 -27 -63 -36 -95 -13 -47 -14 -64 -5 -93 16 -47 50 -63 85
-40 35 23 46 58 44 133 -3 102 16 98 69 -16 32 -67 36 -85 36 -156 0 -44 -4
-112 -8 -151 -7 -57 -6 -76 8 -101 22 -43 51 -51 83 -21 23 21 25 28 20 88 -3
40 -18 99 -40 155 -40 105 -64 192 -54 202 4 4 20 -3 35 -15 71 -57 115 -84
147 -89 66 -11 86 40 38 98 -34 40 -106 74 -202 95 -69 16 -79 21 -150 87
-101 94 -181 144 -280 176 -41 13 -39 13 -45 2z"/>
<path d="M1627 7013 c-10 -9 -8 -73 3 -113 13 -47 83 -118 125 -126 71 -13
149 67 147 152 -1 85 -44 114 -114 78 -29 -15 -34 -15 -65 0 -34 16 -84 21
-96 9z"/>
<path d="M5840 6537 c-49 -25 -65 -111 -35 -184 17 -40 9 -57 -21 -51 -15 3
-18 11 -16 40 4 48 -12 78 -43 78 -28 0 -38 -23 -33 -78 4 -44 -18 -54 -58
-27 -31 20 -45 11 -21 -13 15 -14 38 -17 130 -19 76 -1 128 -7 162 -18 110
-38 148 -44 160 -25 3 6 -3 10 -15 10 -18 0 -20 4 -14 38 4 29 1 42 -16 60
-28 30 -58 28 -71 -4 -5 -15 -7 -35 -4 -45 5 -16 1 -19 -25 -19 -45 0 -47 23
-5 62 64 59 59 145 -11 188 -37 23 -33 23 -64 7z m80 -45 c33 -41 26 -88 -19
-133 -21 -22 -43 -39 -49 -39 -6 0 -18 20 -28 45 -43 113 31 211 96 127z
m-172 -141 c-2 -15 -9 -26 -18 -26 -16 0 -25 37 -16 62 10 25 38 -5 34 -36z
m257 -17 c21 -21 15 -48 -11 -52 -24 -3 -38 20 -29 49 8 23 19 24 40 3z"/>
<path d="M5325 6345 c-28 -27 -30 -37 -15 -65 25 -47 84 -48 101 -3 13 34 2
69 -27 82 -33 14 -31 15 -59 -14z"/>
<path d="M6847 6352 c-9 -10 -17 -27 -17 -38 0 -25 51 -113 84 -143 30 -29 36
-67 9 -56 -10 3 -47 14 -83 24 -36 10 -94 31 -130 45 -131 54 -230 43 -230
-24 0 -58 65 -74 207 -50 66 11 92 11 135 1 70 -15 182 -74 187 -96 3 -16 -3
-17 -54 -11 -101 12 -155 -16 -155 -78 0 -65 96 -72 214 -17 56 27 73 31 92
22 35 -16 103 -108 142 -193 50 -109 73 -105 32 6 -30 78 -92 171 -165 246
-62 63 -65 68 -89 162 -29 112 -43 142 -83 180 -39 37 -74 44 -96 20z"/>
<path d="M1710 6294 c-40 -35 -54 -62 -89 -184 -28 -98 -33 -105 -89 -161 -90
-88 -182 -245 -182 -311 0 -31 26 -5 41 40 14 43 70 137 102 173 47 53 62 54
140 18 96 -44 154 -49 192 -17 22 20 27 30 21 51 -11 44 -47 60 -131 59 -41
-1 -76 2 -79 7 -14 22 104 84 197 103 45 10 71 9 144 -5 98 -18 137 -14 171
16 27 25 28 51 2 77 -32 32 -86 25 -266 -35 -91 -30 -170 -55 -175 -55 -18 0
-8 22 30 68 58 70 83 125 71 156 -13 35 -58 35 -100 0z"/>
<path d="M5322 6148 c-5 -7 -15 -112 -21 -233 -6 -121 -16 -305 -22 -410 -6
-104 -10 -203 -8 -219 5 -36 32 -55 57 -40 22 14 28 79 46 524 13 300 13 348
0 368 -16 25 -36 28 -52 10z"/>
<path d="M3854 5768 c1 -412 -1 -429 -58 -453 -41 -18 -70 -2 -89 47 -13 32
-20 39 -39 36 -51 -7 -26 -121 34 -158 85 -51 182 -5 218 103 13 41 16 671 4
755 -6 39 -8 42 -38 42 l-32 0 0 -372z"/>
<path d="M3138 6113 c-14 -16 -16 -73 -14 -443 l1 -425 116 -3 c97 -2 118 0
129 14 10 11 11 20 3 32 -8 13 -30 18 -94 22 l-84 5 2 174 c2 193 1 191 69
191 75 0 87 62 13 68 -85 6 -80 -5 -77 155 l3 142 70 5 c78 6 95 13 95 40 0
30 -32 40 -128 40 -72 0 -92 -3 -104 -17z"/>
<path d="M4881 6119 l-24 -9 7 -153 c3 -83 11 -217 16 -297 5 -80 12 -207 16
-283 5 -93 11 -141 20 -148 9 -8 30 -7 71 1 162 33 200 108 190 375 -10 293
-59 456 -149 497 -44 21 -117 29 -147 17z m141 -116 c50 -48 78 -194 79 -416
0 -79 -4 -162 -10 -185 -13 -45 -51 -82 -87 -82 -28 0 -31 11 -38 120 -3 47
-13 193 -23 326 -9 132 -13 249 -10 258 9 24 52 14 89 -21z"/>
<path d="M2791 6111 c-11 -7 -12 -44 -2 -228 6 -121 11 -308 11 -416 0 -108 4
-207 10 -221 9 -26 11 -26 109 -26 102 0 131 10 131 45 0 22 -21 30 -95 35
l-70 5 -7 135 c-5 74 -11 251 -14 393 -5 206 -9 261 -21 272 -16 17 -32 19
-52 6z"/>
<path d="M4131 6098 c-9 -22 -31 -176 -71 -498 -10 -80 -24 -186 -31 -236 -13
-100 -9 -124 19 -124 31 0 39 19 52 125 17 145 17 145 89 145 72 0 71 1 96
-129 19 -98 40 -136 71 -124 13 5 15 16 11 57 -5 47 -58 302 -92 441 -8 33
-28 123 -45 199 -16 77 -35 145 -41 153 -18 20 -48 15 -58 -9z"/>
<path d="M4488 6108 c-15 -12 -18 -46 -23 -303 -3 -159 -8 -347 -11 -416 -4
-108 -3 -129 11 -143 20 -20 29 -20 49 0 13 13 16 43 16 175 0 173 4 184 54
161 32 -14 57 -73 68 -161 17 -139 18 -143 54 -179 35 -35 50 -37 68 -9 9 13
6 26 -11 57 -13 21 -27 71 -33 112 -16 115 -37 175 -77 219 l-37 40 46 40 c59
50 80 102 81 200 1 132 -55 196 -188 214 -35 4 -55 2 -67 -7z m141 -93 c16
-14 35 -42 41 -61 15 -45 5 -130 -19 -170 -20 -33 -84 -69 -103 -58 -12 7 -6
283 7 303 11 18 42 12 74 -14z"/>
<path d="M5533 6103 c-10 -4 -13 -102 -13 -443 0 -385 2 -440 16 -454 8 -9 22
-16 30 -16 31 0 35 50 28 333 -6 229 -5 279 6 275 17 -5 51 -119 160 -536 15
-60 62 -91 88 -59 11 14 -9 865 -22 885 -10 17 -55 15 -62 -3 -4 -9 -2 -133 3
-278 5 -144 6 -268 3 -275 -9 -19 -19 8 -90 263 -69 248 -77 273 -98 298 -15
17 -27 20 -49 10z"/>
<path d="M7434 5872 c-29 -19 -34 -54 -32 -249 3 -222 -5 -265 -39 -204 -68
123 -113 164 -158 143 -51 -24 -31 -104 44 -172 27 -25 71 -65 98 -90 48 -44
51 -48 67 -134 25 -134 93 -316 118 -316 13 0 9 42 -7 73 -22 43 -65 184 -65
216 0 36 14 51 81 94 71 44 104 89 104 140 0 29 -7 44 -24 58 -48 39 -85 17
-135 -81 -18 -36 -37 -63 -42 -60 -5 3 -9 59 -8 125 l0 120 47 101 c53 112 59
160 27 212 -19 31 -50 42 -76 24z"/>
<path d="M1141 5814 c-36 -46 -29 -118 20 -211 37 -69 43 -90 52 -183 16 -159
-7 -233 -41 -131 -17 50 -80 121 -109 121 -11 0 -30 -11 -43 -25 -47 -50 -7
-139 90 -197 57 -34 80 -60 80 -87 -1 -14 -19 -78 -41 -141 -56 -159 -54 -153
-38 -148 33 11 93 165 127 327 l17 84 89 76 c118 101 154 172 110 216 -36 36
-100 -7 -148 -100 -16 -30 -35 -55 -42 -55 -17 0 -25 108 -22 291 3 132 1 149
-16 168 -26 29 -60 27 -85 -5z"/>
<path d="M7265 4866 c-15 -22 -15 -27 -1 -55 20 -39 42 -53 137 -92 63 -25 89
-42 128 -85 57 -62 109 -160 94 -175 -6 -6 -23 2 -49 22 -41 33 -93 59 -119
59 -28 0 -67 -48 -59 -73 16 -53 79 -86 197 -102 72 -10 81 -29 73 -162 -3
-60 -9 -130 -12 -158 -5 -41 -4 -48 7 -37 41 39 62 269 35 383 l-15 67 34 98
c47 133 48 212 6 255 -36 35 -41 36 -71 4 -23 -24 -24 -33 -22 -130 1 -58 -3
-105 -7 -105 -9 0 -38 36 -124 153 -105 143 -193 193 -232 133z"/>
<path d="M1272 4829 c-18 -12 -60 -58 -95 -103 -118 -156 -142 -185 -153 -185
-7 -1 -9 32 -6 102 4 98 3 104 -20 131 -18 21 -30 27 -45 22 -62 -20 -74 -130
-27 -256 30 -80 30 -81 19 -301 -6 -100 -4 -139 9 -190 9 -35 21 -68 26 -73
19 -19 23 5 9 66 -7 35 -13 102 -13 150 0 102 11 122 77 132 79 13 150 38 174
62 34 34 29 84 -10 102 -36 17 -79 4 -141 -44 -24 -18 -47 -34 -50 -34 -14 0
-4 36 25 89 47 90 107 144 200 181 95 39 139 76 139 117 0 16 -5 34 -12 41
-18 18 -69 14 -106 -9z"/>
<path d="M3984 4838 c-8 -12 -5 -389 5 -693 7 -218 1 -207 105 -185 69 14 115
45 142 94 43 77 55 272 30 486 -23 188 -68 276 -154 300 -50 13 -119 13 -128
-2z m145 -104 c42 -35 59 -99 72 -269 12 -155 2 -295 -24 -357 -17 -39 -72
-76 -99 -66 -11 5 -16 74 -26 353 -6 192 -9 352 -6 357 10 16 53 7 83 -18z"/>
<path d="M4372 4834 c-26 -18 -26 -16 -2 -234 5 -47 17 -202 25 -345 11 -188
20 -266 30 -282 14 -21 20 -21 107 -16 121 8 140 15 136 51 l-3 27 -87 0 c-47
0 -88 2 -91 5 -11 11 -24 335 -15 348 6 6 26 12 45 12 44 0 73 16 73 40 0 26
-35 43 -76 37 -54 -9 -61 5 -72 142 -6 68 -8 130 -5 137 3 7 26 16 51 19 104
14 120 23 106 60 -9 22 -190 21 -222 -1z"/>
<path d="M7848 4082 c-34 -22 -55 -49 -119 -153 -56 -90 -148 -203 -158 -193
-3 3 -4 48 -3 100 4 107 -9 144 -53 144 -63 0 -82 -94 -45 -228 26 -93 25
-132 -4 -190 -57 -114 -116 -326 -96 -346 6 -6 11 -4 14 5 91 298 93 300 201
292 114 -9 184 22 200 88 10 39 -23 73 -68 72 -33 -1 -57 -12 -134 -61 -38
-24 -40 10 -4 61 62 91 129 154 218 203 67 38 93 59 115 93 33 53 35 84 8 111
-25 25 -37 25 -72 2z"/>
<path d="M726 4044 c-9 -8 -16 -29 -16 -45 0 -64 50 -120 154 -170 71 -35 82
-44 156 -134 53 -65 80 -105 80 -119 0 -13 -30 -4 -81 24 -31 17 -69 30 -90
30 -70 0 -92 -65 -39 -118 35 -35 75 -44 176 -40 59 2 76 0 92 -15 21 -19 55
-106 89 -227 20 -68 40 -85 35 -29 -5 58 -51 205 -93 300 l-40 92 26 107 c14
58 25 121 25 139 0 73 -58 124 -100 86 -27 -25 -34 -76 -22 -153 6 -37 8 -70
3 -75 -12 -12 -113 105 -167 196 -55 94 -122 167 -152 167 -11 0 -28 -7 -36
-16z"/>
<path d="M2798 3873 c-25 -25 -28 -26 -72 -13 -61 17 -80 9 -72 -32 12 -62
131 -208 169 -208 38 0 77 89 77 174 0 101 -45 136 -102 79z"/>
<path d="M3367 3652 c-35 -38 -9 -102 40 -102 47 0 75 88 34 110 -29 15 -56
12 -74 -8z"/>
<path d="M2401 3517 c-8 -10 -5 -79 9 -258 10 -134 24 -329 30 -433 6 -104 16
-198 21 -208 8 -16 23 -18 113 -18 87 0 105 3 119 18 20 22 22 48 5 59 -7 4
-47 8 -88 8 l-75 0 -12 120 c-6 65 -21 250 -33 410 -17 243 -23 292 -37 303
-22 16 -38 15 -52 -1z"/>
<path d="M2813 3508 c-6 -7 -14 -105 -17 -218 -4 -113 -13 -304 -20 -425 -7
-121 -11 -228 -8 -238 6 -23 50 -34 68 -16 10 11 16 77 24 269 6 140 15 332
19 425 6 136 5 175 -6 193 -15 24 -45 29 -60 10z"/>
<path d="M5762 3493 c-5 -10 -12 -109 -15 -219 -3 -111 -12 -301 -18 -421 -7
-121 -9 -228 -6 -237 11 -28 59 -17 68 16 4 15 10 136 14 268 4 132 11 243 16
245 4 3 12 -9 18 -27 9 -31 41 -218 57 -333 9 -66 20 -87 47 -83 21 3 30 31
108 351 14 57 35 79 33 34 -1 -12 -4 -126 -8 -254 -7 -231 -7 -232 14 -243 18
-10 25 -9 39 4 14 14 17 58 23 309 3 161 9 351 12 424 5 118 4 133 -13 154
-17 22 -20 22 -43 7 -19 -13 -28 -33 -43 -100 -22 -102 -92 -403 -102 -440
-12 -42 -27 -34 -36 19 -5 26 -15 82 -23 123 -21 107 -43 239 -53 320 -5 39
-15 77 -21 85 -17 20 -57 19 -68 -2z"/>
<path d="M4973 3480 c-18 -10 -45 -38 -60 -61 -53 -80 -40 -253 24 -329 14
-18 55 -50 89 -71 87 -55 105 -89 111 -197 6 -113 -13 -155 -69 -160 -20 -2
-47 2 -58 8 -26 14 -50 67 -50 109 0 47 -58 66 -74 25 -7 -18 12 -110 29 -144
28 -53 62 -74 128 -78 76 -4 116 17 149 80 44 85 26 276 -35 351 -12 16 -54
50 -92 75 -77 52 -102 87 -111 155 -9 62 2 111 32 147 46 54 132 35 150 -34
12 -48 64 -39 64 11 0 36 -37 97 -70 116 -39 23 -117 22 -157 -3z"/>
<path d="M3022 3467 c-18 -21 -3 -864 15 -883 10 -10 40 -14 102 -14 98 0 125
11 119 51 -3 22 -7 24 -73 27 -38 2 -74 8 -80 13 -6 6 -12 164 -15 412 l-5
402 -26 3 c-14 2 -31 -3 -37 -11z"/>
<path d="M3370 3455 c-9 -11 -10 -108 -5 -432 4 -230 12 -426 17 -435 13 -26
57 -23 66 5 13 38 -13 844 -28 862 -16 19 -34 19 -50 0z"/>
<path d="M5436 3448 c-9 -12 -16 -34 -16 -48 -1 -14 -11 -77 -24 -140 -117
-573 -127 -633 -112 -648 7 -7 20 -10 29 -6 18 7 30 41 47 137 14 78 24 87 99
87 63 0 78 -15 86 -87 11 -94 23 -131 46 -138 13 -4 27 -1 35 7 16 16 14 32
-76 563 -16 94 -32 193 -36 220 -4 28 -11 56 -16 63 -16 19 -45 14 -62 -10z
m64 -377 c22 -140 22 -145 5 -158 -26 -18 -94 -17 -101 2 -6 15 0 53 31 210
30 145 35 141 65 -54z"/>
<path d="M4623 3432 c-83 -41 -64 -56 34 -27 47 14 70 34 56 49 -12 11 -38 5
-90 -22z"/>
<path d="M7139 3369 c-34 -34 -17 -93 62 -218 33 -52 34 -57 34 -155 0 -113
-8 -156 -30 -156 -8 0 -17 12 -21 28 -20 96 -54 145 -101 145 -28 0 -63 -33
-63 -59 0 -31 44 -105 92 -153 39 -39 51 -59 51 -82 0 -36 -76 -152 -137 -206
-52 -47 -63 -63 -41 -63 23 0 130 105 174 170 21 30 48 81 62 113 25 61 44 81
157 162 103 74 148 168 102 210 -34 31 -79 1 -137 -89 -26 -41 -54 -75 -60
-76 -9 0 -13 20 -14 65 -1 36 -2 113 -3 173 -2 117 -17 168 -57 196 -31 21
-45 20 -70 -5z"/>
<path d="M1432 3333 c-34 -29 -52 -104 -52 -212 0 -114 -10 -221 -20 -221 -4
0 -23 26 -43 58 -49 77 -70 100 -102 112 -91 35 -85 -101 8 -182 12 -10 54
-41 94 -68 67 -46 75 -56 111 -132 65 -138 185 -278 238 -278 14 0 3 16 -42
63 -87 90 -144 173 -144 212 0 8 24 42 54 74 65 71 86 108 86 154 0 40 -19 60
-57 60 -35 0 -79 -49 -93 -105 -17 -65 -19 -70 -32 -66 -20 7 -30 69 -26 164
4 87 6 95 49 170 60 103 71 137 58 172 -17 45 -52 55 -87 25z"/>
<path d="M4108 3317 c-14 -12 -31 -32 -37 -44 -18 -36 -13 -101 12 -144 l22
-40 -30 -22 c-53 -38 -94 -87 -106 -127 -10 -33 -9 -47 5 -83 45 -119 172
-142 289 -53 44 34 52 33 79 -9 24 -36 66 -58 87 -46 7 5 -4 27 -34 65 -25 32
-45 61 -45 64 0 3 18 28 41 54 40 48 46 78 15 78 -8 0 -29 -18 -46 -40 -17
-22 -37 -40 -44 -40 -14 0 -106 134 -106 154 0 6 16 27 35 46 59 58 57 132 -7
185 -38 32 -93 33 -130 2z m101 -53 c39 -33 39 -54 0 -99 -38 -43 -59 -44 -82
-6 -23 39 -22 86 3 111 26 26 42 25 79 -6z m7 -299 l57 -66 -33 -34 c-70 -72
-134 -83 -186 -31 -39 39 -44 77 -16 114 17 22 100 82 114 82 3 0 32 -29 64
-65z"/>
<path d="M4540 3251 c0 -10 117 -41 155 -41 33 0 33 27 -1 40 -32 12 -154 13
-154 1z"/>
<path d="M7572 2438 c-7 -7 -12 -28 -12 -47 1 -71 62 -163 128 -190 65 -27
148 45 158 135 9 90 -42 136 -110 99 -34 -18 -37 -18 -71 -2 -42 20 -76 22
-93 5z"/>
<path d="M915 2426 c-27 -20 -23 -95 8 -149 31 -52 52 -72 100 -92 35 -14 40
-14 76 5 54 27 85 80 86 146 0 84 -56 120 -120 78 -23 -15 -28 -15 -68 5 -51
25 -57 25 -82 7z"/>
<path d="M6220 2303 c-18 -23 -21 -36 -16 -77 3 -26 17 -67 30 -91 27 -46 25
-55 -11 -55 -20 0 -23 4 -18 20 3 10 -1 33 -10 50 -13 25 -22 31 -43 28 -24
-3 -27 -7 -26 -43 0 -22 4 -49 9 -59 8 -17 4 -18 -43 -14 -56 5 -68 -6 -24
-23 27 -11 84 -3 177 24 22 7 45 10 50 8 27 -10 182 -18 198 -9 26 13 21 26
-9 20 -24 -4 -25 -3 -14 18 17 32 -15 75 -56 75 -28 0 -29 -2 -30 -45 0 -42
-3 -45 -28 -48 -44 -5 -49 10 -16 54 16 21 32 53 36 70 17 89 -103 164 -156
97z m104 -18 c44 -40 29 -127 -28 -167 -22 -15 -59 40 -71 105 -14 75 44 113
99 62z m-148 -150 c3 -14 3 -32 0 -41 -10 -25 -36 2 -36 37 0 37 27 39 36 4z
m269 5 c18 -20 18 -21 1 -38 -16 -16 -18 -16 -32 2 -33 45 -5 76 31 36z"/>
<path d="M2431 2284 c-21 -15 -23 -22 -19 -88 3 -50 15 -97 40 -161 40 -101
65 -191 55 -201 -3 -3 -27 12 -54 34 -78 64 -130 84 -177 66 -23 -9 -20 -56 5
-88 37 -47 106 -78 253 -111 16 -3 56 -32 90 -64 86 -81 131 -113 214 -155 50
-25 84 -36 105 -34 30 3 25 7 -56 47 -102 50 -184 112 -192 144 -4 13 4 46 20
80 14 32 30 78 35 103 18 81 -29 144 -85 114 -34 -18 -46 -55 -44 -132 3 -104
-8 -104 -60 -2 -47 94 -57 150 -43 248 17 119 15 159 -9 190 -24 30 -45 33
-78 10z"/>
<path d="M258 2279 c-23 -13 -24 -88 -2 -132 34 -67 98 -117 150 -117 43 0
110 74 119 131 14 97 -37 146 -111 108 -34 -17 -37 -17 -77 2 -48 21 -56 22
-79 8z"/>
<path d="M1394 2125 c-29 -44 7 -140 73 -194 51 -42 78 -48 120 -26 43 24 69
59 84 116 10 38 9 50 -5 81 -21 44 -55 55 -98 33 -39 -19 -48 -19 -84 0 -42
22 -71 19 -90 -10z"/>
<path d="M7036 1997 c-70 -70 3 -276 123 -351 87 -54 137 -52 210 10 105 91
131 260 50 328 -39 33 -78 33 -140 -1 l-49 -26 -53 26 c-81 41 -111 44 -141
14z"/>
<path d="M672 1920 c-50 -47 -19 -195 60 -285 47 -53 131 -105 171 -105 41 0
100 34 141 82 80 94 87 242 14 303 -39 33 -84 30 -144 -8 l-39 -24 -54 28
c-64 35 -118 38 -149 9z"/>
<path d="M6110 1744 c-67 -68 -164 -134 -196 -134 -15 0 -46 20 -83 54 -69 63
-108 86 -150 86 -37 0 -61 -23 -61 -59 0 -39 39 -71 112 -91 118 -32 62 -64
-102 -58 -93 3 -96 4 -179 52 -100 59 -164 71 -195 37 -28 -31 -12 -68 39 -95
38 -20 120 -28 368 -35 15 -1 27 -7 27 -14 0 -6 -12 -18 -27 -24 -47 -21 -127
-87 -141 -116 -20 -42 -2 -67 50 -67 66 0 130 53 195 160 32 53 72 86 137 114
108 48 276 189 276 232 0 24 -14 16 -70 -42z"/>
<path d="M6370 1721 c-42 -79 54 -241 143 -241 92 0 173 144 121 218 -26 38
-46 42 -94 21 l-45 -20 -36 20 c-46 26 -75 27 -89 2z"/>
<path d="M3076 1584 c-38 -37 2 -97 99 -148 33 -17 58 -35 57 -41 -3 -18 -104
-25 -260 -19 -167 7 -208 -1 -218 -42 -23 -90 94 -110 241 -41 101 48 254 72
333 51 35 -10 27 -20 -40 -52 -79 -37 -108 -64 -108 -102 0 -37 32 -60 82 -60
45 0 88 35 146 120 36 52 41 55 83 58 43 3 140 -23 231 -62 43 -18 58 -20 58
-6 0 25 -203 104 -323 125 -42 8 -87 21 -98 29 -12 8 -46 45 -76 83 -85 107
-166 149 -207 107z"/>
<path d="M3752 1508 c-21 -21 -14 -78 13 -114 21 -28 147 -129 251 -203 59
-41 46 -49 -70 -44 -102 6 -105 5 -130 -20 -32 -32 -32 -42 -2 -72 46 -45 144
-39 298 21 41 16 54 17 117 6 136 -23 349 -8 384 27 21 21 -3 23 -74 7 -39 -9
-104 -16 -145 -16 -95 0 -120 19 -134 102 -10 67 -43 145 -68 164 -29 22 -70
17 -88 -11 -23 -35 -12 -80 36 -143 22 -29 40 -55 40 -57 0 -13 -38 -2 -92 27
-87 46 -141 105 -175 189 -48 120 -118 180 -161 137z"/>
<path d="M5260 1384 c-47 -13 -123 -43 -168 -64 -46 -22 -94 -40 -105 -40 -12
0 -51 9 -85 20 -138 43 -233 33 -249 -28 -13 -52 77 -84 178 -63 52 11 75 6
61 -14 -19 -27 -136 -116 -211 -161 -87 -52 -151 -112 -151 -142 0 -26 32 -52
64 -52 62 0 112 46 172 160 26 51 54 85 103 126 143 123 183 132 126 30 -58
-104 -40 -177 39 -162 61 12 81 52 83 171 2 55 5 105 8 113 8 21 130 70 253
102 23 6 42 15 42 20 0 17 -72 10 -160 -16z"/>
<path d="M6768 653 c-8 -10 -34 -46 -58 -81 -26 -38 -53 -65 -67 -68 -43 -11
-44 9 -3 71 36 54 42 75 20 75 -4 0 -29 -32 -56 -70 -51 -75 -57 -78 -149 -82
-85 -4 -70 -22 22 -28 l77 -5 38 -55 c58 -84 68 -94 80 -82 7 7 -2 28 -30 69
-43 60 -43 80 0 70 16 -4 37 -28 63 -72 42 -72 52 -82 67 -67 7 7 -2 28 -26
66 -20 31 -36 61 -36 66 0 6 20 10 44 10 l44 0 43 -75 c23 -41 46 -75 50 -75
21 0 17 24 -11 73 -16 29 -30 59 -30 65 0 6 21 12 48 14 57 4 62 22 7 26 -22
2 -44 7 -48 11 -5 5 10 34 32 66 37 53 43 75 21 75 -5 0 -28 -28 -51 -62 -51
-77 -64 -88 -106 -88 -26 0 -33 4 -33 19 0 10 7 24 15 31 22 18 75 107 68 114
-10 10 -19 7 -35 -11z"/>
<path d="M2030 606 c0 -8 14 -37 31 -65 17 -27 28 -54 24 -60 -3 -6 -26 -11
-51 -11 -32 0 -44 -4 -44 -15 0 -11 11 -15 43 -15 24 0 47 -3 50 -6 4 -4 -8
-28 -27 -53 -38 -53 -49 -78 -36 -86 9 -6 37 26 87 98 29 42 37 47 71 47 21 0
41 -3 45 -6 3 -3 -17 -38 -45 -76 -41 -56 -48 -72 -37 -79 9 -6 18 -4 24 5 6
8 33 46 60 85 40 57 55 70 77 71 15 0 29 -4 32 -8 3 -5 -13 -32 -34 -61 -42
-55 -50 -81 -26 -81 8 0 32 28 54 63 22 34 46 68 54 74 7 7 47 13 88 15 90 4
100 22 15 26 -93 4 -99 7 -151 82 -45 66 -74 88 -74 56 0 -8 16 -35 35 -60 43
-57 45 -79 8 -74 -21 2 -36 18 -71 76 -24 39 -50 72 -58 72 -21 0 -17 -14 21
-75 20 -31 33 -60 30 -65 -3 -6 -24 -10 -45 -10 -37 0 -40 2 -82 75 -40 70
-68 94 -68 61z"/>
<path d="M4385 600 c-10 -11 -19 -35 -19 -53 -1 -17 -5 -37 -8 -43 -5 -7 -144
-11 -445 -13 l-438 -2 -78 46 -77 45 -163 -2 -162 -3 52 -40 c28 -22 52 -45
52 -50 1 -6 -19 -31 -44 -55 -25 -24 -45 -48 -45 -52 0 -4 71 -8 157 -8 l157
0 67 40 67 40 463 0 462 0 47 -49 c78 -82 160 -78 218 9 17 26 33 37 60 42 57
11 902 9 902 -1 0 -5 -4 -21 -10 -35 -7 -20 -6 -26 4 -26 12 0 121 27 291 71
52 14 42 19 -138 63 -174 42 -171 42 -157 16 6 -11 8 -25 5 -30 -4 -6 -176
-10 -464 -10 l-459 0 -6 36 c-4 19 -16 44 -27 55 -23 23 -76 25 -106 4 -20
-14 -26 -14 -62 5 -50 25 -73 25 -96 0z"/>
</g>
</svg>
