<?xml version="1.0" standalone="no"?>
<!DOCTYPE svg PUBLIC "-//W3C//DTD SVG 20010904//EN"
 "http://www.w3.org/TR/2001/REC-SVG-20010904/DTD/svg10.dtd">
<svg version="1.0" xmlns="http://www.w3.org/2000/svg"
 width="930.000000pt" height="270.000000pt" viewBox="0 0 930.000000 270.000000"
 preserveAspectRatio="xMidYMid meet">

<g transform="translate(0.000000,270.000000) scale(0.100000,-0.100000)"
fill="#000000" stroke="none">
<path d="M951 2563 c-31 -31 -40 -49 -46 -88 -11 -85 -15 -95 -54 -138 -38
-41 -102 -150 -116 -194 -10 -36 10 -27 23 10 6 17 28 58 48 90 40 65 39 64
125 31 58 -22 99 -10 99 30 0 31 -46 51 -101 43 -39 -5 -40 -5 -23 14 9 10 41
31 71 45 48 24 61 26 120 20 51 -5 71 -3 89 9 54 35 5 74 -69 54 -23 -6 -71
-24 -106 -40 -35 -16 -66 -27 -68 -25 -2 2 10 24 27 50 34 50 49 109 31 121
-7 4 -28 -10 -50 -32z"/>
<path d="M8297 2573 c-16 -15 -5 -54 28 -103 20 -29 34 -55 31 -57 -2 -2 -43
7 -92 21 -106 31 -154 33 -185 7 -20 -16 -22 -23 -13 -38 20 -33 67 -38 134
-14 58 21 63 22 113 7 28 -9 60 -22 70 -30 15 -12 12 -14 -33 -18 -54 -5 -90
-29 -90 -60 0 -41 66 -40 137 2 32 19 37 19 58 6 23 -15 85 -127 85 -153 0 -7
5 -13 10 -13 15 0 12 13 -19 83 -16 36 -52 90 -80 121 -46 50 -51 61 -51 102
0 81 -68 172 -103 137z"/>
<path d="M1500 2499 c0 -15 -5 -19 -19 -14 -11 3 -26 -1 -36 -11 -12 -12 -19
-14 -28 -5 -17 17 -65 13 -75 -5 -5 -9 -7 -25 -5 -34 3 -13 -3 -19 -25 -23
-16 -3 -32 -13 -36 -22 -16 -42 44 -76 98 -55 43 16 49 13 42 -20 -3 -19 -2
-29 4 -25 5 3 12 22 16 43 4 20 22 55 40 76 26 30 34 49 34 78 0 21 -2 38 -5
38 -3 0 -5 -9 -5 -21z m-82 -83 c4 -32 -13 -34 -45 -4 -25 24 -30 44 -10 51
20 8 52 -19 55 -47z m47 7 c-21 -32 -30 -19 -15 22 8 21 14 25 22 17 8 -8 6
-18 -7 -39z m-86 -47 c24 -13 24 -14 3 -25 -28 -15 -54 -14 -77 2 -41 31 24
51 74 23z"/>
<path d="M3031 2391 c-12 -8 -12 -32 -3 -154 7 -80 12 -184 12 -231 l0 -86 41
0 c55 0 95 26 119 75 34 71 24 150 -25 198 -33 32 -33 32 -14 56 30 36 24 78
-15 117 -35 35 -83 45 -115 25z m91 -48 c25 -22 23 -55 -7 -87 -34 -37 -45
-33 -45 17 0 23 -3 52 -6 65 -5 18 -2 22 17 22 12 0 31 -7 41 -17z m17 -172
c65 -65 36 -211 -41 -211 -16 0 -18 11 -18 108 0 60 3 112 7 115 12 12 33 7
52 -12z"/>
<path d="M4602 2381 c-11 -6 -12 -42 -7 -177 6 -124 4 -166 -4 -159 -6 6 -40
76 -76 155 -73 161 -88 183 -108 160 -10 -12 -12 -61 -7 -222 3 -113 8 -210
12 -213 4 -4 15 -5 24 -1 15 6 16 22 9 164 -4 102 -3 154 3 147 5 -5 36 -67
68 -136 73 -155 85 -175 107 -166 16 6 17 27 15 228 -2 137 -7 224 -13 226 -5
1 -16 -1 -23 -6z"/>
<path d="M3437 2373 l-59 -4 6 -122 c4 -67 9 -168 12 -224 l6 -103 68 0 c68 0
97 13 69 31 -8 5 -33 9 -56 9 l-43 0 0 89 0 90 38 3 c54 4 51 32 -5 36 l-43 3
0 80 0 79 51 0 c43 0 50 3 47 17 -4 20 -9 21 -91 16z"/>
<path d="M3800 2208 l-1 -173 -26 50 c-14 28 -46 95 -70 150 -49 110 -70 139
-92 126 -21 -13 -3 -436 19 -436 13 0 16 27 20 160 l5 160 24 -55 c76 -176
122 -260 142 -260 11 0 22 6 25 14 3 8 2 108 -3 223 -7 186 -10 208 -25 211
-17 3 -18 -10 -18 -170z"/>
<path d="M4076 2368 c-3 -7 -12 -78 -21 -158 -20 -181 -25 -208 -35 -189 -5 8
-22 86 -40 173 -17 88 -33 163 -36 168 -3 4 -14 8 -26 8 -24 0 -26 12 31 -235
54 -231 49 -217 74 -213 27 4 40 47 66 222 29 191 30 230 8 234 -9 2 -19 -2
-21 -10z"/>
<path d="M4183 2373 c-8 -6 -9 -61 -1 -218 5 -115 11 -216 13 -222 5 -16 131
-18 140 -2 11 16 -2 23 -53 29 l-47 5 0 85 0 85 35 5 c50 7 47 34 -5 40 l-40
5 0 75 0 75 50 5 c36 4 50 9 50 20 0 12 -15 16 -65 18 -36 1 -70 -1 -77 -5z"/>
<path d="M4975 2371 c-3 -6 -1 -90 4 -187 6 -97 11 -196 11 -221 l0 -44 73 3
c83 3 97 22 20 26 l-53 3 0 94 0 94 38 3 c55 4 51 32 -6 36 l-43 3 3 77 3 77
48 3 c39 3 48 6 45 20 -3 14 -17 18 -70 20 -38 2 -69 -2 -73 -7z"/>
<path d="M5444 2366 c-17 -8 -41 -27 -53 -42 -22 -28 -23 -36 -19 -169 3 -107
8 -148 21 -172 22 -41 54 -63 90 -63 33 0 87 34 87 55 0 26 -18 25 -50 -1 -26
-23 -35 -25 -55 -16 -34 16 -45 67 -45 213 0 109 2 128 18 142 23 21 56 22 72
2 17 -21 40 -19 40 3 0 42 -59 68 -106 48z"/>
<path d="M5617 2374 c-10 -10 -9 -75 5 -273 9 -130 16 -175 26 -179 24 -9 30
18 25 119 l-6 99 41 0 41 0 5 -52 c4 -29 7 -77 9 -107 2 -54 11 -68 35 -53 18
12 -5 442 -25 449 -24 9 -28 -6 -28 -100 l0 -92 -41 -3 -41 -3 -9 97 c-8 89
-19 116 -37 98z"/>
<path d="M5864 2366 c-3 -9 -2 -112 2 -228 l9 -213 73 -3 c58 -2 72 0 72 12 0
9 -16 16 -49 21 l-49 7 -7 68 c-9 92 -3 110 41 110 27 0 34 4 34 20 0 17 -7
20 -40 20 l-40 0 0 70 c0 39 0 73 0 78 0 4 21 9 47 12 34 4 48 9 48 20 0 22
-133 28 -141 6z"/>
<path d="M3272 2155 c6 -213 13 -254 38 -229 7 7 8 80 3 225 -7 199 -9 214
-27 217 -18 4 -19 -4 -14 -213z"/>
<path d="M4713 2354 c-3 -9 -3 -85 0 -170 8 -214 35 -270 124 -262 26 2 42 11
57 31 20 27 21 39 18 205 -1 98 -5 185 -8 195 -3 9 -14 17 -24 17 -17 0 -18
-10 -13 -188 6 -204 1 -236 -40 -230 -41 6 -57 62 -68 235 -5 87 -12 164 -14
171 -6 17 -24 15 -32 -4z"/>
<path d="M6075 2360 c-12 -20 7 -30 60 -30 30 0 56 -3 58 -7 2 -5 -22 -87 -54
-183 -32 -96 -59 -183 -59 -192 0 -15 11 -18 70 -19 39 -1 76 -2 83 -3 6 -1
12 8 12 19 0 17 -8 20 -50 23 -27 2 -53 4 -56 5 -3 1 11 54 32 117 74 225 83
262 68 271 -19 12 -156 11 -164 -1z"/>
<path d="M8652 2252 c-25 -16 -33 -76 -26 -199 4 -68 5 -123 2 -123 -3 0 -19
23 -37 51 -27 43 -35 50 -58 47 -22 -2 -29 -9 -31 -31 -4 -29 35 -74 101 -122
22 -16 31 -34 44 -90 17 -76 66 -195 81 -195 5 0 -5 37 -23 83 -52 131 -53
126 10 189 47 47 55 61 55 92 0 36 -1 37 -31 34 -31 -3 -45 -19 -71 -83 -12
-28 -13 -23 -16 58 -2 78 0 95 24 144 29 62 35 113 15 137 -15 18 -21 19 -39
8z"/>
<path d="M602 2238 c-20 -20 -13 -73 18 -131 26 -49 30 -67 30 -137 0 -78 -11
-103 -26 -57 -13 42 -44 77 -70 77 -55 0 -42 -67 27 -130 27 -25 49 -53 49
-62 0 -9 -13 -56 -30 -105 -31 -90 -37 -125 -21 -107 13 13 68 181 76 229 8
51 9 53 73 99 53 38 69 68 57 105 -13 42 -62 16 -98 -54 -16 -29 -16 -24 -17
102 0 78 -5 142 -12 158 -12 27 -36 33 -56 13z"/>
<path d="M5502 1845 c-26 -22 -33 -23 -61 -14 -37 13 -61 6 -61 -17 0 -50 105
-184 144 -184 33 0 73 113 62 175 -7 33 -29 65 -46 65 -5 0 -22 -11 -38 -25z"/>
<path d="M3264 1715 c-31 -48 15 -101 62 -70 28 18 32 56 8 79 -23 23 -51 20
-70 -9z"/>
<path d="M5966 1664 c-17 -16 -21 -51 -8 -70 15 -24 50 -26 71 -5 27 27 27 56
-1 75 -28 20 -43 20 -62 0z"/>
<path d="M8560 1615 c-19 -23 9 -58 72 -92 44 -23 59 -39 85 -88 42 -79 42
-95 -2 -56 -61 53 -119 55 -113 4 3 -24 15 -34 86 -68 l83 -40 -2 -98 c-1 -54
1 -100 4 -104 13 -13 19 56 15 167 l-5 119 39 77 c47 94 50 149 8 149 -31 0
-60 -52 -61 -110 0 -39 -17 -96 -18 -65 -1 24 -110 199 -131 210 -26 14 -45
13 -60 -5z"/>
<path d="M653 1601 c-10 -11 -38 -59 -63 -108 l-44 -88 -11 65 c-16 90 -23
108 -47 116 -28 8 -50 -20 -42 -55 3 -14 23 -62 45 -106 37 -73 40 -85 33
-132 -9 -71 16 -223 38 -223 6 0 7 8 3 18 -12 30 -27 154 -21 177 4 16 22 28
64 44 68 24 95 49 90 83 -5 40 -49 36 -99 -9 l-42 -38 8 35 c12 59 53 118 95
140 45 23 73 60 64 84 -8 22 -49 20 -71 -3z"/>
<path d="M3273 1562 c-9 -6 -16 -76 -23 -238 -6 -126 -15 -285 -19 -354 -6
-76 -5 -132 0 -142 14 -25 48 -22 59 5 5 12 14 150 19 307 16 411 16 411 0
421 -17 11 -21 11 -36 1z"/>
<path d="M2069 1552 c-1 -4 -2 -146 -3 -317 -1 -325 -4 -347 -46 -360 -32 -10
-55 3 -71 38 -9 21 -21 32 -34 32 -17 0 -20 -6 -19 -43 1 -63 41 -102 105
-102 55 0 94 26 117 79 19 46 26 256 15 495 l-8 179 -27 3 c-16 1 -29 0 -29
-4z"/>
<path d="M5173 1543 c-4 -9 1 -120 11 -247 9 -127 21 -287 25 -355 6 -82 14
-128 23 -137 20 -20 176 -6 191 17 22 35 2 49 -71 49 l-68 0 -18 233 c-20 278
-35 438 -42 449 -9 14 -44 8 -51 -9z"/>
<path d="M5518 1547 c-12 -10 -18 -69 -29 -312 -7 -165 -14 -329 -14 -365 0
-63 1 -65 27 -68 35 -4 44 15 47 108 1 41 6 165 11 275 15 308 14 352 -9 364
-13 7 -23 7 -33 -2z"/>
<path d="M1393 1543 c-13 -2 -25 -14 -28 -26 -2 -12 -4 -175 -2 -362 l2 -340
97 -3 c88 -2 98 -1 107 17 17 31 -8 49 -60 44 -23 -2 -53 -2 -66 2 -21 5 -23
10 -23 74 0 37 3 102 6 144 l7 76 46 3 c42 3 46 6 49 30 4 30 -19 42 -68 36
l-25 -3 0 120 0 120 57 3 c59 3 83 18 72 46 -5 12 -19 16 -58 16 -28 0 -60 2
-71 4 -11 2 -30 2 -42 -1z"/>
<path d="M7921 1528 c-4 -12 -9 -74 -10 -137 -1 -64 -6 -195 -11 -291 -14
-259 -13 -297 6 -304 9 -4 22 -2 29 4 13 11 24 125 26 276 2 101 12 177 22
154 7 -16 31 -160 43 -250 10 -80 20 -102 45 -98 24 3 28 16 74 218 15 63 31
119 36 125 10 10 7 -135 -6 -337 -4 -61 -2 -79 11 -92 47 -47 52 -18 62 354
10 333 9 346 -9 365 -38 39 -50 14 -104 -231 -28 -126 -56 -228 -61 -227 -5 1
-14 37 -21 80 -6 43 -18 110 -26 148 -9 39 -19 104 -22 145 -4 41 -14 85 -21
98 -18 28 -52 29 -63 0z"/>
<path d="M1085 1530 c-3 -5 -1 -100 5 -211 5 -111 10 -271 10 -355 0 -103 4
-155 11 -160 6 -4 48 -6 93 -5 84 2 112 14 101 43 -8 21 -35 27 -84 21 -24 -3
-41 -1 -46 6 -4 7 -11 155 -16 329 -8 278 -11 319 -26 330 -20 14 -40 16 -48
2z"/>
<path d="M2296 1531 c-7 -11 -42 -247 -61 -406 -8 -66 -19 -158 -25 -204 -12
-95 -9 -111 20 -111 27 0 36 26 45 128 6 65 11 85 25 92 25 13 87 13 95 0 4
-6 15 -52 25 -102 11 -50 24 -94 31 -98 14 -9 49 -1 49 12 0 10 -63 311 -80
383 -5 22 -21 94 -36 160 -15 66 -31 128 -36 138 -9 18 -43 23 -52 8z"/>
<path d="M2894 1525 c-4 -9 -4 -69 -1 -133 15 -316 28 -530 33 -561 l5 -34 57
7 c64 8 116 36 137 75 48 95 40 366 -16 539 -27 82 -67 114 -150 120 -48 4
-60 1 -65 -13z m124 -78 c26 -21 43 -69 58 -170 21 -136 16 -322 -9 -360 -17
-26 -62 -46 -75 -33 -3 4 -8 37 -9 74 -2 37 -11 162 -19 279 -9 117 -13 217
-9 223 7 12 41 4 63 -13z"/>
<path d="M7274 1522 c-17 -11 -41 -41 -54 -67 -20 -41 -22 -56 -16 -118 8 -91
30 -134 86 -173 87 -62 107 -86 120 -147 20 -98 -6 -167 -64 -167 -41 0 -65
25 -73 76 -9 62 -41 85 -62 46 -11 -22 5 -106 27 -140 33 -50 114 -67 173 -36
94 48 92 272 -3 365 -22 21 -46 39 -52 39 -23 0 -76 63 -87 102 -21 78 15 168
67 168 38 0 61 -16 72 -50 12 -32 48 -42 58 -15 9 22 -14 79 -41 105 -34 32
-109 38 -151 12z"/>
<path d="M2574 1517 c-2 -7 -6 -168 -7 -357 l-2 -345 25 0 25 0 3 138 c3 147
8 161 52 137 28 -15 39 -47 55 -160 12 -81 18 -98 40 -117 54 -47 79 -19 46
50 -12 24 -21 54 -21 68 -1 63 -29 152 -60 191 l-33 40 33 26 c98 77 92 273
-10 324 -42 21 -138 24 -146 5z m122 -65 c32 -25 44 -55 44 -107 0 -57 -21
-100 -60 -120 -49 -25 -54 -15 -46 113 3 63 9 118 12 123 8 14 27 10 50 -9z"/>
<path d="M3432 1511 c-4 -11 -5 -178 -2 -372 5 -326 6 -353 23 -363 15 -9 21
-7 33 9 13 17 14 54 9 260 -5 174 -4 237 4 230 6 -6 38 -114 72 -240 64 -241
78 -273 119 -260 l23 7 -7 227 c-13 439 -17 501 -37 511 -13 7 -22 5 -34 -6
-13 -14 -15 -30 -11 -88 13 -161 17 -381 8 -371 -5 6 -32 91 -60 190 -61 215
-79 267 -95 277 -20 13 -37 9 -45 -11z"/>
<path d="M4513 1523 c-36 -2 -66 -10 -73 -18 -8 -10 -8 -43 0 -132 6 -65 17
-219 25 -342 10 -159 18 -229 28 -238 10 -11 33 -12 95 -7 93 8 123 22 106 51
-9 14 -25 18 -79 18 -38 0 -70 5 -71 10 -7 20 -21 260 -17 272 3 7 23 13 45
15 51 4 73 31 43 54 -12 9 -30 12 -50 8 -20 -3 -35 -1 -42 8 -6 7 -13 61 -16
119 -7 119 -7 119 59 119 37 0 74 15 74 30 0 15 -31 40 -48 38 -9 -1 -45 -3
-79 -5z"/>
<path d="M4126 1499 c-3 -13 -2 -179 2 -369 l7 -345 57 2 c139 5 180 76 181
313 0 204 -37 356 -97 395 -14 9 -52 19 -85 22 -57 5 -60 5 -65 -18z m122 -72
c28 -22 41 -68 53 -177 15 -142 8 -293 -15 -338 -18 -35 -55 -58 -79 -49 -12
4 -15 31 -16 129 0 68 -4 191 -7 275 -4 83 -4 159 0 168 6 17 37 13 64 -8z"/>
<path d="M5684 1510 c-8 -8 -9 -119 -6 -363 3 -306 6 -354 20 -364 21 -17 143
-17 166 0 10 7 17 22 14 33 -3 16 -13 19 -66 22 -34 2 -63 4 -64 5 -1 1 -5
153 -8 337 -5 326 -6 335 -25 338 -11 1 -25 -2 -31 -8z"/>
<path d="M5962 1497 c-7 -8 -10 -41 -7 -88 2 -41 7 -195 10 -343 4 -148 9
-275 12 -283 3 -8 16 -13 32 -11 l26 3 2 110 c2 61 -3 225 -10 365 -12 246
-13 255 -33 258 -11 2 -26 -3 -32 -11z"/>
<path d="M6997 1483 c-54 -25 -73 -43 -44 -43 34 0 117 32 117 45 0 25 -15 24
-73 -2z"/>
<path d="M7650 1485 c-5 -14 -10 -35 -10 -46 0 -10 -27 -155 -60 -321 -37
-183 -57 -305 -51 -311 19 -19 50 3 56 41 4 20 11 59 17 85 l10 48 62 -3 61
-3 8 -55 c15 -102 20 -115 49 -118 35 -4 38 9 22 103 -7 44 -20 123 -29 175
-70 431 -68 425 -98 428 -21 3 -29 -2 -37 -23z m40 -182 c0 -5 7 -48 15 -98 8
-49 15 -105 15 -122 0 -32 -1 -33 -45 -33 -29 0 -45 4 -45 13 -1 30 45 247 52
247 5 0 8 -3 8 -7z"/>
<path d="M6585 1398 c-58 -31 -74 -114 -33 -171 18 -25 19 -32 7 -35 -7 -3
-33 -24 -56 -46 -49 -50 -62 -96 -40 -149 38 -90 160 -102 245 -24 l23 22 32
-37 c59 -66 108 -61 54 5 -51 63 -51 63 -11 107 22 24 34 46 30 55 -9 24 -29
17 -59 -20 -15 -19 -32 -35 -36 -35 -5 0 -27 28 -49 62 l-41 62 35 38 c47 52
47 97 0 144 -35 35 -65 42 -101 22z m78 -69 c22 -31 13 -58 -29 -85 -23 -16
-26 -16 -39 2 -25 32 -28 62 -10 90 20 31 51 29 78 -7z m-9 -225 c21 -25 39
-53 40 -62 1 -19 -87 -82 -116 -82 -28 0 -78 54 -78 83 0 14 10 34 23 46 40
37 72 60 82 60 6 0 27 -20 49 -45z"/>
<path d="M6915 1331 c3 -5 31 -15 62 -22 32 -6 62 -13 68 -15 5 -2 16 0 24 5
12 8 12 12 2 25 -10 12 -32 16 -88 16 -43 0 -72 -4 -68 -9z"/>
<path d="M390 1155 c-21 -25 7 -73 64 -110 28 -18 63 -46 77 -61 32 -35 91
-126 84 -132 -2 -2 -20 6 -39 18 -55 33 -115 27 -116 -12 0 -29 92 -68 160
-68 24 0 38 -26 46 -85 4 -25 11 -45 15 -45 16 0 9 50 -17 128 l-25 77 22 67
c28 80 20 123 -21 123 -24 0 -25 -4 -30 -69 l-5 -70 -26 40 c-15 22 -41 69
-59 105 -18 35 -41 74 -53 87 -24 25 -59 29 -77 7z"/>
<path d="M8837 1138 c-14 -18 -32 -49 -42 -68 -9 -19 -36 -64 -59 -99 l-41
-63 -3 68 c-3 72 -13 94 -42 94 -36 0 -39 -50 -9 -153 l21 -72 -31 -94 c-34
-101 -35 -135 -1 -55 11 27 24 58 28 68 6 14 26 23 71 32 70 15 101 36 101 69
0 36 -29 38 -92 7 -32 -16 -58 -27 -58 -25 0 2 12 22 26 46 36 57 89 112 145
148 53 34 83 83 68 111 -16 29 -55 22 -82 -14z"/>
<path d="M760 775 c-14 -17 -17 -168 -4 -209 5 -15 -7 -8 -44 27 -53 48 -97
62 -108 32 -11 -28 26 -65 104 -104 67 -34 81 -46 109 -93 32 -53 113 -141
113 -122 0 6 -9 19 -19 28 -11 10 -32 35 -46 57 l-27 39 31 35 c47 54 54 107
15 122 -20 8 -64 -38 -64 -67 0 -30 -16 -32 -29 -4 -17 39 -13 107 10 168 18
46 20 61 11 81 -13 28 -34 32 -52 10z"/>
<path d="M8495 774 c-20 -20 -19 -38 6 -109 15 -44 20 -73 15 -109 -8 -70 -19
-75 -47 -19 -19 38 -29 48 -49 48 -21 0 -26 -5 -28 -31 -2 -23 6 -41 32 -73
20 -24 36 -51 36 -61 0 -10 -17 -40 -38 -67 -49 -62 -55 -73 -43 -73 14 0 84
95 115 156 22 43 33 54 74 71 92 39 154 118 106 137 -23 9 -54 -10 -96 -57
l-37 -42 6 91 c3 50 3 103 -1 117 -7 31 -31 41 -51 21z"/>
<path d="M1630 595 c-9 -11 -22 -14 -40 -10 -58 13 -63 -54 -8 -100 38 -32 61
-32 83 1 25 39 30 87 10 107 -20 21 -29 21 -45 2z"/>
<path d="M1305 462 c-24 -24 19 -112 55 -112 38 0 74 74 52 106 -7 11 -97 16
-107 6z"/>
<path d="M3390 440 c-16 -16 -20 -33 -20 -85 0 -57 3 -69 25 -91 20 -20 29
-23 44 -14 34 18 38 34 7 26 -42 -10 -56 8 -56 75 0 66 19 96 50 79 12 -6 21
-7 25 -1 6 10 -25 31 -44 31 -6 0 -20 -9 -31 -20z"/>
<path d="M3594 452 c-39 -26 -48 -142 -13 -186 26 -33 42 -33 69 2 19 23 21
37 18 96 -3 53 -8 71 -23 82 -21 16 -35 17 -51 6z m46 -31 c17 -32 12 -127 -7
-146 -16 -16 -18 -16 -35 5 -23 29 -25 122 -2 144 20 21 31 20 44 -3z"/>
<path d="M3875 450 c-4 -6 -6 -23 -5 -38 1 -15 1 -43 1 -62 -2 -34 -2 -34 -37
33 -19 37 -39 67 -44 67 -6 0 -10 -41 -10 -100 0 -115 18 -137 22 -27 l3 72
34 -72 c18 -40 38 -73 42 -73 5 0 9 47 9 105 0 102 -2 116 -15 95z"/>
<path d="M4038 449 c-34 -19 -43 -95 -22 -172 8 -26 40 -40 64 -27 30 16 24
30 -9 24 -28 -6 -30 -4 -41 37 -8 29 -9 56 -3 79 7 31 12 35 41 34 34 -2 39 5
20 24 -14 14 -27 15 -50 1z"/>
<path d="M4214 447 c-3 -8 -3 -56 -2 -108 l3 -94 43 -3 c49 -4 58 15 10 20
-29 3 -33 7 -36 36 -3 29 -1 32 22 32 14 0 26 5 26 10 0 6 -12 10 -26 10 -23
0 -25 3 -22 43 3 39 5 42 36 45 46 5 40 22 -8 22 -25 0 -43 -5 -46 -13z"/>
<path d="M4421 348 c1 -67 4 -103 8 -88 5 14 7 33 5 43 -2 13 6 22 27 29 74
26 60 128 -18 128 -23 0 -23 -2 -22 -112z m57 80 c27 -27 7 -78 -30 -78 -14 0
-18 8 -18 38 0 52 20 68 48 40z"/>
<path d="M4625 449 l-30 -7 28 -1 27 -1 0 -95 c0 -123 18 -125 22 -3 l3 93 30
5 c19 3 25 8 18 13 -13 8 -51 7 -98 -4z"/>
<path d="M4996 444 c-26 -25 -18 -54 24 -93 43 -39 49 -61 25 -81 -12 -10 -21
-10 -40 -2 -27 12 -33 4 -13 -16 18 -18 53 -15 71 6 28 31 21 62 -25 104 -35
32 -40 42 -31 56 6 10 22 16 37 15 29 -2 35 11 10 21 -25 10 -42 7 -58 -10z"/>
<path d="M5175 450 c-4 -6 5 -10 19 -10 l26 0 0 -94 c0 -128 18 -135 22 -9 l3
98 28 3 c15 2 25 8 22 13 -8 12 -112 12 -120 -1z"/>
<path d="M5410 440 c-16 -16 -20 -33 -20 -90 0 -57 4 -74 20 -90 25 -25 32
-25 61 -1 21 17 24 28 24 89 0 55 -4 74 -19 91 -24 26 -40 27 -66 1z m54 -22
c30 -43 12 -158 -25 -158 -12 0 -39 62 -39 90 0 28 27 90 39 90 5 0 17 -10 25
-22z"/>
<path d="M5607 453 c-11 -10 -8 -201 2 -208 6 -3 11 16 13 42 l3 48 33 -47
c42 -60 62 -63 27 -4 l-26 45 20 20 c27 27 27 65 1 91 -19 19 -60 27 -73 13z
m61 -25 c27 -27 7 -78 -30 -78 -14 0 -18 8 -18 38 0 52 20 68 48 40z"/>
<path d="M5814 447 c-3 -8 -3 -56 -2 -108 l3 -94 43 -3 c49 -4 58 15 10 20
-29 3 -33 7 -36 36 -3 29 -1 32 22 32 32 0 34 17 4 22 -20 3 -23 9 -23 43 0
38 2 40 33 43 46 5 40 22 -8 22 -25 0 -43 -5 -46 -13z"/>
<path d="M1832 438 c-21 -21 -13 -57 23 -96 l35 -37 35 37 c55 59 41 136 -18
99 -14 -9 -22 -10 -30 -2 -14 14 -30 14 -45 -1z"/>
<path d="M2850 441 c0 -5 19 -26 42 -45 l42 -36 -307 0 c-193 0 -308 -4 -312
-10 -4 -7 100 -10 304 -10 171 0 311 -3 311 -7 0 -4 -14 -22 -32 -40 -50 -52
-23 -52 30 0 30 30 57 47 72 47 24 0 23 0 -9 -34 -48 -49 -20 -55 32 -6 29 26
54 40 71 40 14 0 26 5 26 10 0 6 -15 10 -34 10 -25 0 -45 10 -80 41 -56 49
-78 43 -24 -7 38 -34 38 -34 11 -34 -16 0 -45 16 -79 45 -53 46 -64 52 -64 36z"/>
<path d="M6455 405 c-35 -31 -59 -45 -79 -45 l-30 0 32 33 c18 18 32 36 32 40
0 17 -23 4 -56 -33 -36 -40 -37 -40 -110 -40 -43 0 -74 -4 -74 -10 0 -6 29
-10 67 -10 67 0 68 0 115 -47 53 -52 80 -52 30 0 -39 40 -40 47 -6 47 15 0 44
-16 73 -40 46 -39 71 -50 71 -31 0 5 -17 23 -37 40 l-38 30 293 1 c193 0 291
3 287 10 -4 6 -112 10 -293 10 l-286 0 37 38 c36 37 45 52 30 52 -5 -1 -30
-21 -58 -45z"/>
<path d="M7913 395 c-32 -23 -38 -68 -15 -115 18 -37 18 -39 0 -43 -15 -4 -18
1 -18 29 0 27 -5 37 -25 46 -19 8 -28 8 -40 -2 -18 -15 -20 -51 -2 -69 10 -11
8 -13 -8 -8 -11 2 -28 8 -38 12 -13 6 -16 3 -11 -9 9 -23 46 -30 117 -22 82 9
74 9 141 -4 60 -12 106 -7 106 10 0 5 -14 7 -32 3 -27 -5 -31 -3 -20 8 6 7 12
21 12 32 0 26 -42 18 -55 -10 -5 -13 -15 -23 -22 -23 -23 0 -22 17 1 39 32 30
40 65 22 100 -23 43 -72 55 -113 26z m86 -30 c16 -21 18 -31 10 -55 -6 -16
-22 -36 -36 -45 -23 -15 -26 -15 -43 0 -23 21 -31 64 -18 90 23 43 58 46 87
10z m-141 -93 c2 -14 -2 -22 -12 -22 -19 0 -29 17 -22 36 8 22 30 12 34 -14z"/>
<path d="M1621 334 c-16 -21 -23 -23 -40 -15 -54 30 -95 -10 -71 -68 16 -38
84 -101 109 -101 40 0 82 69 84 136 1 72 -43 98 -82 48z"/>
<path d="M1083 274 c-3 -9 -1 -25 6 -35 8 -15 8 -24 -1 -39 -16 -25 -1 -54 30
-58 30 -5 81 25 95 55 10 23 8 28 -26 59 -41 38 -93 47 -104 18z"/>
</g>
</svg>
